<svg width="200" height="200" viewBox="0 0 200 200" fill="none" xmlns="http://www.w3.org/2000/svg">
<g clip-path="url(#clip0_276_9280)">
<rect width="200" height="200" rx="100" fill="#222222"/>
<rect opacity="0.2" width="200" height="200" rx="100" fill="url(#paint0_linear_276_9280)"/>
<path opacity="0.5" fill-rule="evenodd" clip-rule="evenodd" d="M-18.5 -60C-18.5 -125.446 34.5543 -178.5 100 -178.5C165.446 -178.5 218.5 -125.446 218.5 -60C218.5 -10.4062 188.034 32.0719 144.797 49.74C142.569 42.0059 139.841 34.9072 136.697 28.6185C127.569 10.3626 114.681 -1.5 100 -1.5C85.3186 -1.5 72.431 10.3626 63.303 28.6185C60.1587 34.9072 57.4306 42.0059 55.2029 49.74C11.9657 32.0719 -18.5 -10.4062 -18.5 -60ZM54.396 52.6514C9.89082 34.6169 -21.5 -9.02567 -21.5 -60C-21.5 -127.103 32.8974 -181.5 100 -181.5C167.103 -181.5 221.5 -127.103 221.5 -60C221.5 -9.02567 190.109 34.6169 145.604 52.6514C149.152 65.9662 151.245 81.0289 151.478 97H200V100H151.5C151.5 117.085 149.373 133.203 145.604 147.349C190.109 165.383 221.5 209.026 221.5 260C221.5 327.103 167.103 381.5 100 381.5C32.8974 381.5 -21.5 327.103 -21.5 260C-21.5 209.026 9.89082 165.383 54.396 147.349C50.6269 133.203 48.5 117.085 48.5 100H0V97H48.5219C48.7555 81.0289 50.8483 65.9662 54.396 52.6514ZM51.5 100C51.5 116.731 53.5693 132.469 57.2083 146.25C70.5179 141.24 84.9389 138.5 100 138.5C115.061 138.5 129.482 141.24 142.792 146.25C146.431 132.469 148.5 116.731 148.5 100H51.5ZM148.478 97H51.5222C51.7539 81.3879 53.7876 66.7048 57.2083 53.7503C70.5179 58.7596 84.9389 61.5 100 61.5C115.061 61.5 129.482 58.7596 142.792 53.7503C146.212 66.7048 148.246 81.3879 148.478 97ZM100 141.5C85.2135 141.5 71.0596 144.208 58.0071 149.156C60.2015 156.831 62.8918 163.851 65.9863 170.04C74.9548 187.977 87.0671 198.5 100 198.5C112.933 198.5 125.045 187.977 134.014 170.04C137.108 163.851 139.799 156.831 141.993 149.156C128.94 144.208 114.786 141.5 100 141.5ZM63.303 171.382C60.1587 165.093 57.4306 157.994 55.2029 150.26C11.9657 167.928 -18.5 210.406 -18.5 260C-18.5 325.446 34.5543 378.5 100 378.5C165.446 378.5 218.5 325.446 218.5 260C218.5 210.406 188.034 167.928 144.797 150.26C142.569 157.994 139.841 165.093 136.697 171.382C127.569 189.637 114.681 201.5 100 201.5C85.3186 201.5 72.431 189.637 63.303 171.382ZM141.993 50.8443C128.94 55.7918 114.786 58.5 100 58.5C85.2135 58.5 71.0596 55.7918 58.0071 50.8443C60.2015 43.1695 62.8918 36.1491 65.9863 29.9601C74.9548 12.0232 87.0671 1.5 100 1.5C112.933 1.5 125.045 12.0232 134.014 29.9601C137.108 36.1491 139.799 43.1695 141.993 50.8443Z" fill="#333333"/>
<path d="M185.298 125.228C189.711 123.159 191.82 121.329 199.122 117.705C199.708 117.415 200.405 117.752 200.438 118.405C200.942 128.489 188.231 155.138 163.881 180.906C163.843 180.947 163.797 180.987 163.752 181.02C145.63 194.611 145.533 184.55 146.742 178.938C149.011 168.399 161.858 164.198 162.492 154.023C163.126 143.848 162.232 139.38 168.696 132.22C174.621 125.656 179.458 127.966 185.298 125.228Z" fill="white"/>
<path d="M125.081 55.0293C113.2 33.9539 119.396 6.6266 123.979 -4.40265C34.0407 -9.57454 -15.7211 72.1212 -29.3597 113.616C-27.9847 114.002 -24.8067 122.24 -16.0064 124.712C-5.00606 127.804 -5.42015 140.625 -9.65458 155.693C-13.889 170.762 -9.0064 178.457 -2.13117 180.389C4.74407 182.321 18.4391 175.823 31.9677 138.239C45.4964 100.656 72.172 100.761 94.7226 99.7081C117.273 98.6547 139.933 81.3734 125.081 55.0293Z" fill="#333333"/>
<g opacity="0.4">
<circle cx="51" cy="17" r="5" fill="#666666"/>
<circle cx="93" cy="70" r="5" fill="#666666"/>
<circle cx="80" cy="31" r="5" fill="#666666"/>
<circle cx="19" cy="121" r="5" fill="#666666"/>
<circle cx="11" cy="77" r="5" fill="#666666"/>
</g>
<g opacity="0.3" filter="url(#filter0_f_276_9280)">
<circle cx="38" cy="-5" r="130" fill="black"/>
</g>
<circle cx="53" cy="79" r="3" fill="#666666" stroke="white" stroke-width="2"/>
<rect x="51" y="69" width="4" height="10" fill="#666666"/>
<circle cx="53" cy="59" r="14" fill="#A24DE8"/>
<circle cx="168" cy="171" r="5" fill="#666666" fill-opacity="0.35"/>
<circle cx="178" cy="146" r="5" fill="#666666" fill-opacity="0.35"/>
</g>
<defs>
<filter id="filter0_f_276_9280" x="-292" y="-335" width="660" height="660" filterUnits="userSpaceOnUse" color-interpolation-filters="sRGB">
<feFlood flood-opacity="0" result="BackgroundImageFix"/>
<feBlend mode="normal" in="SourceGraphic" in2="BackgroundImageFix" result="shape"/>
<feGaussianBlur stdDeviation="100" result="effect1_foregroundBlur_276_9280"/>
</filter>
<linearGradient id="paint0_linear_276_9280" x1="45.5" y1="47" x2="100" y2="200" gradientUnits="userSpaceOnUse">
<stop/>
<stop offset="1" stop-color="#222222" stop-opacity="0"/>
</linearGradient>
<clipPath id="clip0_276_9280">
<path d="M0 100C0 44.7715 44.7715 0 100 0C155.228 0 200 44.7715 200 100C200 155.228 155.228 200 100 200C44.7715 200 0 155.228 0 100Z" fill="white"/>
</clipPath>
</defs>
</svg>
