<svg width="200" height="200" viewBox="0 0 200 200" fill="none" xmlns="http://www.w3.org/2000/svg">
<g clip-path="url(#clip0_276_9302)">
<rect width="200" height="200" rx="100" fill="#222222"/>
<rect opacity="0.2" y="200" width="200" height="200" rx="100" transform="rotate(-90 0 200)" fill="url(#paint0_linear_276_9302)"/>
<g opacity="0.1" filter="url(#filter0_f_276_9302)">
<rect x="65" y="65" width="20" height="20" rx="10" fill="#A24DE8"/>
</g>
<g opacity="0.1" filter="url(#filter1_f_276_9302)">
<rect x="140" y="115" width="20" height="20" rx="10" fill="#A24DE8"/>
</g>
<rect x="-5" y="-5" width="10" height="10" rx="4" fill="#333333"/>
<rect x="20" y="-5" width="10" height="10" rx="4" fill="#333333"/>
<rect x="45" y="-5" width="10" height="10" rx="4" fill="#333333"/>
<rect x="70" y="-5" width="10" height="10" rx="4" fill="#333333"/>
<rect x="95" y="-5" width="10" height="10" rx="4" fill="#333333"/>
<rect x="120" y="-5" width="10" height="10" rx="4" fill="#333333"/>
<rect x="145" y="-5" width="10" height="10" rx="4" fill="#333333"/>
<rect x="170" y="-5" width="10" height="10" rx="4" fill="#333333"/>
<rect x="195" y="-5" width="10" height="10" rx="4" fill="#333333"/>
<rect x="-5" y="20" width="10" height="10" rx="4" fill="#333333"/>
<rect x="20" y="20" width="10" height="10" rx="4" fill="#333333"/>
<rect x="45" y="20" width="10" height="10" rx="4" fill="#A24DE8"/>
<rect x="70" y="20" width="10" height="10" rx="4" fill="#333333"/>
<rect x="95" y="20" width="10" height="10" rx="4" fill="white"/>
<rect x="120" y="20" width="10" height="10" rx="4" fill="#333333"/>
<rect x="145" y="20" width="10" height="10" rx="4" fill="#333333"/>
<rect x="170" y="20" width="10" height="10" rx="4" fill="#333333"/>
<rect x="195" y="20" width="10" height="10" rx="4" fill="#333333"/>
<rect x="-5" y="45" width="10" height="10" rx="4" fill="#333333"/>
<rect x="20" y="45" width="10" height="10" rx="4" fill="white"/>
<rect x="45" y="45" width="10" height="10" rx="4" fill="#333333"/>
<rect x="70" y="45" width="10" height="10" rx="4" fill="#333333"/>
<rect x="95" y="45" width="10" height="10" rx="4" fill="#333333"/>
<rect x="120" y="45" width="10" height="10" rx="4" fill="#333333"/>
<rect x="145" y="45" width="10" height="10" rx="4" fill="#333333"/>
<rect x="170" y="45" width="10" height="10" rx="4" fill="#A24DE8"/>
<rect x="195" y="45" width="10" height="10" rx="4" fill="#333333"/>
<rect x="-5" y="70" width="10" height="10" rx="4" fill="#333333"/>
<rect x="20" y="70" width="10" height="10" rx="4" fill="#333333"/>
<rect x="45" y="70" width="10" height="10" rx="4" fill="#333333"/>
<rect x="70" y="70" width="10" height="10" rx="4" fill="#A24DE8"/>
<rect x="95" y="70" width="10" height="10" rx="4" fill="#333333"/>
<rect x="120" y="70" width="10" height="10" rx="4" fill="white"/>
<rect x="145" y="70" width="10" height="10" rx="4" fill="#333333"/>
<rect x="170" y="70" width="10" height="10" rx="4" fill="#333333"/>
<rect x="195" y="70" width="10" height="10" rx="4" fill="#333333"/>
<rect x="-5" y="95" width="10" height="10" rx="4" fill="#A24DE8"/>
<rect x="20" y="95" width="10" height="10" rx="4" fill="#333333"/>
<rect x="45" y="95" width="10" height="10" rx="4" fill="#333333"/>
<rect x="70" y="95" width="10" height="10" rx="4" fill="#333333"/>
<rect x="95" y="95" width="10" height="10" rx="4" fill="#333333"/>
<rect x="120" y="95" width="10" height="10" rx="4" fill="#333333"/>
<rect x="145" y="95" width="10" height="10" rx="4" fill="#333333"/>
<rect x="170" y="95" width="10" height="10" rx="4" fill="#333333"/>
<rect x="195" y="95" width="10" height="10" rx="4" fill="#333333"/>
<rect x="-5" y="120" width="10" height="10" rx="4" fill="#333333"/>
<rect x="20" y="120" width="10" height="10" rx="4" fill="#333333"/>
<rect x="45" y="120" width="10" height="10" rx="4" fill="white"/>
<rect x="70" y="120" width="10" height="10" rx="4" fill="#333333"/>
<rect x="95" y="120" width="10" height="10" rx="4" fill="white"/>
<rect x="120" y="120" width="10" height="10" rx="4" fill="#333333"/>
<rect x="145" y="120" width="10" height="10" rx="4" fill="#A24DE8"/>
<rect x="170" y="120" width="10" height="10" rx="4" fill="#333333"/>
<rect x="195" y="120" width="10" height="10" rx="4" fill="#333333"/>
<rect x="-5" y="145" width="10" height="10" rx="4" fill="#333333"/>
<rect x="20" y="145" width="10" height="10" rx="4" fill="#333333"/>
<rect x="45" y="145" width="10" height="10" rx="4" fill="#333333"/>
<rect x="70" y="145" width="10" height="10" rx="4" fill="#333333"/>
<rect x="95" y="145" width="10" height="10" rx="4" fill="#333333"/>
<rect x="120" y="145" width="10" height="10" rx="4" fill="#333333"/>
<rect x="145" y="145" width="10" height="10" rx="4" fill="white"/>
<rect x="170" y="145" width="10" height="10" rx="4" fill="#333333"/>
<rect x="195" y="145" width="10" height="10" rx="4" fill="#333333"/>
<rect x="-5" y="170" width="10" height="10" rx="4" fill="#333333"/>
<rect x="20" y="170" width="10" height="10" rx="4" fill="#333333"/>
<rect x="45" y="170" width="10" height="10" rx="4" fill="#333333"/>
<rect x="70" y="170" width="10" height="10" rx="4" fill="#A24DE8"/>
<rect x="95" y="170" width="10" height="10" rx="4" fill="#333333"/>
<rect x="120" y="170" width="10" height="10" rx="4" fill="white"/>
<rect x="145" y="170" width="10" height="10" rx="4" fill="#333333"/>
<rect x="170" y="170" width="10" height="10" rx="4" fill="#333333"/>
<rect x="195" y="170" width="10" height="10" rx="4" fill="#333333"/>
<rect x="-5" y="195" width="10" height="10" rx="4" fill="#333333"/>
<rect x="20" y="195" width="10" height="10" rx="4" fill="#333333"/>
<rect x="45" y="195" width="10" height="10" rx="4" fill="#333333"/>
<rect x="70" y="195" width="10" height="10" rx="4" fill="#333333"/>
<rect x="95" y="195" width="10" height="10" rx="4" fill="#333333"/>
<rect x="120" y="195" width="10" height="10" rx="4" fill="#333333"/>
<rect x="145" y="195" width="10" height="10" rx="4" fill="#333333"/>
<rect x="170" y="195" width="10" height="10" rx="4" fill="#333333"/>
<rect x="195" y="195" width="10" height="10" rx="4" fill="#333333"/>
</g>
<defs>
<filter id="filter0_f_276_9302" x="35" y="35" width="80" height="80" filterUnits="userSpaceOnUse" color-interpolation-filters="sRGB">
<feFlood flood-opacity="0" result="BackgroundImageFix"/>
<feBlend mode="normal" in="SourceGraphic" in2="BackgroundImageFix" result="shape"/>
<feGaussianBlur stdDeviation="15" result="effect1_foregroundBlur_276_9302"/>
</filter>
<filter id="filter1_f_276_9302" x="110" y="85" width="80" height="80" filterUnits="userSpaceOnUse" color-interpolation-filters="sRGB">
<feFlood flood-opacity="0" result="BackgroundImageFix"/>
<feBlend mode="normal" in="SourceGraphic" in2="BackgroundImageFix" result="shape"/>
<feGaussianBlur stdDeviation="15" result="effect1_foregroundBlur_276_9302"/>
</filter>
<linearGradient id="paint0_linear_276_9302" x1="45.5" y1="247" x2="100" y2="400" gradientUnits="userSpaceOnUse">
<stop/>
<stop offset="1" stop-color="#222222" stop-opacity="0"/>
</linearGradient>
<clipPath id="clip0_276_9302">
<path d="M0 100C0 44.7715 44.7715 0 100 0C155.228 0 200 44.7715 200 100C200 155.228 155.228 200 100 200C44.7715 200 0 155.228 0 100Z" fill="white"/>
</clipPath>
</defs>
</svg>
