<svg width="200" height="200" viewBox="0 0 200 200" fill="none" xmlns="http://www.w3.org/2000/svg">
<g clip-path="url(#clip0_276_9399)">
<rect width="200" height="200" rx="100" fill="#222222"/>
<g opacity="0.6">
<path fill-rule="evenodd" clip-rule="evenodd" d="M94.3038 -102.975C64.3511 -102.621 34.1767 -95.6988 6.00535 -81.4304C-91.9867 -31.7991 -133.353 91.3835 -83.5509 189.664C-34.8464 285.779 85.9844 326.353 182.387 277.477C276.629 229.697 316.408 111.191 268.457 16.661C221.597 -75.716 105.425 -114.697 12.7616 -67.6664C-77.7557 -21.725 -115.953 92.1231 -69.8407 182.926C-24.8146 271.59 86.7358 309.001 175.684 263.803C262.501 219.689 299.122 110.464 254.837 23.3633C211.632 -61.6123 104.687 -97.4582 19.428 -54.082C-63.7132 -11.7831 -98.7806 92.8719 -56.3103 176.295C-14.9143 257.609 87.459 291.894 169.054 250.327C248.546 209.83 282.064 109.731 241.396 29.9579C201.796 -47.7197 103.962 -80.467 26.0046 -40.6953C-49.8653 -1.98852 -81.8382 93.588 -42.9595 169.737C-5.14256 243.806 88.1839 275.019 162.531 237.03C234.807 200.099 265.256 109.015 228.153 36.4626C192.105 -34.0266 103.239 -63.7264 32.4733 -27.5062C-36.2367 7.66194 -65.1654 94.3005 -29.8243 163.286C4.46792 230.224 88.9032 258.414 156.116 223.949C221.291 190.528 248.719 108.308 215.126 42.8595C182.574 -20.5586 102.543 -47.2581 38.8522 -14.5328C-22.8174 17.154 -48.7657 95.0014 -16.9048 156.943C13.921 216.872 89.591 242.083 149.791 211.083C207.988 181.114 232.476 107.598 202.332 49.1305C173.216 -7.34276 101.848 -31.0843 45.1054 -1.79291C-9.65266 26.4741 -32.6798 95.6996 -4.23684 150.726C23.1854 203.777 90.2913 226.068 143.61 198.469C194.964 171.887 216.531 106.914 189.772 55.2938C164.026 5.62845 101.163 -15.2281 51.2327 10.6954C3.2465 35.6093 -16.8949 96.3839 8.19754 144.634C32.2843 190.951 90.9566 210.39 137.537 186.124C182.193 162.86 200.926 106.233 177.481 61.3134C155.035 18.3063 100.485 0.286316 57.2163 22.9141C15.8486 44.5479 -1.48964 97.0588 20.3264 138.687C41.1525 178.426 91.6267 195.059 131.625 174.049C169.746 154.026 185.704 105.568 165.496 67.1891C146.27 30.6749 99.8276 15.4151 63.0561 34.8274C28.1371 53.2618 13.5458 97.7076 32.1678 132.883C49.8161 166.219 92.2838 180.153 125.875 162.316C157.64 145.448 170.893 104.922 153.834 72.9032C137.741 42.6965 99.1763 30.0942 68.7163 46.3813C40.0545 61.7069 28.1105 98.3447 43.6319 127.259C58.1959 154.389 92.9229 165.686 120.305 150.924C145.918 137.114 156.578 104.283 142.568 78.4196C129.507 54.3085 98.5393 44.2919 74.1788 57.5579C51.5546 69.8784 42.1715 98.9774 54.7007 121.85C66.2881 143.004 93.5487 151.781 114.95 139.981C134.649 129.118 142.813 103.667 131.733 83.7204C121.587 65.4569 97.9175 57.9155 79.4077 68.2852C62.5616 77.7229 55.6155 99.6012 65.2843 116.693C74.0233 132.141 94.1709 138.501 109.865 129.523C123.937 121.472 129.718 103.033 121.419 88.7157C114.046 75.9981 97.2939 70.8039 84.3311 78.4376C72.9438 85.1436 68.3107 100.245 75.2929 111.877C81.3448 121.96 94.81 126.041 105.139 119.694C113.946 114.282 117.501 102.387 111.769 93.3337C106.982 85.7725 96.6144 82.7303 88.8054 87.8712C82.4558 92.0512 79.9289 100.949 84.5108 107.547C88.1053 112.723 95.5829 114.761 101.006 110.691C105.053 107.655 106.636 101.497 103.001 97.2149C101.739 95.7287 100.018 94.7882 98.0952 94.5196C96.1723 94.251 93.883 94.796 92.3093 96.4782C91.3094 97.5469 90.7981 98.7984 90.746 100.288C90.6938 101.777 91.5184 103.822 93.2796 104.708C94.7924 105.468 95.2166 105.234 96.2983 104.924C96.8392 104.768 97.617 104.517 98.2749 103.558C98.7902 102.807 98.7798 101.759 98.5983 100.916C98.6031 100.922 98.6117 100.929 98.6163 100.934C99.8514 102.389 99.1929 104.863 97.5561 106.091C94.9878 108.019 91.1028 106.946 89.2366 104.259C86.6442 100.526 88.1643 95.1908 91.9678 92.6868C96.9072 89.4352 103.77 91.4341 106.918 96.4063C110.831 102.588 108.323 111.006 102.138 114.806C94.6826 119.388 84.6785 116.347 80.2163 108.913C74.9592 100.154 78.5248 88.5305 87.2421 83.397C97.3301 77.4561 110.627 81.579 116.441 91.6087C123.074 103.051 118.377 118.023 107.008 124.527C94.1891 131.861 77.5004 126.605 70.2975 113.872C62.2554 99.6555 68.1094 81.2086 82.2288 73.2985C97.8631 64.5397 118.076 70.9784 126.701 86.5056C136.185 103.577 129.137 125.6 112.183 134.949C93.6572 145.164 69.8297 137.502 59.7499 119.101C48.7959 99.1038 57.0628 73.4251 76.928 62.6071C98.4128 50.9071 125.937 59.8227 137.501 81.1688C149.953 104.157 140.416 133.559 117.573 145.874C93.0673 159.086 61.7733 148.901 48.6991 124.545C34.7215 98.5071 45.5475 65.2878 71.4296 51.4485C99.0138 36.6991 134.157 48.1935 148.767 75.6165C164.294 104.76 152.157 141.843 123.18 157.231C92.4642 173.541 53.4057 160.732 37.235 130.188C20.1354 97.888 33.6087 56.8718 65.7335 39.9126C99.6292 22.0184 142.657 36.1674 160.411 69.8844C179.105 105.388 164.268 150.411 128.948 168.964C91.8251 188.463 44.7869 172.946 25.4296 136.009C5.12058 97.2572 21.3129 48.1662 59.8757 27.9993C100.268 6.87537 151.415 23.7728 172.396 63.9727C194.34 106.016 176.743 159.22 134.895 181.021C91.191 203.789 35.9254 185.48 13.3007 141.975C-10.2963 96.6003 8.70102 39.2519 53.8741 15.7985C100.929 -8.6319 160.382 11.0847 184.669 57.9352C209.937 106.68 189.506 168.242 140.969 193.366C90.5256 219.476 26.8498 198.318 0.884254 148.084C-26.0723 95.9339 -4.19164 30.1216 47.7468 3.31022C101.613 -24.4967 169.549 -1.88031 197.211 51.7719C225.872 107.363 202.543 177.464 147.168 205.98C89.8433 235.499 17.5717 211.425 -11.8017 154.32C-42.1834 95.2537 -17.3691 20.8236 41.4757 -9.41166C102.291 -40.6594 178.904 -15.1091 210.005 45.4829C242.122 108.055 215.84 186.857 153.493 218.827C89.1555 251.818 8.14011 224.773 -24.7032 160.663C-58.5711 94.5527 -30.784 11.3349 35.0968 -22.3851C102.987 -57.1334 188.432 -28.5909 223.032 39.068C258.664 108.745 229.352 196.425 159.908 231.909C88.4361 268.428 -1.46742 238.368 -37.8384 167.131C-75.2489 93.8582 -44.4269 1.68729 28.61 -35.5742C103.692 -73.8788 198.12 -42.2804 236.275 32.5634C275.477 109.46 243.106 206.153 166.448 245.206C87.7292 285.308 -11.2366 252.15 -51.1892 173.672C-92.1955 93.1241 -58.2717 -8.10487 22.0335 -48.9609C104.417 -90.8741 207.953 -56.1701 249.716 25.9688C292.539 110.194 257.058 216.01 173.079 258.682C87.006 302.418 -21.1348 266.164 -64.7197 180.338C-109.372 92.4113 -72.3114 -18.0447 15.3671 -62.5453C105.155 -108.116 217.917 -70.2711 263.336 19.2665C309.829 110.921 271.202 226.016 179.799 272.356C86.2726 319.774 -31.1647 280.351 -78.4298 187.077C-126.775 91.6717 -86.5401 -28.099 8.61082 -76.2914C105.9 -125.567 228.013 -84.5417 277.136 12.4923C308.753 74.9476 305.346 151.208 268.655 210.777L273.542 213.796C311.298 152.499 314.819 74.172 282.275 9.88678C245.934 -61.8988 170.85 -103.879 94.3038 -102.975ZM95.0225 99.2274C95.1133 99.2139 95.2892 99.2873 95.8491 99.5688C96.1893 99.7399 96.4984 100.417 96.496 100.485C96.4936 100.553 96.5945 100.308 96.496 100.413C96.7058 100.189 96.8439 100.154 97.2866 100.216C97.4727 100.242 97.6395 100.421 97.8436 100.521L93.3155 102.749C93.0995 102.31 93.0264 101.041 93.5311 100.306C94.0359 99.5696 94.505 99.45 94.7171 99.3891C94.9292 99.3283 94.9318 99.2409 95.0225 99.2274Z" fill="#333333"/>
<path d="M285.216 185.913C285.216 185.913 275.816 207.353 267.148 217.803C253.039 234.813 226.284 261.365 191.276 277.153C173.816 285.027 140.518 293.467 114.632 294.278" stroke="#333333" stroke-width="10"/>
</g>
<path fill-rule="evenodd" clip-rule="evenodd" d="M11 100C11 149.153 50.8467 189 100 189C149.153 189 189 149.153 189 100C189 50.8467 149.153 11 100 11C50.8467 11 11 50.8467 11 100ZM100 0C44.7715 0 0 44.7715 0 100C0 155.228 44.7715 200 100 200C155.228 200 200 155.228 200 100C200 44.7715 155.228 0 100 0Z" fill="#222222"/>
<rect width="200" height="200" rx="100" fill="url(#paint0_radial_276_9399)"/>
<path d="M76.6839 103.526C78.1244 108.851 81.5546 113.306 86.3434 116.071C91.1322 118.836 96.7055 119.579 102.037 118.164C106.409 117.004 110.061 114.212 112.317 110.304C114.573 106.396 115.167 101.839 113.984 97.4703C111.974 90.0354 104.281 85.5963 96.8395 87.5717C93.8476 88.3657 91.3492 90.2747 89.8052 92.9491C88.2611 95.6235 87.8561 98.7411 88.6654 101.73C89.3404 104.228 90.9501 106.318 93.196 107.614C95.4419 108.911 98.0559 109.259 100.557 108.596C104.909 107.442 107.493 102.967 106.317 98.6203C105.832 96.8289 104.679 95.3296 103.067 94.3988C101.455 93.468 99.5805 93.2184 97.7863 93.6953C96.6762 93.9898 96.0196 95.1271 96.319 96.2367C96.6194 97.3444 97.7617 98.0051 98.8718 97.7106C100.313 97.329 101.906 98.2489 102.296 99.6874C102.873 101.819 101.605 104.015 99.47 104.582C98.043 104.96 96.5511 104.761 95.2692 104.021C93.9874 103.281 93.0691 102.089 92.6836 100.663C92.1646 98.748 92.4244 96.7491 93.414 95.035C94.4036 93.321 96.0053 92.0957 97.9236 91.5874C103.151 90.2001 108.55 93.3181 109.963 98.5382C110.854 101.833 110.407 105.271 108.705 108.22C107.003 111.168 104.249 113.275 100.95 114.15C96.6912 115.28 92.2399 114.686 88.4161 112.479C84.5923 110.271 81.8527 106.713 80.7021 102.46C79.2278 97.0104 79.9668 91.3234 82.7826 86.4463C85.5984 81.5691 90.154 78.0857 95.6105 76.6377C102.612 74.7797 109.916 75.7543 116.196 79.3801C116.241 79.4061 116.286 79.4322 116.331 79.4577C122.518 83.0754 126.902 88.8467 128.677 95.7097C132.912 112.084 124.467 129.402 109.034 135.994C107.978 136.444 107.492 137.665 107.949 138.72C108.406 139.776 109.631 140.265 110.686 139.814C127.983 132.426 137.453 113.027 132.711 94.6881C130.656 86.7414 125.583 80.0612 118.427 75.8768C118.374 75.8461 118.324 75.8174 118.271 75.7867C111.028 71.6048 102.601 70.4802 94.5254 72.6238C87.9948 74.3561 82.5425 78.5255 79.1727 84.3621C75.803 90.1987 74.9197 97.0049 76.6839 103.526Z" fill="white"/>
<rect x="66" y="66" width="68" height="68" rx="34" fill="url(#paint1_radial_276_9399)"/>
<circle cx="110" cy="139" r="14" fill="#A24DE8"/>
<g opacity="0.1" filter="url(#filter0_f_276_9399)">
<rect x="92.4824" y="149.515" width="26.4171" height="16.5536" transform="rotate(-54.5289 92.4824 149.515)" fill="#A24DE8"/>
</g>
</g>
<defs>
<filter id="filter0_f_276_9399" x="85.4824" y="121" width="42.811" height="45.1201" filterUnits="userSpaceOnUse" color-interpolation-filters="sRGB">
<feFlood flood-opacity="0" result="BackgroundImageFix"/>
<feBlend mode="normal" in="SourceGraphic" in2="BackgroundImageFix" result="shape"/>
<feGaussianBlur stdDeviation="3.5" result="effect1_foregroundBlur_276_9399"/>
</filter>
<radialGradient id="paint0_radial_276_9399" cx="0" cy="0" r="1" gradientUnits="userSpaceOnUse" gradientTransform="translate(100 100) rotate(90) scale(100)">
<stop stop-color="#111111"/>
<stop offset="1" stop-opacity="0"/>
</radialGradient>
<radialGradient id="paint1_radial_276_9399" cx="0" cy="0" r="1" gradientUnits="userSpaceOnUse" gradientTransform="translate(100 100) rotate(90) scale(34)">
<stop stop-color="#111111"/>
<stop offset="1" stop-opacity="0"/>
</radialGradient>
<clipPath id="clip0_276_9399">
<path d="M0 100C0 44.7715 44.7715 0 100 0C155.228 0 200 44.7715 200 100C200 155.228 155.228 200 100 200C44.7715 200 0 155.228 0 100Z" fill="white"/>
</clipPath>
</defs>
</svg>
