<svg width="200" height="200" viewBox="0 0 200 200" fill="none" xmlns="http://www.w3.org/2000/svg">
<g clip-path="url(#clip0_276_9415)">
<rect width="200" height="200" rx="100" fill="#222222"/>
<rect opacity="0.3" width="200" height="200" rx="100" fill="url(#paint0_radial_276_9415)"/>
<rect opacity="0.8" x="110.427" y="48" width="128.303" height="60" transform="rotate(45 110.427 48)" fill="url(#paint1_linear_276_9415)"/>
<rect opacity="0.3" x="-56.3188" y="11.2549" width="351.029" height="60" transform="rotate(45 -56.3188 11.2549)" fill="url(#paint2_linear_276_9415)"/>
<rect opacity="0.6" x="315.271" y="-72.8887" width="517.032" height="60" transform="rotate(135 315.271 -72.8887)" fill="url(#paint3_linear_276_9415)"/>
<rect opacity="0.4" x="248.271" y="-149.889" width="645.575" height="60" transform="rotate(135 248.271 -149.889)" fill="url(#paint4_linear_276_9415)"/>
<rect x="60" y="40" width="60" height="60" rx="30" fill="#A24DE8"/>
<path fill-rule="evenodd" clip-rule="evenodd" d="M85.4981 72.1758C86.1279 69.3346 88.2039 66.1158 89.824 64.0693L92.1761 65.9314C90.6296 67.885 88.9056 70.6662 88.427 72.825C88.1871 73.9076 88.3326 74.4973 88.5526 74.7933C88.7481 75.0565 89.3159 75.5004 91.0001 75.5004V78.5004C88.8842 78.5004 87.1562 77.9443 86.1445 76.5824C85.1571 75.2535 85.1839 73.5932 85.4981 72.1758Z" fill="white"/>
<rect x="78.5" y="59.5" width="5" height="5" rx="2.5" fill="white" stroke="white"/>
<rect x="96.5" y="59.5" width="5" height="5" rx="2.5" fill="white" stroke="white"/>
<rect x="140" y="120" width="60" height="60" rx="30" fill="white"/>
<path fill-rule="evenodd" clip-rule="evenodd" d="M165.498 152.176C166.128 149.335 168.204 146.116 169.824 144.069L172.176 145.931C170.63 147.885 168.906 150.666 168.427 152.825C168.187 153.908 168.333 154.497 168.553 154.793C168.748 155.057 169.316 155.5 171 155.5V158.5C168.884 158.5 167.156 157.944 166.144 156.582C165.157 155.253 165.184 153.593 165.498 152.176Z" fill="#222222"/>
<rect x="158" y="139" width="6" height="6" rx="3" fill="#222222"/>
<rect x="176" y="139" width="6" height="6" rx="3" fill="#222222"/>
<rect x="150" y="-10" width="60" height="60" rx="30" fill="#666666"/>
<path d="M181 15C177.833 19 173.4 27 181 27" stroke="#222222" stroke-width="3"/>
<rect x="168" y="9" width="6" height="6" rx="3" fill="#222222"/>
<rect x="186" y="9" width="6" height="6" rx="3" fill="#222222"/>
<rect x="-13" y="145" width="60" height="60" rx="30" fill="#666666"/>
<path d="M18.0001 170C14.8334 174 10.4001 182 18.0001 182" stroke="#222222" stroke-width="3"/>
<rect x="5" y="164" width="6" height="6" rx="3" fill="#222222"/>
<rect x="23" y="164" width="6" height="6" rx="3" fill="#222222"/>
</g>
<defs>
<radialGradient id="paint0_radial_276_9415" cx="0" cy="0" r="1" gradientUnits="userSpaceOnUse" gradientTransform="translate(100 100) rotate(90) scale(100)">
<stop stop-color="#111111"/>
<stop offset="1" stop-opacity="0"/>
</radialGradient>
<linearGradient id="paint1_linear_276_9415" x1="239.012" y1="49.0961" x2="111.226" y2="48.8162" gradientUnits="userSpaceOnUse">
<stop stop-color="#6F6F6F"/>
<stop offset="0.473958" stop-color="#444444" stop-opacity="0"/>
<stop offset="1" stop-color="#6F6F6F"/>
</linearGradient>
<linearGradient id="paint2_linear_276_9415" x1="295.481" y1="12.351" x2="-54.1205" y2="10.2556" gradientUnits="userSpaceOnUse">
<stop stop-color="#6F6F6F"/>
<stop offset="0.473958" stop-color="#444444" stop-opacity="0"/>
<stop offset="1" stop-color="#6F6F6F"/>
</linearGradient>
<linearGradient id="paint3_linear_276_9415" x1="833.438" y1="-71.7926" x2="318.53" y2="-76.3382" gradientUnits="userSpaceOnUse">
<stop stop-color="#6F6F6F"/>
<stop offset="0.473958" stop-color="#444444" stop-opacity="0"/>
<stop offset="1" stop-color="#6F6F6F"/>
</linearGradient>
<linearGradient id="paint4_linear_276_9415" x1="895.263" y1="-148.793" x2="252.369" y2="-155.879" gradientUnits="userSpaceOnUse">
<stop stop-color="#6F6F6F"/>
<stop offset="0.473958" stop-color="#444444" stop-opacity="0"/>
<stop offset="1" stop-color="#6F6F6F"/>
</linearGradient>
<clipPath id="clip0_276_9415">
<path d="M0 100C0 44.7715 44.7715 0 100 0C155.228 0 200 44.7715 200 100C200 155.228 155.228 200 100 200C44.7715 200 0 155.228 0 100Z" fill="white"/>
</clipPath>
</defs>
</svg>
