<svg width="200" height="200" viewBox="0 0 200 200" fill="none" xmlns="http://www.w3.org/2000/svg">
<g clip-path="url(#clip0_276_9441)">
<rect width="200" height="200" rx="100" fill="#222222"/>
<rect opacity="0.2" width="200" height="200" rx="100" fill="url(#paint0_linear_276_9441)"/>
<path opacity="0.15" d="M30 50C30 44.4772 34.4772 40 40 40H70C75.5228 40 80 44.4772 80 50V80C80 85.5228 75.5228 90 70 90H40C34.4772 90 30 85.5228 30 80V50Z" fill="#666666"/>
<path d="M-30 50C-30 44.4772 -25.5228 40 -20 40H10C15.5228 40 20 44.4772 20 50V80C20 85.5228 15.5228 90 10 90H-20C-25.5228 90 -30 85.5228 -30 80V50Z" fill="white"/>
<path opacity="0.15" d="M50 110C50 104.477 54.4772 100 60 100H90C95.5228 100 100 104.477 100 110V140C100 145.523 95.5228 150 90 150H60C54.4772 150 50 145.523 50 140V110Z" fill="#666666"/>
<path opacity="0.15" d="M43 170C43 164.477 47.4772 160 53 160H150C155.523 160 160 164.477 160 170V200C160 205.523 155.523 210 150 210H53C47.4772 210 43 205.523 43 200V170Z" fill="#666666"/>
<path opacity="0.15" d="M-10 110C-10 104.477 -5.52285 100 0 100H30C35.5228 100 40 104.477 40 110V140C40 145.523 35.5228 150 30 150H-9.53674e-07C-5.52285 150 -10 145.523 -10 140V110Z" fill="#666666"/>
<path opacity="0.15" d="M13 -10C13 -15.5228 17.4772 -20 23 -20H53C58.5228 -20 63 -15.5228 63 -10V20C63 25.5228 58.5228 30 53 30H23C17.4772 30 13 25.5228 13 20V-10Z" fill="#666666"/>
<path opacity="0.15" d="M73 -10C73 -15.5228 77.4772 -20 83 -20H150C155.523 -20 160 -15.5228 160 -10V20C160 25.5228 155.523 30 150 30H83C77.4772 30 73 25.5228 73 20V-10Z" fill="#666666"/>
<path d="M100 40C94.4772 40 90 44.4772 90 50V80C90 85.5228 94.4772 90 100 90C105.523 90 110 94.4772 110 100V140C110 145.523 114.477 150 120 150H150C155.523 150 160 145.523 160 140V50C160 44.4772 155.523 40 150 40H100Z" fill="#A24DE8"/>
<path d="M104.587 52.7949H107.675V57.2749L107.578 59.4966L107.59 59.5088C107.728 59.3135 107.887 59.1263 108.066 58.9473C108.253 58.7682 108.461 58.6095 108.688 58.4712C108.924 58.3247 109.181 58.2108 109.458 58.1294C109.742 58.048 110.052 58.0073 110.385 58.0073C110.556 58.0073 110.76 58.0236 110.996 58.0562C111.24 58.0887 111.488 58.1701 111.74 58.3003C112.001 58.4305 112.257 58.6258 112.509 58.8862C112.77 59.1385 112.998 59.4884 113.193 59.936C113.396 60.3836 113.559 60.9411 113.681 61.6084C113.811 62.2757 113.876 63.0854 113.876 64.0376V69.1279C113.876 70.0801 113.811 70.8898 113.681 71.5571C113.559 72.2244 113.396 72.786 113.193 73.2417C112.989 73.6893 112.757 74.0433 112.497 74.3037C112.237 74.5641 111.972 74.7594 111.704 74.8896C111.435 75.0199 111.175 75.1012 110.922 75.1338C110.67 75.1745 110.45 75.1948 110.263 75.1948C109.873 75.1948 109.519 75.146 109.201 75.0483C108.892 74.9507 108.615 74.8205 108.371 74.6577C108.135 74.4868 107.924 74.2956 107.736 74.084C107.557 73.8724 107.399 73.6567 107.26 73.437L107.004 74.9995H104.587V52.7949ZM107.675 71.5938C107.74 71.7484 107.818 71.8989 107.907 72.0454C108.005 72.1919 108.115 72.3221 108.237 72.436C108.359 72.5418 108.501 72.6313 108.664 72.7046C108.827 72.7697 109.01 72.8022 109.213 72.8022C109.441 72.8022 109.649 72.7616 109.836 72.6802C110.023 72.5907 110.186 72.436 110.324 72.2163C110.463 71.9884 110.568 71.6751 110.642 71.2764C110.723 70.8776 110.764 70.3649 110.764 69.7383V63.3052C110.764 62.6785 110.723 62.1699 110.642 61.7793C110.568 61.3805 110.463 61.0672 110.324 60.8394C110.194 60.6115 110.035 60.4569 109.848 60.3755C109.661 60.2941 109.453 60.2534 109.226 60.2534C108.843 60.2534 108.526 60.3674 108.273 60.5952C108.029 60.8149 107.83 61.0794 107.675 61.3887V71.5938Z" fill="white"/>
<path d="M115.446 58.1904H118.535V70.8247C118.535 71.5653 118.649 72.082 118.876 72.375C119.104 72.6598 119.438 72.8022 119.877 72.8022C120.187 72.8022 120.488 72.7168 120.781 72.5459C121.074 72.375 121.338 72.1309 121.574 71.8135V58.1904H124.663V74.9995H122.307L122.001 73.2051H121.989C121.745 73.5876 121.485 73.909 121.208 74.1694C120.939 74.4217 120.655 74.6252 120.354 74.7798C120.061 74.9263 119.759 75.0321 119.45 75.0972C119.141 75.1623 118.832 75.1948 118.522 75.1948C117.538 75.1948 116.777 74.853 116.24 74.1694C115.711 73.4858 115.446 72.4523 115.446 71.0688V58.1904Z" fill="white"/>
<path d="M126.013 78.2344C126.477 78.2995 126.904 78.2832 127.294 78.1855C127.685 78.096 128.019 77.9211 128.295 77.6606C128.58 77.4002 128.804 77.0544 128.967 76.623C129.138 76.1999 129.235 75.6912 129.26 75.0972L125.28 58.1904H128.417L130.188 67.4922L130.7 70.7026H130.798L131.152 67.4922L132.58 58.1904H135.62L132.08 75.6221C131.925 76.4277 131.726 77.1317 131.481 77.7339C131.245 78.3361 130.948 78.8366 130.59 79.2354C130.24 79.6341 129.821 79.9312 129.333 80.1265C128.845 80.3299 128.275 80.4316 127.624 80.4316C127.095 80.4316 126.554 80.3299 126 80.1265L126.013 78.2344Z" fill="white"/>
<path d="M123.587 120.191L125.967 120.191L126.248 121.985V121.998C126.492 121.615 126.753 121.298 127.029 121.045C127.314 120.785 127.607 120.577 127.908 120.423C128.209 120.268 128.514 120.158 128.824 120.093C129.141 120.028 129.454 119.996 129.764 119.996C130.748 119.996 131.505 120.341 132.034 121.033C132.571 121.717 132.84 122.746 132.84 124.122L132.84 137H129.751L129.751 124.231C129.751 123.491 129.638 122.978 129.41 122.693C129.182 122.4 128.848 122.254 128.409 122.254C128.099 122.254 127.79 122.356 127.481 122.559C127.18 122.763 126.911 123.043 126.675 123.401L126.675 137H123.587L123.587 120.191Z" fill="white"/>
<path d="M135.953 122.388L134.5 122.388V120.191L135.953 120.191V118.982C135.953 118.071 136.047 117.33 136.234 116.761C136.421 116.183 136.677 115.735 137.003 115.418C137.337 115.092 137.723 114.873 138.163 114.759C138.61 114.645 139.09 114.588 139.603 114.588C139.75 114.588 139.912 114.596 140.091 114.612C140.278 114.629 140.462 114.657 140.641 114.698C140.828 114.73 141.007 114.771 141.178 114.82C141.357 114.869 141.515 114.93 141.654 115.003V117.176C141.312 117.086 140.93 117.042 140.506 117.042C140.303 117.042 140.108 117.074 139.92 117.139C139.741 117.204 139.583 117.314 139.444 117.469C139.306 117.615 139.196 117.815 139.115 118.067C139.033 118.311 138.993 118.616 138.993 118.982V120.191L141.324 120.191V122.388L138.993 122.388L138.993 137H135.953L135.953 122.388Z" fill="white"/>
<path d="M142.912 122.388H141.605V120.191H143.18L143.803 115.833L146 115.833V120.191L148.686 120.191V122.388L146 122.388L146 133.082C146 133.448 146.033 133.745 146.098 133.973C146.171 134.192 146.269 134.367 146.391 134.498C146.513 134.62 146.655 134.701 146.818 134.742C146.981 134.782 147.152 134.803 147.331 134.803C147.632 134.803 147.896 134.766 148.124 134.693C148.36 134.62 148.584 134.518 148.795 134.388V136.097C148.616 136.316 148.421 136.495 148.209 136.634C148.006 136.772 147.794 136.886 147.575 136.976C147.355 137.057 147.131 137.114 146.903 137.146C146.675 137.179 146.452 137.195 146.232 137.195C145.801 137.195 145.386 137.138 144.987 137.024C144.588 136.91 144.234 136.695 143.925 136.377C143.616 136.052 143.367 135.604 143.18 135.035C143.001 134.465 142.912 133.724 142.912 132.813L142.912 122.388Z" fill="white"/>
<path opacity="0.2" d="M72.4023 113.602L74.541 113.602L77.5977 135.184H75.459L72.4023 113.602Z" fill="#666666"/>
<g opacity="0.2">
<path d="M85.0654 188.621C85.0654 188.263 85.085 187.934 85.124 187.635C85.1696 187.329 85.2347 187 85.3193 186.648L87.2822 186.648V187.459C87.2822 187.908 87.3083 188.305 87.3604 188.65C87.4189 188.995 87.5101 189.288 87.6338 189.529C87.764 189.764 87.9333 189.943 88.1416 190.066C88.3564 190.184 88.6169 190.242 88.9229 190.242C89.4046 190.242 89.7725 190.112 90.0264 189.852C90.2803 189.585 90.4072 189.197 90.4072 188.689C90.4072 188.429 90.3877 188.191 90.3486 187.977C90.3161 187.755 90.2542 187.537 90.1631 187.322C90.0785 187.107 89.9613 186.883 89.8115 186.648C89.6618 186.408 89.4697 186.141 89.2354 185.848L86.5986 182.713C86.1299 182.114 85.7686 181.512 85.5146 180.906C85.2607 180.294 85.1338 179.643 85.1338 178.953C85.1338 178.4 85.2184 177.892 85.3877 177.43C85.5635 176.967 85.8141 176.57 86.1396 176.238C86.4652 175.9 86.8656 175.639 87.3408 175.457C87.8226 175.268 88.3662 175.174 88.9717 175.174C89.7074 175.174 90.3193 175.278 90.8076 175.486C91.3024 175.695 91.6963 175.968 91.9893 176.307C92.2822 176.645 92.4873 177.026 92.6045 177.449C92.7282 177.866 92.79 178.286 92.79 178.709C92.79 179.067 92.7607 179.399 92.7021 179.705C92.6501 180.005 92.5882 180.337 92.5166 180.701H90.5635V179.91C90.5635 179.025 90.4365 178.348 90.1826 177.879C89.9287 177.404 89.5153 177.166 88.9424 177.166C88.4671 177.166 88.1123 177.299 87.8779 177.566C87.6436 177.827 87.5264 178.178 87.5264 178.621C87.5264 178.855 87.5426 179.067 87.5752 179.256C87.6143 179.445 87.6663 179.62 87.7314 179.783C87.8031 179.939 87.8877 180.092 87.9854 180.242C88.083 180.392 88.1937 180.548 88.3174 180.711L91.2568 184.266C91.7907 184.962 92.2008 185.633 92.4873 186.277C92.7738 186.915 92.917 187.592 92.917 188.309C92.917 188.901 92.8226 189.435 92.6338 189.91C92.4515 190.385 92.1878 190.789 91.8428 191.121C91.4977 191.453 91.0811 191.71 90.5928 191.893C90.1045 192.068 89.5544 192.156 88.9424 192.156C88.1872 192.156 87.5589 192.055 87.0576 191.854C86.5628 191.652 86.1657 191.385 85.8662 191.053C85.5732 190.721 85.3649 190.343 85.2412 189.92C85.124 189.497 85.0654 189.064 85.0654 188.621Z" fill="#666666"/>
<path d="M94.4896 174.236L96.9603 174.236L96.9604 177.4L96.8334 179.705C97.0157 179.451 97.211 179.243 97.4193 179.08C97.6342 178.911 97.8523 178.777 98.0736 178.68C98.3015 178.576 98.5294 178.504 98.7572 178.465C98.9916 178.419 99.2227 178.396 99.4506 178.396C100.238 178.396 100.844 178.673 101.267 179.227C101.697 179.773 101.912 180.597 101.912 181.697L101.912 192L99.4408 192L99.4408 181.785C99.4408 181.193 99.3497 180.783 99.1674 180.555C98.9851 180.32 98.7182 180.203 98.3666 180.203C98.1192 180.203 97.8686 180.288 97.6146 180.457C97.3673 180.62 97.1492 180.848 96.9604 181.141L96.9604 192H94.4896L94.4896 174.236Z" fill="#666666"/>
<path d="M105.388 176.629C104.933 176.629 104.571 176.492 104.304 176.219C104.044 175.945 103.914 175.545 103.914 175.018C103.914 174.725 103.946 174.48 104.012 174.285C104.083 174.083 104.181 173.924 104.304 173.807C104.435 173.683 104.591 173.595 104.773 173.543C104.956 173.484 105.164 173.455 105.398 173.455C105.887 173.455 106.258 173.579 106.512 173.826C106.765 174.074 106.892 174.471 106.892 175.018C106.892 175.525 106.762 175.923 106.502 176.209C106.248 176.489 105.877 176.629 105.388 176.629ZM104.109 178.553H106.58L106.58 192H104.109L104.109 178.553Z" fill="#666666"/>
<path d="M109.1 180.311H107.938V178.553H109.1V177.586C109.1 176.857 109.175 176.264 109.324 175.809C109.474 175.346 109.679 174.988 109.94 174.734C110.207 174.474 110.516 174.298 110.867 174.207C111.225 174.116 111.61 174.07 112.02 174.07C112.137 174.07 112.267 174.077 112.41 174.09C112.56 174.103 112.707 174.126 112.85 174.158C113 174.184 113.143 174.217 113.279 174.256C113.423 174.295 113.55 174.344 113.66 174.402V176.141C113.387 176.069 113.081 176.033 112.742 176.033C112.58 176.033 112.423 176.059 112.274 176.111C112.13 176.163 112.003 176.251 111.893 176.375C111.782 176.492 111.694 176.652 111.629 176.854C111.564 177.049 111.531 177.293 111.531 177.586V178.553L113.397 178.553V180.311L111.531 180.311L111.531 192L109.1 192L109.1 180.311Z" fill="#666666"/>
<path d="M114.667 180.311H113.622V178.553H114.881L115.379 175.066L117.137 175.066L117.137 178.553L119.286 178.553V180.311L117.137 180.311V188.865C117.137 189.158 117.163 189.396 117.215 189.578C117.274 189.754 117.352 189.894 117.45 189.998C117.547 190.096 117.661 190.161 117.792 190.193C117.922 190.226 118.059 190.242 118.202 190.242C118.443 190.242 118.654 190.213 118.837 190.154C119.025 190.096 119.204 190.014 119.374 189.91V191.277C119.23 191.453 119.074 191.596 118.905 191.707C118.742 191.818 118.573 191.909 118.397 191.98C118.221 192.046 118.042 192.091 117.86 192.117C117.678 192.143 117.499 192.156 117.323 192.156C116.978 192.156 116.646 192.111 116.327 192.02C116.008 191.928 115.725 191.756 115.477 191.502C115.23 191.242 115.031 190.883 114.881 190.428C114.738 189.972 114.667 189.38 114.667 188.65L114.667 180.311Z" fill="#666666"/>
</g>
<path opacity="0.2" d="M55.2637 72.6445L55.2637 54.7051L52.4902 54.7051L52.4902 52.8301L57.4219 52.8301L57.4219 74.5H52.4902L52.4902 72.6445H55.2637Z" fill="#666666"/>
<g opacity="0.2">
<path d="M94.8848 -4.67968L97.5117 -4.67968C97.9089 -4.67968 98.319 -4.66666 98.7422 -4.64062C99.1719 -4.62109 99.5885 -4.55273 99.9922 -4.43554C100.402 -4.31836 100.786 -4.13607 101.145 -3.88867C101.509 -3.64778 101.828 -3.30599 102.102 -2.86328C102.375 -2.42708 102.59 -1.8737 102.746 -1.20312C102.909 -0.53906 102.99 0.274742 102.99 1.23828L102.99 6.08203C102.99 7.04558 102.909 7.86263 102.746 8.53321C102.59 9.20378 102.375 9.75716 102.102 10.1934C101.828 10.6296 101.509 10.9714 101.145 11.2188C100.786 11.4596 100.402 11.6387 99.9922 11.7559C99.5885 11.873 99.1719 11.9447 98.7422 11.9707C98.319 11.9902 97.9089 12 97.5117 12H94.8848L94.8848 -4.67968ZM98.0586 10.2324C98.5143 10.2324 98.8887 10.1738 99.1816 10.0566C99.4811 9.93946 99.7155 9.73438 99.8848 9.44141C100.061 9.14193 100.181 8.73828 100.246 8.23047C100.311 7.71615 100.344 7.06836 100.344 6.28711L100.344 1.11133C100.344 0.330081 100.311 -0.31445 100.246 -0.822263C100.181 -1.33659 100.061 -1.74023 99.8848 -2.0332C99.7155 -2.33268 99.4811 -2.54101 99.1816 -2.6582C98.8887 -2.77539 98.5143 -2.83398 98.0586 -2.83398H97.4141L97.4141 10.2324H98.0586Z" fill="#666666"/>
<path d="M107.942 12.1465C107.362 12.1465 106.848 12.0391 106.399 11.8242C105.956 11.6094 105.582 11.2741 105.276 10.8184C104.97 10.3626 104.739 9.77995 104.582 9.07031C104.426 8.35417 104.348 7.49479 104.348 6.49219V3.95313C104.348 3.10026 104.41 2.3711 104.534 1.76563C104.664 1.15365 104.83 0.64258 105.032 0.232424C105.24 -0.184243 105.478 -0.513019 105.745 -0.753904C106.018 -0.99479 106.298 -1.17708 106.584 -1.30078C106.871 -1.43099 107.154 -1.51237 107.434 -1.54492C107.72 -1.58398 107.984 -1.60351 108.225 -1.60351C108.668 -1.60351 109.094 -1.53516 109.504 -1.39844C109.914 -1.26823 110.276 -1.04036 110.588 -0.714843C110.901 -0.395833 111.148 0.033855 111.33 0.57422C111.519 1.11458 111.614 1.78841 111.614 2.5957C111.614 2.86914 111.604 3.14583 111.584 3.42578C111.571 3.70573 111.552 3.98242 111.526 4.25586C111.5 4.52279 111.464 4.7832 111.418 5.03711C111.379 5.29102 111.337 5.52539 111.291 5.74024L106.829 5.74024V7.10742C106.829 7.69336 106.851 8.18815 106.897 8.5918C106.942 8.98893 107.017 9.3112 107.121 9.5586C107.232 9.79948 107.379 9.97526 107.561 10.0859C107.75 10.1901 107.984 10.2422 108.264 10.2422C108.414 10.2422 108.56 10.2129 108.704 10.1543C108.847 10.0892 108.97 9.98503 109.075 9.8418C109.185 9.69857 109.273 9.50977 109.338 9.27539C109.403 9.03451 109.436 8.73828 109.436 8.38672V7.9668H111.496V8.48438C111.496 9.76042 111.19 10.6914 110.579 11.2773C109.973 11.8568 109.094 12.1465 107.942 12.1465ZM109.309 4.08008C109.315 4.00846 109.322 3.91406 109.329 3.79688C109.335 3.67318 109.338 3.54622 109.338 3.41602C109.345 3.28581 109.348 3.15886 109.348 3.03516C109.348 2.90495 109.348 2.79427 109.348 2.70313C109.348 1.81771 109.244 1.17969 109.036 0.789063C108.827 0.398438 108.518 0.203126 108.108 0.203126C107.893 0.203126 107.704 0.25521 107.541 0.359376C107.379 0.457033 107.245 0.626304 107.141 0.867189C107.037 1.10156 106.959 1.41406 106.907 1.80469C106.855 2.19531 106.829 2.68034 106.829 3.25977L106.829 4.08008L109.309 4.08008Z" fill="#666666"/>
<path d="M113.343 -5.76367L115.813 -5.76367L115.813 12H113.343L113.343 -5.76367Z" fill="#666666"/>
<path d="M121.243 12.1465C120.664 12.1465 120.15 12.0391 119.7 11.8242C119.258 11.6094 118.883 11.2741 118.577 10.8184C118.271 10.3626 118.04 9.77995 117.884 9.07031C117.728 8.35417 117.65 7.49479 117.65 6.49219V3.95312C117.65 3.10026 117.711 2.37109 117.835 1.76562C117.965 1.15365 118.131 0.642578 118.333 0.232421C118.542 -0.184245 118.779 -0.513021 119.046 -0.753907C119.32 -0.994792 119.599 -1.17708 119.886 -1.30078C120.172 -1.43099 120.456 -1.51237 120.736 -1.54492C121.022 -1.58399 121.286 -1.60352 121.527 -1.60352C121.969 -1.60352 122.396 -1.53516 122.806 -1.39844C123.216 -1.26823 123.577 -1.04037 123.89 -0.714845C124.202 -0.395835 124.45 0.0338526 124.632 0.574217C124.821 1.11458 124.915 1.78841 124.915 2.5957C124.915 2.86914 124.905 3.14583 124.886 3.42578C124.873 3.70573 124.853 3.98242 124.827 4.25586C124.801 4.52278 124.765 4.7832 124.72 5.03711C124.681 5.29101 124.639 5.52539 124.593 5.74023L120.13 5.74023V7.10742C120.13 7.69336 120.153 8.18815 120.198 8.5918C120.244 8.98893 120.319 9.3112 120.423 9.55859C120.534 9.79948 120.68 9.97526 120.863 10.0859C121.051 10.1901 121.286 10.2422 121.566 10.2422C121.715 10.2422 121.862 10.2129 122.005 10.1543C122.148 10.0892 122.272 9.98503 122.376 9.8418C122.487 9.69857 122.575 9.50976 122.64 9.27539C122.705 9.0345 122.738 8.73828 122.738 8.38672V7.9668L124.798 7.96679V8.48437C124.798 9.76042 124.492 10.6914 123.88 11.2773C123.275 11.8568 122.396 12.1465 121.243 12.1465ZM122.611 4.08008C122.617 4.00846 122.624 3.91406 122.63 3.79687C122.637 3.67318 122.64 3.54622 122.64 3.41601C122.646 3.28581 122.65 3.15885 122.65 3.03516C122.65 2.90495 122.65 2.79427 122.65 2.70312C122.65 1.81771 122.545 1.17969 122.337 0.789062C122.129 0.398437 121.82 0.203124 121.409 0.203124C121.195 0.203124 121.006 0.255208 120.843 0.359374C120.68 0.45703 120.547 0.626301 120.443 0.867187C120.338 1.10156 120.26 1.41406 120.208 1.80469C120.156 2.19531 120.13 2.68034 120.13 3.25976V4.08008H122.611Z" fill="#666666"/>
<path d="M126.888 0.310545H125.843V-1.44727H127.103L127.601 -4.9336L129.359 -4.9336V-1.44727L131.507 -1.44727V0.310544L129.359 0.310544L129.359 8.86523C129.359 9.1582 129.385 9.39583 129.437 9.57812C129.496 9.7539 129.574 9.89388 129.671 9.99804C129.769 10.0957 129.883 10.1608 130.013 10.1934C130.143 10.2259 130.28 10.2422 130.423 10.2422C130.664 10.2422 130.876 10.2129 131.058 10.1543C131.247 10.0957 131.426 10.0143 131.595 9.91015V11.2773C131.452 11.4531 131.296 11.5964 131.127 11.707C130.964 11.8177 130.795 11.9089 130.619 11.9805C130.443 12.0456 130.264 12.0911 130.082 12.1172C129.899 12.1432 129.72 12.1562 129.545 12.1562C129.199 12.1562 128.867 12.1107 128.548 12.0195C128.229 11.9284 127.946 11.7559 127.699 11.502C127.451 11.2415 127.253 10.8835 127.103 10.4277C126.96 9.972 126.888 9.37956 126.888 8.65039L126.888 0.310545Z" fill="#666666"/>
<path d="M136.049 12.1465C135.469 12.1465 134.955 12.0391 134.506 11.8242C134.063 11.6094 133.689 11.2741 133.383 10.8184C133.077 10.3626 132.846 9.77995 132.689 9.07031C132.533 8.35416 132.455 7.49479 132.455 6.49218L132.455 3.95312C132.455 3.10026 132.517 2.37109 132.641 1.76562C132.771 1.15364 132.937 0.642575 133.139 0.232419C133.347 -0.184247 133.585 -0.513024 133.852 -0.75391C134.125 -0.994795 134.405 -1.17709 134.691 -1.30078C134.978 -1.43099 135.261 -1.51237 135.541 -1.54493C135.827 -1.58399 136.091 -1.60352 136.332 -1.60352C136.775 -1.60352 137.201 -1.53516 137.611 -1.39844C138.021 -1.26823 138.383 -1.04037 138.695 -0.714848C139.008 -0.395837 139.255 0.0338497 139.438 0.574214C139.626 1.11458 139.721 1.78841 139.721 2.5957C139.721 2.86914 139.711 3.14583 139.691 3.42578C139.678 3.70573 139.659 3.98242 139.633 4.25586C139.607 4.52278 139.571 4.7832 139.525 5.03711C139.486 5.29101 139.444 5.52539 139.398 5.74023H134.936L134.936 7.10742C134.936 7.69336 134.958 8.18815 135.004 8.59179C135.049 8.98893 135.124 9.31119 135.229 9.55859C135.339 9.79948 135.486 9.97526 135.668 10.0859C135.857 10.1901 136.091 10.2422 136.371 10.2422C136.521 10.2422 136.667 10.2129 136.811 10.1543C136.954 10.0892 137.077 9.98502 137.182 9.84179C137.292 9.69856 137.38 9.50976 137.445 9.27539C137.51 9.0345 137.543 8.73828 137.543 8.38671V7.96679H139.604V8.48437C139.604 9.76041 139.298 10.6914 138.686 11.2773C138.08 11.8568 137.201 12.1465 136.049 12.1465ZM137.416 4.08007C137.423 4.00846 137.429 3.91406 137.436 3.79687C137.442 3.67317 137.445 3.54622 137.445 3.41601C137.452 3.2858 137.455 3.15885 137.455 3.03515C137.455 2.90494 137.455 2.79427 137.455 2.70312C137.455 1.8177 137.351 1.17968 137.143 0.789059C136.934 0.398434 136.625 0.203122 136.215 0.203122C136 0.203122 135.811 0.255205 135.648 0.359372C135.486 0.457028 135.352 0.626299 135.248 0.867184C135.144 1.10156 135.066 1.41406 135.014 1.80468C134.962 2.19531 134.936 2.68034 134.936 3.25976V4.08007H137.416Z" fill="#666666"/>
</g>
<path opacity="0.2" d="M13.5547 118.289L15.0195 113.68L16.9434 113.68L16.1719 117.557L16.1719 120.477L13.5547 120.477L13.5547 118.289Z" fill="#666666"/>
</g>
<defs>
<linearGradient id="paint0_linear_276_9441" x1="45.5" y1="47" x2="100" y2="200" gradientUnits="userSpaceOnUse">
<stop/>
<stop offset="1" stop-color="#222222" stop-opacity="0"/>
</linearGradient>
<clipPath id="clip0_276_9441">
<path d="M0 100C0 44.7715 44.7715 0 100 0C155.228 0 200 44.7715 200 100C200 155.228 155.228 200 100 200C44.7715 200 0 155.228 0 100Z" fill="white"/>
</clipPath>
</defs>
</svg>
