<svg width="507" height="86" viewBox="0 0 507 86" fill="none" xmlns="http://www.w3.org/2000/svg">
<path d="M2.71338 49.4878H3.72347L4.04243 52.6704L4.44782 49.4944H5.23859L5.66392 52.6505L5.98954 49.4878H6.98633L6.34175 54.95H5.30505L4.84652 51.6523L4.41457 54.95H3.36462L2.71338 49.4878Z" fill="white"/>
<path d="M13.1817 55.0305C12.6014 55.0305 12.1871 54.8798 11.939 54.5787C11.6909 54.273 11.5669 53.8236 11.5669 53.2301V51.2002C11.5669 50.6067 11.6909 50.1619 11.939 49.8649C12.1871 49.5638 12.6014 49.4131 13.1817 49.4131C13.7665 49.4131 14.1829 49.5638 14.431 49.8649C14.6836 50.1664 14.8098 50.6113 14.8098 51.2002V53.2301C14.8098 53.8236 14.6836 54.273 14.431 54.5787C14.1829 54.8798 13.7665 55.0305 13.1817 55.0305ZM13.1817 54.174C13.3501 54.174 13.4608 54.1177 13.514 54.0055C13.5671 53.8887 13.5937 53.7313 13.5937 53.5333V50.9037C13.5937 50.7012 13.5671 50.5438 13.514 50.4315C13.4608 50.3193 13.3501 50.2629 13.1817 50.2629C13.0222 50.2629 12.9159 50.3214 12.8628 50.4382C12.8096 50.5508 12.783 50.7057 12.783 50.9037V53.5333C12.783 53.7313 12.8074 53.8887 12.8561 54.0055C12.9048 54.1177 13.0134 54.174 13.1817 54.174Z" fill="white"/>
<path d="M19.6206 49.4878H21.1025C21.6917 49.4878 22.1369 49.5934 22.4382 49.8047C22.7395 50.0159 22.8901 50.3912 22.8901 50.9308C22.8901 51.2949 22.8436 51.5848 22.7505 51.8006C22.6575 52.0164 22.4847 52.185 22.2322 52.3063L22.9698 54.95H21.7404L21.149 52.5018H20.8101V54.95H19.6206V49.4878ZM21.1424 51.8072C21.3816 51.8072 21.5477 51.7443 21.6407 51.6184C21.7382 51.4883 21.787 51.2949 21.787 51.0385C21.787 50.7913 21.7427 50.6069 21.6541 50.4856C21.5655 50.3597 21.4126 50.2967 21.1955 50.2967H20.8101V51.8072H21.1424Z" fill="white"/>
<path d="M27.6919 49.4878H28.8814V54.1337H30.1174V54.95H27.6919V49.4878Z" fill="white"/>
<path d="M34.7251 49.4878H36.0876C36.5524 49.4878 36.9157 49.5462 37.177 49.663C37.4387 49.7798 37.6223 49.9641 37.7288 50.2159C37.8395 50.4632 37.8949 50.7958 37.8949 51.2141V53.1964C37.8949 53.6192 37.8395 53.9564 37.7288 54.2082C37.6223 54.4596 37.4387 54.6464 37.177 54.7677C36.9203 54.8891 36.5615 54.95 36.1005 54.95H34.7251V49.4878ZM36.1005 54.1137C36.2736 54.1137 36.3997 54.0889 36.4796 54.0396C36.5636 53.9854 36.6169 53.9112 36.639 53.8168C36.661 53.7178 36.6722 53.5741 36.6722 53.3852V51.0049C36.6722 50.8297 36.6589 50.6968 36.6323 50.6069C36.6102 50.5125 36.557 50.4429 36.4729 50.3982C36.393 50.353 36.2669 50.3307 36.0939 50.3307H35.9145V54.1137H36.1005Z" fill="white"/>
<path d="M50.0345 55.0305C49.4544 55.0305 49.04 54.8798 48.792 54.5787C48.5439 54.273 48.4199 53.8236 48.4199 53.2301V51.2002C48.4199 50.6067 48.5439 50.1619 48.792 49.8649C49.04 49.5638 49.4544 49.4131 50.0345 49.4131C50.6196 49.4131 51.0358 49.5638 51.2841 49.8649C51.5367 50.1664 51.6628 50.6113 51.6628 51.2002V53.2301C51.6628 53.8236 51.5367 54.273 51.2841 54.5787C51.0358 54.8798 50.6196 55.0305 50.0345 55.0305ZM50.0345 54.174C50.203 54.174 50.3137 54.1177 50.367 54.0055C50.4202 53.8887 50.4469 53.7313 50.4469 53.5333V50.9037C50.4469 50.7012 50.4202 50.5438 50.367 50.4315C50.3137 50.3193 50.203 50.2629 50.0345 50.2629C49.8751 50.2629 49.769 50.3214 49.7158 50.4382C49.6625 50.5508 49.6359 50.7057 49.6359 50.9037V53.5333C49.6359 53.7313 49.6604 53.8887 49.7091 54.0055C49.7578 54.1177 49.8664 54.174 50.0345 54.174Z" fill="white"/>
<path d="M56.4736 49.4878H58.7994V50.3037H57.663V51.6792H58.6533V52.5221H57.663V54.95H56.4736V49.4878Z" fill="white"/>
<path d="M69.0098 49.4878H70.0201L70.3389 52.6704L70.7442 49.4944H71.5352L71.9605 52.6505L72.2859 49.4878H73.283L72.6384 54.95H71.6018L71.1432 51.6523L70.7113 54.95H69.661L69.0098 49.4878Z" fill="white"/>
<path d="M77.9492 49.4878H80.3682V50.3104H79.1389V51.6656H80.076V52.5018H79.1389V54.1337H80.3815V54.95H77.9492V49.4878Z" fill="white"/>
<path d="M85.0088 49.4878H86.4108C86.7607 49.4878 87.0578 49.5259 87.3013 49.6022C87.5496 49.6742 87.749 49.8158 87.8996 50.0271C88.0502 50.2383 88.1256 50.5353 88.1256 50.9172C88.1256 51.241 88.0569 51.4928 87.9192 51.6726C87.7819 51.8524 87.5871 51.9671 87.3345 52.0164C87.6446 52.057 87.8817 52.1895 88.0457 52.4144C88.2096 52.6389 88.2916 52.9449 88.2916 53.3314C88.2916 54.4103 87.749 54.95 86.6633 54.95H85.0088V49.4878ZM86.4307 51.6726C86.6833 51.6726 86.8539 51.6142 86.9425 51.497C87.0357 51.3802 87.082 51.1983 87.082 50.9511C87.082 50.7353 87.0245 50.5734 86.9093 50.4653C86.794 50.353 86.6259 50.2967 86.4041 50.2967H86.1981V51.6726H86.4307ZM86.4507 54.1067C86.7033 54.1067 86.8805 54.0438 86.9825 53.9179C87.0886 53.7878 87.1419 53.5853 87.1419 53.3111C87.1419 53.0009 87.0886 52.783 86.9825 52.6571C86.8805 52.5312 86.7012 52.4682 86.444 52.4682H86.1981V54.1067H86.4507Z" fill="white"/>
<path d="M94.3378 55.0506C93.8018 55.0506 93.4207 54.9023 93.1947 54.6054C92.9688 54.3088 92.856 53.886 92.856 53.3376V53.1421H93.9658V53.3376C93.9658 53.6164 93.992 53.8143 94.0453 53.9311C94.1031 54.0434 94.2071 54.0997 94.3578 54.0997C94.4993 54.0997 94.5946 54.0434 94.6433 53.9311C94.6923 53.8189 94.7165 53.6321 94.7165 53.3716C94.7165 53.0837 94.6766 52.8746 94.597 52.7441C94.5172 52.6095 94.3686 52.5399 94.1518 52.5353H93.9458V51.7596H94.1252C94.3511 51.7596 94.506 51.6991 94.5904 51.5778C94.6745 51.4519 94.7165 51.2452 94.7165 50.9573C94.7165 50.737 94.6878 50.573 94.6303 50.4649C94.5725 50.3572 94.4706 50.3033 94.3245 50.3033C94.1872 50.3033 94.0919 50.3617 94.0386 50.4785C93.9899 50.5908 93.9658 50.7573 93.9658 50.9776V51.2609H92.856V50.9304C92.856 50.4404 92.9842 50.0648 93.2413 49.8042C93.5026 49.5388 93.8638 49.4062 94.3245 49.4062C94.7939 49.4062 95.1597 49.5322 95.421 49.784C95.6823 50.0358 95.813 50.4019 95.813 50.8832C95.813 51.1934 95.751 51.4585 95.627 51.6788C95.503 51.8946 95.3457 52.0296 95.1551 52.0835C95.359 52.1597 95.5184 52.2968 95.6336 52.4948C95.7531 52.6927 95.813 52.9757 95.813 53.3446C95.813 53.8748 95.6956 54.2931 95.4609 54.5988C95.2259 54.8999 94.8517 55.0506 94.3378 55.0506Z" fill="white"/>
<path d="M6.86902 85.9666C4.72272 85.9666 3.12224 85.3941 2.06759 84.2487C1.03144 83.0844 0.476356 81.2445 0.402344 78.7285L4.6487 78.0808C4.66723 79.5266 4.83374 80.5684 5.14829 81.2071C5.48133 81.8264 5.97164 82.1363 6.61924 82.1363C7.45188 82.1363 7.86819 81.5823 7.86819 80.4747C7.86819 79.5923 7.66466 78.8317 7.25759 78.1934C6.86902 77.5551 6.2492 76.8696 5.39806 76.1376L3.45529 74.4194C2.49315 73.5933 1.74379 72.7204 1.20721 71.8002C0.689135 70.8615 0.430099 69.7536 0.430099 68.477C0.430099 66.5619 0.985179 65.0877 2.09534 64.0553C3.224 63.0226 4.76896 62.5063 6.73026 62.5063C8.85809 62.5063 10.3013 63.1352 11.0599 64.3932C11.837 65.6512 12.2533 67.1813 12.3088 68.9838L8.0347 69.5189C7.99771 68.3361 7.88669 67.4911 7.70165 66.9844C7.53515 66.4587 7.15582 66.1957 6.56375 66.1957C6.13818 66.1957 5.80513 66.3835 5.56461 66.7591C5.34257 67.1159 5.23156 67.5195 5.23156 67.9699C5.23156 68.7397 5.39806 69.3874 5.73111 69.9134C6.08266 70.4391 6.63774 71.0399 7.39635 71.7159L9.25588 73.3775C10.366 74.3351 11.2264 75.349 11.837 76.4192C12.4476 77.4894 12.7529 78.7568 12.7529 80.2212C12.7529 81.2913 12.5031 82.2678 12.0035 83.1502C11.5225 84.014 10.8378 84.6992 9.94972 85.2063C9.06159 85.7131 8.0347 85.9666 6.86902 85.9666Z" fill="white"/>
<path d="M23.596 85.9662C21.9123 85.9662 20.5801 85.6941 19.5994 85.1495C18.6188 84.5861 17.925 83.7695 17.5179 82.6993C17.1293 81.6102 16.9351 80.2302 16.9351 78.5591V62.8154H21.8475V79.3195C21.8475 80.2396 21.9585 80.972 22.1806 81.5161C22.4211 82.0607 22.8929 82.3331 23.596 82.3331C24.2991 82.3331 24.7617 82.0607 24.9837 81.5161C25.2058 80.972 25.3168 80.2396 25.3168 79.3195V62.8154H30.257V78.5591C30.257 80.2302 30.0535 81.6102 29.6464 82.6993C29.2393 83.7695 28.5455 84.5861 27.5648 85.1495C26.6027 85.6941 25.2797 85.9662 23.596 85.9662Z" fill="white"/>
<path d="M35.6654 62.8154H40.9944L43.4645 76.0806L46.1287 62.8154H51.2633L51.6518 85.6283H48.1272L47.7107 70.4481L45.1019 85.6283H41.9658L39.1903 70.3354L38.8571 85.6283H35.2769L35.6654 62.8154Z" fill="white"/>
<path d="M57.1502 62.8154H62.4789L64.949 76.0806L67.6135 62.8154H72.7478L73.1363 85.6283H69.6117L69.1952 70.4481L66.5864 85.6283H63.4503L60.6748 70.3354L60.342 85.6283H56.7617L57.1502 62.8154Z" fill="white"/>
<path d="M78.3569 62.8154H83.3248V85.6283H78.3569V62.8154Z" fill="white"/>
<path d="M90.6461 66.5614H87.2603V62.8154H99.0001V66.5614H95.642V85.6283H90.6461V66.5614Z" fill="white"/>
<path d="M0 0.571777H7.78362L10.2416 25.0988L13.3653 0.623741H19.4591L22.7364 24.9429L25.2456 0.571777H32.9268L27.9597 42.6627H19.9712L16.4378 17.2522L13.1093 42.6627H5.01838L0 0.571777Z" fill="white"/>
<path d="M49.1761 43.2861C44.7039 43.2861 41.5118 42.1257 39.6001 39.8045C37.6881 37.4487 36.7324 33.9845 36.7324 29.4117V13.7705C36.7324 9.19763 37.6881 5.76802 39.6001 3.48159C41.5118 1.16053 44.7039 0 49.1761 0C53.6822 0 56.8912 1.16053 58.8032 3.48159C60.7489 5.80264 61.7221 9.23229 61.7221 13.7705V29.4117C61.7221 33.9845 60.7489 37.4487 58.8032 39.8045C56.8912 42.1257 53.6822 43.2861 49.1761 43.2861ZM49.1761 36.6866C50.4733 36.6866 51.3267 36.2536 51.7362 35.3877C52.1461 34.4868 52.3507 33.2743 52.3507 31.75V11.4841C52.3507 9.92511 52.1461 8.71265 51.7362 7.84656C51.3267 6.98051 50.4733 6.54747 49.1761 6.54747C47.9468 6.54747 47.1278 6.99783 46.7179 7.89854C46.3084 8.76459 46.1034 9.95977 46.1034 11.4841V31.75C46.1034 33.2743 46.2912 34.4868 46.6668 35.3877C47.0423 36.2536 47.8785 36.6866 49.1761 36.6866Z" fill="white"/>
<path d="M65.6104 0.571777H73.3941L75.8519 25.0988L78.9757 0.623741H85.0695L88.3467 24.9429L90.8561 0.571777H98.5371L93.57 42.6627H85.5817L82.048 17.2522L78.7196 42.6627H70.6287L65.6104 0.571777Z" fill="white"/>
<path d="M139.4 58L147.66 47.08L139.58 36.4H143.82L149.74 44.32L155.6 36.4H159.84L151.76 47.08L160.04 58H155.78L149.74 49.84L143.66 58H139.4Z" fill="white"/>
<g clip-path="url(#clip0_145_1604)">
<path d="M208.315 60.183C206.01 58.9717 204.207 57.2932 202.924 55.1475C201.641 53.0018 201 50.5619 201 47.8452C201 45.1284 201.641 42.6885 202.924 40.5601C204.207 38.4317 206.01 36.7705 208.315 35.5765C210.638 34.3825 213.255 33.7769 216.185 33.7769C219.184 33.7769 221.766 34.4344 223.95 35.7668C226.135 37.0993 227.677 38.9335 228.596 41.2869L221.42 45.0592C220.224 42.602 218.456 41.3734 216.15 41.3734C214.486 41.3734 213.117 41.9444 212.025 43.0865C210.932 44.2286 210.395 45.8033 210.395 47.8279C210.395 49.8697 210.932 51.479 212.025 52.6384C213.117 53.7978 214.486 54.3688 216.15 54.3688C218.456 54.3688 220.224 53.1402 221.42 50.683L228.596 54.4554C227.677 56.8087 226.135 58.643 223.95 59.9754C221.766 61.3078 219.184 61.9654 216.185 61.9654C213.255 62 210.638 61.3943 208.315 60.183Z" fill="white"/>
<path d="M261.201 24.0864H270.389V61.6365H261.115L261.201 24.0864Z" fill="white"/>
<path d="M273.682 24.0864H283.043L283.008 61.6365H273.734L273.682 24.0864Z" fill="white"/>
<path d="M314.573 50.3194H295.332C295.731 51.7384 296.476 52.8112 297.603 53.5726C298.73 54.334 300.134 54.7147 301.833 54.7147C303.098 54.7147 304.207 54.5244 305.126 54.161C306.045 53.7976 306.981 53.1919 307.934 52.344L312.823 57.5872C310.257 60.5462 306.496 62.0171 301.538 62.0171C298.453 62.0171 295.731 61.4114 293.391 60.2001C291.051 58.9888 289.231 57.3103 287.948 55.1646C286.665 53.0189 286.024 50.579 286.024 47.8622C286.024 45.1801 286.648 42.7575 287.896 40.6291C289.144 38.5007 290.877 36.8222 293.096 35.6109C295.315 34.3996 297.794 33.7939 300.567 33.7939C303.202 33.7939 305.594 34.365 307.744 35.4898C309.893 36.6145 311.592 38.2411 312.84 40.3695C314.088 42.4979 314.712 45.0244 314.712 47.9488C314.712 48.018 314.677 48.7967 314.573 50.3194ZM297.031 41.8404C296.078 42.6883 295.454 43.8304 295.194 45.2666H306.028C305.768 43.8304 305.161 42.6883 304.19 41.8404C303.237 40.9925 302.041 40.5772 300.602 40.5772C299.181 40.5772 297.985 41.0098 297.031 41.8404Z" fill="white"/>
<path d="M324.281 60.1828C321.975 58.9715 320.173 57.293 318.89 55.1473C317.607 53.0016 316.966 50.5617 316.966 47.8449C316.966 45.1282 317.607 42.6883 318.89 40.5599C320.173 38.4315 321.975 36.7703 324.281 35.5763C326.586 34.3823 329.204 33.7939 332.133 33.7939C335.132 33.7939 337.715 34.4515 339.899 35.7839C342.083 37.1163 343.626 38.9506 344.544 41.304L337.368 45.0763C336.172 42.6191 334.404 41.3905 332.099 41.3905C330.434 41.3905 329.065 41.9615 327.973 43.1036C326.881 44.2457 326.344 45.8204 326.344 47.8449C326.344 49.8868 326.881 51.4961 327.973 52.6555C329.065 53.8149 330.434 54.3859 332.099 54.3859C334.404 54.3859 336.172 53.1573 337.368 50.7001L344.544 54.4724C343.626 56.8258 342.083 58.6601 339.899 59.9925C337.715 61.3249 335.132 61.9825 332.133 61.9825C329.204 61.9998 326.586 61.3941 324.281 60.1828Z" fill="white"/>
<path d="M347.352 34.2959V24.0864H356.626L356.539 34.1229H362.606V42.0828L356.626 42.0655V51.1329C356.626 52.1019 356.886 52.8633 357.389 53.4343C357.891 53.9881 358.568 54.2649 359.417 54.2649C360.492 54.2649 361.774 53.9881 362.589 53.3997L364.877 60.0964C364.097 60.5983 362.797 60.979 361.67 61.2558C360.544 61.5327 359.348 61.6538 358.082 61.6538C354.633 61.6538 351.981 60.7886 350.126 59.0409C348.271 57.2932 347.335 54.6975 347.335 51.2367V43.121L347.352 34.2959Z" fill="white"/>
<path d="M410.847 34.2441L399.927 61.5502H390.359L379.473 34.2441H388.989L395.333 50.9254L402.024 34.2441H410.847Z" fill="white"/>
<path d="M438.911 50.3194H419.67C420.069 51.7384 420.814 52.8112 421.941 53.5726C423.068 54.334 424.472 54.7147 426.171 54.7147C427.436 54.7147 428.545 54.5244 429.464 54.161C430.4 53.7976 431.319 53.1919 432.272 52.344L437.16 57.5872C434.595 60.5462 430.833 62.0171 425.876 62.0171C422.79 62.0171 420.069 61.4114 417.729 60.2001C415.389 58.9888 413.569 57.3103 412.286 55.1646C411.003 53.0189 410.362 50.579 410.362 47.8623C410.362 45.1801 410.986 42.7575 412.234 40.6291C413.482 38.5007 415.215 36.8222 417.434 35.6109C419.653 34.3996 422.132 33.7939 424.905 33.7939C427.54 33.7939 429.932 34.365 432.081 35.4898C434.231 36.6145 435.93 38.2411 437.178 40.3695C438.426 42.498 439.05 45.0244 439.05 47.9488C439.05 48.018 438.998 48.7967 438.911 50.3194ZM421.352 41.8404C420.398 42.6883 419.774 43.8304 419.514 45.2666H430.348C430.088 43.8304 429.481 42.6883 428.511 41.8404C427.557 40.9925 426.361 40.5772 424.923 40.5772C423.518 40.5772 422.322 41.0098 421.352 41.8404Z" fill="white"/>
<path d="M471.292 34.1401L465.519 50.3196H460.024L456.974 41.5117L453.801 50.3196H448.306L442.534 34.1401H447.908L451.219 43.9343L454.651 34.1401H459.487L462.832 44.0208L466.265 34.1401H471.292Z" fill="white"/>
<path d="M487.793 43.6054L476.006 43.6746C476.249 44.5052 476.717 45.1455 477.41 45.5954C478.104 46.0453 478.97 46.253 479.993 46.253C480.773 46.253 481.449 46.1318 482.004 45.9069C482.576 45.6819 483.148 45.3185 483.72 44.8167L486.736 47.8969C485.176 49.6619 482.871 50.5444 479.854 50.5617C477.965 50.579 476.301 50.2329 474.862 49.5235C473.423 48.814 472.297 47.8276 471.517 46.5644C470.719 45.3012 470.321 43.8477 470.303 42.2384C470.286 40.6464 470.667 39.2102 471.43 37.947C472.193 36.6838 473.25 35.6801 474.602 34.9533C475.954 34.2266 477.48 33.8632 479.161 33.8459C480.773 33.8286 482.247 34.1573 483.564 34.8149C484.881 35.4725 485.939 36.4242 486.701 37.6874C487.481 38.9506 487.863 40.4388 487.88 42.1692C487.88 42.2384 487.845 42.7056 487.793 43.6054ZM477.012 38.6564C476.422 39.1582 476.058 39.8331 475.902 40.6983L482.541 40.6464C482.368 39.7985 482.004 39.1236 481.414 38.6218C480.825 38.1373 480.097 37.8777 479.213 37.895C478.329 37.895 477.601 38.1546 477.012 38.6564Z" fill="white"/>
<path d="M503.082 35.161C504.296 35.8186 505.249 36.7703 505.96 38.0162C506.671 39.2621 507.017 40.6984 507.017 42.325C507.017 43.9689 506.671 45.4051 505.96 46.651C505.249 47.8969 504.296 48.866 503.082 49.5408C501.869 50.2157 500.534 50.5445 499.061 50.5445C496.929 50.5445 495.334 49.9215 494.277 48.6929V50.2676H489.336V28.5854H494.554V35.8186C495.646 34.7284 497.154 34.1747 499.061 34.1747C500.534 34.1747 501.869 34.5035 503.082 35.161ZM501.817 45.3359C502.614 44.5745 503.013 43.5363 503.013 42.1865C503.013 40.8714 502.614 39.8332 501.817 39.0891C501.02 38.345 499.98 37.9643 498.732 37.9643C497.483 37.9643 496.443 38.345 495.646 39.0891C494.849 39.8332 494.45 40.8714 494.45 42.1865C494.45 43.519 494.849 44.5745 495.646 45.3359C496.443 46.0973 497.483 46.478 498.732 46.478C499.98 46.478 501.02 46.0973 501.817 45.3359Z" fill="white"/>
<path d="M243.989 33.8462C236.241 33.8462 229.948 40.1276 229.948 47.8626C229.948 55.5976 236.241 61.879 243.989 61.879C251.737 61.879 258.03 55.5976 258.03 47.8626C258.03 40.1276 251.737 33.8462 243.989 33.8462ZM244.197 39.2105C246.502 39.2105 248.357 41.0793 248.357 43.3635C248.357 45.665 246.485 47.5165 244.197 47.5165C241.891 47.5165 240.037 45.6477 240.037 43.3635C240.019 41.0793 241.891 39.2105 244.197 39.2105ZM239.829 54.6458C237.523 54.6458 235.669 52.777 235.669 50.4928C235.669 48.1914 237.541 46.3398 239.829 46.3398C242.134 46.3398 243.989 48.2087 243.989 50.4928C243.989 52.7943 242.134 54.6458 239.829 54.6458ZM248.184 54.8535C245.878 54.8535 244.024 52.9846 244.024 50.7005C244.024 48.399 245.896 46.5475 248.184 46.5475C250.489 46.5475 252.344 48.4163 252.344 50.7005C252.344 52.9846 250.489 54.8535 248.184 54.8535Z" fill="white"/>
<path d="M381.969 53.4862C381.154 54.0572 379.871 54.3514 378.796 54.3514C377.947 54.3514 377.271 54.0745 376.768 53.5208C376.266 52.967 376.006 52.2057 376.006 51.2193L375.954 34.1055H366.732V51.3231C366.732 54.784 367.668 57.3796 369.523 59.1273C371.377 60.8751 374.03 61.7403 377.479 61.7403C378.745 61.7403 379.941 61.6018 381.067 61.3423C382.194 61.0654 383.494 60.6847 384.274 60.1829L381.969 53.4862Z" fill="white"/>
<path d="M371.343 32.3231C373.648 32.3231 375.503 30.4542 375.503 28.1701C375.503 25.8686 373.631 24.0171 371.343 24.0171C369.037 24.0171 367.183 25.8859 367.183 28.1701C367.165 30.4542 369.037 32.3231 371.343 32.3231Z" fill="white"/>
</g>
<defs>
<clipPath id="clip0_145_1604">
<rect width="306" height="38" fill="white" transform="translate(201 24)"/>
</clipPath>
</defs>
</svg>
