<svg width="360" height="162" viewBox="0 0 360 162" fill="none" xmlns="http://www.w3.org/2000/svg">
<path d="M-103 79.1309L797.779 0.000546757L805 82.8702L-95.7794 162.001L-103 79.1309Z" fill="white"/>
<path d="M-57.9643 108.591C-58.5336 108.749 -58.9346 109.188 -59.0357 109.769C-59.0751 109.985 -59.0355 110.306 -58.9284 110.665C-58.7027 111.426 -58.4427 112.024 -58.0541 112.669C-57.4654 113.648 -56.7351 114.445 -55.8097 115.116C-54.4005 116.143 -52.7428 116.675 -50.9824 116.668L-50.7065 116.667L-50.4218 119.934C-50.2358 122.07 -50.1255 123.246 -50.1068 123.327C-49.9872 123.807 -49.6708 124.181 -49.2301 124.353C-48.9301 124.473 -48.6137 124.49 -48.3219 124.404C-47.7782 124.242 -47.4134 123.833 -47.2908 123.255L-47.259 123.106L-47.8325 116.413L-47.7026 116.388C-47.2739 116.311 -47.1499 116.284 -46.9387 116.232C-44.6986 115.663 -42.8263 114.196 -41.7173 112.134C-41.2084 111.193 -40.8826 110.115 -40.7718 109.021C-40.7357 108.655 -40.7373 108.526 -40.7787 108.34C-40.9199 107.746 -41.3592 107.321 -41.948 107.211C-42.1218 107.179 -42.4748 107.21 -42.6424 107.272C-43.0095 107.409 -43.3079 107.688 -43.478 108.055C-43.5452 108.199 -43.5873 108.429 -43.6032 108.738C-43.7195 110.972 -44.7801 113.01 -46.5404 114.378C-47.2668 114.943 -48.1515 115.385 -49.0662 115.639L-49.3224 115.71L-49.5416 115.692C-52.1419 115.473 -54.4428 113.895 -55.5988 111.535C-55.8847 110.954 -56.0704 110.428 -56.213 109.796C-56.241 109.675 -56.2857 109.519 -56.3131 109.451C-56.545 108.886 -57.093 108.53 -57.6912 108.557C-57.7919 108.562 -57.915 108.577 -57.9643 108.591ZM-57.3938 109.36C-57.1343 109.462 -57.0321 109.608 -56.9308 110.035C-56.5672 111.553 -55.8877 112.816 -54.8182 113.959C-54.5589 114.236 -53.8266 114.855 -53.4881 115.081C-53.1764 115.29 -52.6569 115.586 -52.3594 115.721C-52.2501 115.771 -52.1647 115.814 -52.1682 115.819C-52.1768 115.831 -52.6636 115.732 -52.9022 115.67C-54.1113 115.357 -55.2766 114.699 -56.1895 113.814C-56.6883 113.331 -57.0379 112.887 -57.4061 112.275C-57.7766 111.66 -57.9971 111.159 -58.1958 110.485C-58.2707 110.227 -58.296 110.115 -58.2968 110.017C-58.3027 109.726 -58.1417 109.477 -57.8682 109.359C-57.7464 109.307 -57.5287 109.307 -57.3938 109.36ZM-41.9272 108.008C-41.7784 108.065 -41.6708 108.162 -41.5818 108.314C-41.5313 108.402 -41.5202 108.441 -41.5088 108.593C-41.4834 108.93 -41.6125 109.724 -41.7878 110.322C-42.3694 112.302 -43.7061 113.936 -45.5185 114.886C-45.8345 115.051 -46.4776 115.323 -46.5026 115.303C-46.5068 115.3 -46.4247 115.237 -46.3223 115.163C-45.4788 114.561 -44.7206 113.76 -44.1492 112.866C-43.8653 112.422 -43.5332 111.75 -43.3575 111.268C-43.0711 110.472 -42.9119 109.712 -42.8554 108.844C-42.8284 108.439 -42.8038 108.343 -42.686 108.2C-42.4976 107.975 -42.2029 107.9 -41.9272 108.008ZM-49.0652 116.476C-48.9658 116.479 -48.818 116.48 -48.7345 116.478L-48.5848 116.479L-48.3008 119.738C-47.9852 123.361 -47.9975 123.13 -48.1185 123.347C-48.3737 123.809 -49.039 123.803 -49.3049 123.339L-49.3667 123.232L-49.9544 116.599L-49.7588 116.568C-49.6495 116.551 -49.5099 116.525 -49.4469 116.511C-49.281 116.475 -49.2617 116.473 -49.0652 116.476Z" fill="black"/>
<path d="M-28.2259 105.98C-29.4321 106.169 -30.6356 106.655 -31.6265 107.351C-32.9397 108.274 -34.0068 109.635 -34.5918 111.13C-34.8715 111.846 -35.0677 112.695 -35.1323 113.471C-35.1921 114.189 -35.2024 114.027 -34.8394 118.193C-34.4678 122.458 -34.5152 122.07 -34.3263 122.386C-34.1601 122.665 -33.9063 122.879 -33.6049 122.992C-33.3817 123.077 -33.2382 123.096 -32.976 123.071C-32.704 123.047 -32.5737 123.004 -32.3429 122.864C-32.2137 122.786 -32.1561 122.733 -32.0172 122.565C-31.829 122.338 -31.7366 122.149 -31.6849 121.872L-31.6558 121.716L-32.2262 115.058L-26.5687 114.561C-22.7513 114.225 -20.8848 114.054 -20.8282 114.035C-20.5013 113.927 -20.4808 113.449 -20.7966 113.327L-20.885 113.293L-32.2965 114.296L-32.2982 114.142C-32.3028 112.706 -31.9842 111.433 -31.3271 110.274C-31.014 109.718 -30.4483 108.983 -30.0234 108.573C-29.0909 107.676 -28.032 107.069 -26.8136 106.731C-26.5688 106.662 -26.5285 106.657 -26.4014 106.665C-24.2177 106.832 -22.2053 107.977 -20.9066 109.788C-20.7099 110.06 -20.3672 110.647 -20.2243 110.95C-19.9831 111.464 -19.8101 111.977 -19.6669 112.595C-19.598 112.894 -19.5972 112.904 -19.2491 116.765C-18.8576 121.102 -18.9083 120.699 -18.7235 121.013C-18.3424 121.662 -17.509 121.902 -16.8414 121.555C-16.5494 121.404 -16.284 121.104 -16.1675 120.791C-16.0301 120.426 -16.0109 120.803 -16.3762 116.611C-16.7178 112.691 -16.7176 112.692 -16.8593 112.092C-17.2034 110.641 -17.892 109.364 -18.9143 108.271C-19.21 107.956 -19.9258 107.348 -20.2852 107.105C-21.5673 106.243 -23.0397 105.763 -24.5723 105.707C-25.1573 105.685 -25.9543 105.751 -26.4616 105.863C-26.5475 105.88 -26.6536 105.89 -26.7374 105.887C-27.1338 105.867 -27.758 105.908 -28.2259 105.98ZM-29.3495 107.05C-29.353 107.055 -29.4389 107.117 -29.5397 107.187C-30.1605 107.624 -30.7101 108.143 -31.2117 108.766C-31.7692 109.462 -32.1795 110.173 -32.4929 110.993C-32.8411 111.904 -32.9933 112.656 -33.0525 113.761C-33.0629 113.977 -33.0339 114.354 -32.7381 117.861L-32.4132 121.723L-32.4635 121.86C-32.523 122.025 -32.6264 122.154 -32.7651 122.235C-32.8539 122.286 -32.8957 122.298 -33.0423 122.311C-33.2005 122.325 -33.2299 122.321 -33.3507 122.273C-33.5056 122.213 -33.613 122.118 -33.7022 121.965L-33.7617 121.862L-34.0905 118.088C-34.3973 114.567 -34.4191 114.295 -34.4101 114.018C-34.3573 112.349 -33.8452 110.887 -32.8485 109.566C-32.1394 108.625 -31.111 107.802 -30.0453 107.318C-29.6995 107.16 -29.3176 107.014 -29.3495 107.05ZM-23.437 106.602C-22.4702 106.789 -21.5425 107.174 -20.7268 107.725C-19.1014 108.824 -17.9816 110.477 -17.5615 112.398C-17.4549 112.885 -17.4019 113.405 -17.1031 116.901L-16.8082 120.353L-16.8585 120.489C-16.9164 120.65 -17.0165 120.773 -17.1585 120.86C-17.2509 120.916 -17.2869 120.927 -17.4373 120.94C-17.5839 120.953 -17.629 120.949 -17.7234 120.914C-17.882 120.855 -17.9952 120.76 -18.0817 120.616L-18.1567 120.491L-18.5022 116.66C-18.7479 113.929 -18.8579 112.778 -18.8842 112.654C-19.0142 112.055 -19.1206 111.682 -19.2851 111.243C-20.017 109.29 -21.4996 107.645 -23.3496 106.734C-23.7011 106.56 -23.6888 106.567 -23.6637 106.565C-23.6523 106.562 -23.5517 106.579 -23.437 106.602Z" fill="black"/>
<path d="M-4.80899 103.921C-6.62954 104.219 -8.23498 105.068 -9.48221 106.391C-10.9374 107.937 -11.7418 109.948 -11.7547 112.075C-11.7573 112.357 -11.7138 112.901 -11.4311 116.147C-11.1109 119.821 -11.1043 119.897 -11.0524 120.046C-10.9062 120.474 -10.5425 120.835 -10.1249 120.965C-9.40542 121.192 -8.63569 120.813 -8.3632 120.103C-8.23507 119.767 -8.21927 120.104 -8.54041 116.352L-8.82838 113.002L-1.31608 112.332L-1.24443 112.285C-1.20387 112.26 -1.1485 112.204 -1.11929 112.16C-1.02285 112.017 -1.06621 111.765 -1.20374 111.659C-1.32045 111.568 -1.10583 111.556 -5.13728 111.91L-8.88518 112.239L-8.8891 112.127C-8.91167 111.556 -8.83367 110.8 -8.69222 110.193C-8.06112 107.509 -5.98814 105.357 -3.36258 104.661C-3.10608 104.593 -3.07698 104.593 -2.6348 104.648C-1.24374 104.82 0.053238 105.384 1.14912 106.294C1.75059 106.795 2.17805 107.262 2.59532 107.879C2.86938 108.281 3.10682 108.463 3.46391 108.546C3.68188 108.593 3.8779 108.59 4.07685 108.531C4.53917 108.394 4.86808 108.042 4.97798 107.563C5.00884 107.427 5.01144 107.367 4.99492 107.178C4.96255 106.806 4.85979 106.608 4.49576 106.223C3.39929 105.06 1.99655 104.242 0.463802 103.872C-0.650014 103.603 -1.8265 103.575 -2.93539 103.786C-3.14201 103.824 -3.22495 103.831 -3.42743 103.828C-3.74088 103.822 -4.51382 103.874 -4.80899 103.921ZM-6.14871 105.142C-7.93418 106.401 -9.18068 108.401 -9.53191 110.572C-9.60154 111 -9.62681 111.289 -9.65071 111.863C-9.65524 111.989 -9.56369 113.152 -9.33512 115.864L-9.01363 119.688L-9.05424 119.801C-9.11074 119.956 -9.19816 120.068 -9.33584 120.161C-9.4442 120.234 -9.46314 120.239 -9.63482 120.254C-9.78141 120.267 -9.8361 120.264 -9.91247 120.235C-10.0389 120.189 -10.2083 120.053 -10.2806 119.937L-10.3412 119.844L-10.6768 115.992C-10.9439 112.926 -11.01 112.1 -11.0044 111.942C-10.9624 110.952 -10.8019 110.161 -10.4686 109.324C-10.1771 108.587 -9.82498 107.989 -9.31074 107.355C-8.57385 106.443 -7.71343 105.766 -6.67343 105.277C-6.44384 105.168 -6.00984 104.996 -5.95214 104.989C-5.93688 104.986 -6.02419 105.055 -6.14871 105.142ZM0.087209 104.569C1.03342 104.766 1.98908 105.182 2.81913 105.763C3.10475 105.963 3.59808 106.382 3.84358 106.635C4.19139 106.99 4.25704 107.097 4.25478 107.294C4.25055 107.58 4.01875 107.797 3.72125 107.796C3.53068 107.795 3.38084 107.704 3.26787 107.523C3.16818 107.36 2.83846 106.922 2.66121 106.717C2.14659 106.12 1.52752 105.573 0.8864 105.153C0.630691 104.984 0.197567 104.742 -0.0945045 104.603C-0.349985 104.481 -0.346302 104.479 0.087209 104.569Z" fill="black"/>
<path d="M16.9293 102.004C14.9557 102.307 13.3362 103.173 11.9949 104.644C11.6171 105.059 11.1943 105.65 10.9104 106.162C10.2322 107.39 9.89125 108.674 9.85829 110.125C9.84953 110.538 9.92397 111.392 10.0059 111.797C10.3914 113.745 11.3247 115.355 12.7984 116.609C13.502 117.211 14.1854 117.626 15.0357 117.971C16.0874 118.397 17.081 118.579 18.2556 118.565C18.607 118.56 19.306 118.484 19.6498 118.415C19.7815 118.387 19.9124 118.372 19.9767 118.374C20.4414 118.398 21.19 118.335 21.7499 118.224C24.1503 117.755 26.2173 116.226 27.3869 114.057C28.9715 111.118 28.6557 107.493 26.5909 104.877C26.2239 104.413 25.8634 104.044 25.3585 103.626C23.965 102.467 22.286 101.825 20.4547 101.753C19.889 101.73 19.0783 101.795 18.5824 101.904C18.4775 101.927 18.3674 101.935 18.1765 101.93C17.9156 101.925 17.1499 101.971 16.9293 102.004ZM18.7784 102.726C20.9878 102.942 22.9902 104.151 24.25 106.028C24.7884 106.832 25.1598 107.725 25.3706 108.717C25.4539 109.116 25.5393 110.096 25.5248 110.487C25.4664 111.958 25.0562 113.251 24.2672 114.457C24.0563 114.781 23.5112 115.439 23.2351 115.706C22.3096 116.595 21.2193 117.221 20.0342 117.54L19.7874 117.607L19.5329 117.586C17.8449 117.442 16.202 116.679 14.9809 115.468C13.9172 114.415 13.2237 113.148 12.8908 111.646C12.8179 111.323 12.7277 110.466 12.7248 110.098C12.718 108.548 13.1544 107.088 14.0092 105.811C14.2121 105.507 14.6176 105.009 14.8672 104.75C15.7934 103.802 16.9785 103.105 18.2396 102.765C18.5073 102.693 18.4707 102.696 18.7784 102.726ZM15.6112 103.138C14.9647 103.593 14.4582 104.049 13.9923 104.591C12.722 106.073 12.0421 107.839 11.9711 109.835C11.9633 110.059 11.9735 110.265 12.0181 110.777C12.0791 111.477 12.1192 111.714 12.2653 112.253C12.6986 113.858 13.575 115.26 14.8159 116.341C15.4427 116.887 16.0201 117.268 16.7237 117.602C16.8514 117.662 16.9471 117.712 16.9356 117.713C16.8854 117.718 16.3429 117.604 16.1257 117.542C14.42 117.062 12.9901 116.043 11.9626 114.578C11.8162 114.371 11.5361 113.901 11.4233 113.676C10.3586 111.539 10.3438 109.005 11.3854 106.884C12.2305 105.161 13.7088 103.814 15.4747 103.156C15.6856 103.078 15.7009 103.075 15.6112 103.138ZM21.7008 102.67C22.2256 102.782 22.8844 103.004 23.3551 103.23C25.1768 104.107 26.589 105.702 27.2316 107.612C27.4309 108.203 27.5429 108.753 27.6008 109.418C27.6935 110.482 27.5852 111.447 27.265 112.434C26.5773 114.557 24.9434 116.307 22.9091 117.096C22.5613 117.231 22.5554 117.23 22.7805 117.07C23.6736 116.434 24.4628 115.586 25.0418 114.647C25.8336 113.362 26.2514 111.911 26.2808 110.352C26.287 109.977 26.195 108.988 26.1184 108.622C25.9298 107.707 25.6328 106.907 25.1931 106.123C24.3987 104.701 23.1046 103.479 21.6408 102.762C21.5068 102.697 21.383 102.637 21.3666 102.627C21.3195 102.599 21.4415 102.616 21.7008 102.67Z" fill="black"/>
<path d="M54.3943 86.1803L54.8038 86.1443L58.4141 127.579L58.0046 127.615L54.3943 86.1803Z" fill="black"/>
<path d="M107.151 83.6409C106.823 83.7007 106.511 83.7822 106.231 83.8809C104.854 84.3675 103.716 85.382 103.068 86.7016C102.403 88.0558 102.301 89.6257 102.785 91.0556C103.221 92.3451 104.096 93.4215 105.275 94.121C105.449 94.225 105.702 94.3541 105.717 94.3473C105.722 94.3457 106.132 93.4625 106.626 92.3862C107.121 91.3099 107.545 90.4 107.567 90.3649C107.779 90.0326 108.236 89.9206 108.588 90.115C108.752 90.2056 108.701 90.1371 110.039 92.0709C110.718 93.053 111.276 93.8579 111.278 93.861C111.292 93.8741 111.631 93.6102 111.817 93.4381C112.257 93.0349 112.632 92.5645 112.93 92.0457C113.185 91.599 113.405 91.034 113.522 90.5233C113.75 89.5368 113.711 88.5051 113.413 87.5426C112.856 85.7467 111.45 84.3425 109.668 83.8021C109.205 83.6627 108.703 83.5831 108.181 83.5659C108.01 83.56 107.318 83.6109 107.151 83.6409Z" fill="black"/>
<path d="M99.9762 99.5044C98.5935 99.7098 97.3759 100.396 96.4827 101.474C95.7749 102.327 95.3344 103.368 95.2127 104.475C95.1487 105.055 95.1802 105.73 95.2989 106.278C95.5704 107.541 96.2173 108.631 97.183 109.449C97.9593 110.107 98.8701 110.533 99.8575 110.698C100.346 110.78 100.751 110.796 101.262 110.751C101.763 110.707 102.129 110.629 102.59 110.47C104.133 109.938 105.373 108.738 105.976 107.195C106.266 106.451 106.399 105.627 106.355 104.84L106.343 104.623L104.201 104.811C102.451 104.964 102.043 104.997 101.975 104.991C101.736 104.969 101.517 104.83 101.392 104.622C101.327 104.512 101.298 104.433 101.278 104.318C101.262 104.22 101.272 104.086 101.302 103.988C101.313 103.95 101.727 103.039 102.223 101.963C102.718 100.885 103.123 99.999 103.122 99.9925C103.121 99.9859 103.073 99.9592 103.017 99.9332C102.294 99.6123 101.52 99.4494 100.733 99.4501C100.545 99.45 100.156 99.4787 99.9762 99.5044Z" fill="black"/>
<path d="M117.229 97.9888C116.492 98.0989 115.796 98.3478 115.174 98.7228C114.977 98.8417 114.812 98.9523 114.813 98.9644C114.813 98.9687 115.357 99.7562 116.019 100.715C116.683 101.673 117.244 102.488 117.267 102.526C117.339 102.643 117.359 102.705 117.372 102.864C117.386 103.027 117.372 103.115 117.309 103.259C117.256 103.378 117.126 103.528 117.016 103.595C116.838 103.703 117.07 103.675 114.622 103.894L112.442 104.087L112.466 104.28C112.65 105.737 113.341 107.017 114.449 107.952C115.357 108.717 116.501 109.178 117.673 109.25C117.972 109.268 118.17 109.265 118.501 109.236C118.676 109.222 118.885 109.197 118.965 109.182C120.151 108.965 121.161 108.431 122 107.58C122.162 107.415 122.464 107.05 122.591 106.864C123.245 105.911 123.576 104.888 123.611 103.708C123.615 103.575 123.609 103.456 123.579 103.109C123.549 102.761 123.534 102.643 123.507 102.513C123.284 101.436 122.822 100.522 122.107 99.7419C121.137 98.6839 119.778 98.0333 118.356 97.9451C118.01 97.9246 117.543 97.9425 117.229 97.9888Z" fill="black"/>
<path d="M114.834 115.267C113.967 115.396 113.261 115.901 112.883 116.661C112.711 117.007 112.615 117.418 112.608 117.844C112.604 118.006 112.652 118.449 112.689 118.597C112.933 119.582 113.613 120.291 114.531 120.519L114.659 120.551L116.016 120.431L116.109 120.389C116.439 120.239 116.708 119.991 116.842 119.715L116.877 119.643L116.938 120.35L117.466 120.302L117.993 120.252L117.746 117.413L114.925 117.655L115.017 118.708L116.524 118.575L116.482 118.673C116.295 119.122 115.852 119.396 115.27 119.422C114.98 119.434 114.744 119.38 114.525 119.25C114.107 119.004 113.853 118.465 113.863 117.85C113.875 117.153 114.236 116.652 114.85 116.483C114.981 116.447 115.258 116.423 115.393 116.435C115.784 116.472 116.092 116.645 116.298 116.94L116.331 116.99L116.991 116.932C117.353 116.901 117.65 116.872 117.649 116.869C117.649 116.867 117.62 116.798 117.586 116.716C117.333 116.118 116.859 115.655 116.252 115.417C115.904 115.28 115.58 115.226 115.173 115.236C115.074 115.24 114.989 115.243 114.983 115.244C114.977 115.245 114.911 115.255 114.834 115.267Z" fill="black"/>
<path d="M86.0758 123.062L87.3099 122.953L87.0208 119.573L88.4459 121.406L88.5106 121.397L88.5743 121.39L89.114 120.373C89.41 119.815 89.6556 119.354 89.6607 119.349C89.6646 119.344 89.7338 120.1 89.8148 121.03L89.9621 122.72L91.1961 122.612L90.7481 117.47L89.3441 117.594L88.8436 118.521C88.5684 119.032 88.3396 119.447 88.336 119.444C88.3315 119.442 88.0362 119.071 87.6795 118.619L87.0298 117.798L86.3293 117.859L85.6279 117.92L86.0758 123.062Z" fill="black"/>
<path d="M93.2204 122.434L96.7111 122.122L96.6624 121.526L96.6128 120.932L94.3504 121.131L94.2807 120.33L96.3374 120.15L96.2333 118.955L94.1765 119.135L94.1106 118.379L96.3672 118.175L96.264 116.991L92.7724 117.293L93.2204 122.434Z" fill="black"/>
<path d="M97.8128 118.054L99.1876 117.933L99.5315 121.88L100.766 121.771L100.422 117.825L101.807 117.703L101.703 116.508L97.7087 116.859L97.8128 118.054Z" fill="black"/>
<path d="M104.328 116.307C104.324 116.325 104.016 117.491 103.646 118.9C103.276 120.309 102.965 121.488 102.957 121.52L102.943 121.58L104.248 121.465L104.335 121.113C104.383 120.919 104.444 120.671 104.469 120.564L104.518 120.37L106.416 120.203L106.641 120.717L106.866 121.23L107.519 121.176C108.139 121.123 108.172 121.119 108.166 121.102C108.157 121.078 105.924 116.221 105.9 116.175L105.883 116.141L104.336 116.277L104.328 116.307ZM105.568 118.285L105.902 119.044L105.361 119.092C104.934 119.129 104.822 119.136 104.825 119.125C104.827 119.118 104.917 118.752 105.025 118.313C105.132 117.874 105.223 117.517 105.226 117.52C105.23 117.523 105.384 117.867 105.568 118.285Z" fill="black"/>
<path d="M120.287 117.44C119.906 118.886 119.595 120.078 119.592 120.093L119.588 120.118L120.24 120.058L120.891 119.998L121.158 118.908L123.055 118.742L123.244 119.169C123.347 119.405 123.449 119.637 123.471 119.686L123.511 119.773L124.16 119.716C124.626 119.675 124.808 119.656 124.807 119.647C124.807 119.64 124.293 118.52 123.666 117.157L122.526 114.679L120.976 114.815L120.287 117.44ZM122.205 116.815L122.541 117.577L122.272 117.604C122.124 117.618 121.881 117.64 121.733 117.651L121.464 117.672L121.662 116.862C121.77 116.416 121.862 116.052 121.865 116.051C121.868 116.051 122.021 116.394 122.205 116.815Z" fill="black"/>
<path d="M125.265 115.642L126.64 115.521L126.984 119.468L128.218 119.36L127.874 115.413L129.26 115.291L129.156 114.096L125.161 114.447L125.265 115.642Z" fill="black"/>
<path d="M131.303 119.089L134.794 118.776L134.745 118.181L134.696 117.586L132.433 117.785L132.364 116.985L134.42 116.804L134.316 115.609L132.259 115.79L132.194 115.034L134.45 114.83L134.347 113.646L130.855 113.947L131.303 119.089Z" fill="black"/>
<path d="M159.212 76.9724L159.622 76.9365L163.232 118.371L162.823 118.407L159.212 76.9724Z" fill="black"/>
<path d="M189.75 86.83C189.181 86.9884 188.78 87.4275 188.679 88.0077C188.639 88.224 188.679 88.5456 188.786 88.9046C189.012 89.665 189.272 90.2627 189.66 90.9083C190.249 91.887 190.979 92.6838 191.905 93.3551C193.314 94.3819 194.972 94.914 196.732 94.9071L197.008 94.9065L197.293 98.1736C197.479 100.309 197.589 101.485 197.608 101.566C197.727 102.046 198.044 102.42 198.484 102.592C198.784 102.712 199.101 102.729 199.392 102.643C199.936 102.481 200.301 102.072 200.424 101.494L200.455 101.346L199.882 94.6521L200.012 94.6269C200.44 94.5498 200.564 94.5231 200.776 94.4711C203.016 93.902 204.888 92.4352 205.997 90.3735C206.506 89.4324 206.832 88.3537 206.943 87.2603C206.979 86.8947 206.977 86.7648 206.936 86.5793C206.794 85.9849 206.355 85.5605 205.766 85.4506C205.592 85.4186 205.24 85.4496 205.072 85.5116C204.705 85.6483 204.406 85.9267 204.236 86.2943C204.169 86.4381 204.127 86.6684 204.111 86.9771C203.995 89.2117 202.934 91.2494 201.174 92.6176C200.448 93.1819 199.563 93.6241 198.648 93.8778L198.392 93.9496L198.173 93.9314C195.572 93.7126 193.272 92.1337 192.115 89.7745C191.83 89.1928 191.644 88.6673 191.501 88.0356C191.473 87.9139 191.429 87.7583 191.401 87.6898C191.169 87.125 190.621 86.7693 190.023 86.7962C189.922 86.8011 189.799 86.8158 189.75 86.83ZM190.32 87.5995C190.58 87.7008 190.682 87.8475 190.784 88.274C191.147 89.7926 191.827 91.0549 192.896 92.1982C193.155 92.4749 193.888 93.0942 194.226 93.3206C194.538 93.5296 195.057 93.8248 195.355 93.9602C195.464 94.0097 195.55 94.0535 195.546 94.0577C195.537 94.0703 195.051 93.9712 194.812 93.9094C193.603 93.596 192.438 92.9379 191.525 92.0527C191.026 91.5705 190.676 91.1264 190.308 90.5145C189.938 89.8988 189.717 89.3981 189.519 88.724C189.444 88.4666 189.418 88.3545 189.418 88.2561C189.412 87.965 189.573 87.7164 189.846 87.5978C189.968 87.5458 190.186 87.5463 190.32 87.5995ZM205.787 86.2467C205.936 86.3046 206.044 86.4015 206.133 86.5533C206.183 86.6414 206.194 86.6799 206.206 86.8325C206.231 87.1692 206.102 87.9627 205.927 88.5612C205.345 90.5411 204.008 92.1756 202.196 93.1248C201.88 93.2905 201.237 93.5617 201.212 93.5423C201.208 93.5387 201.29 93.4763 201.392 93.4023C202.236 92.8002 202.994 91.9987 203.565 91.1053C203.849 90.6607 204.181 89.9893 204.357 89.5069C204.643 88.7114 204.802 87.9507 204.859 87.0828C204.886 86.6786 204.911 86.5818 205.028 86.4395C205.217 86.2141 205.511 86.1389 205.787 86.2467ZM198.649 94.715C198.749 94.7181 198.896 94.7189 198.98 94.7175L199.13 94.7182L199.413 97.9775C199.729 101.6 199.717 101.369 199.596 101.587C199.341 102.048 198.675 102.042 198.409 101.578L198.348 101.472L197.76 94.8385L197.956 94.8075C198.065 94.79 198.204 94.764 198.267 94.7505C198.433 94.7143 198.453 94.7126 198.649 94.715Z" fill="black"/>
<path d="M219.488 84.2196C218.282 84.4083 217.079 84.8942 216.088 85.5901C214.775 86.5132 213.708 87.8738 213.123 89.3693C212.843 90.0854 212.647 90.934 212.582 91.71C212.522 92.4285 212.512 92.2659 212.875 96.4324C213.247 100.697 213.199 100.309 213.388 100.625C213.554 100.904 213.808 101.118 214.109 101.232C214.333 101.316 214.476 101.335 214.738 101.31C215.01 101.286 215.141 101.244 215.371 101.103C215.501 101.025 215.558 100.972 215.697 100.805C215.885 100.577 215.978 100.388 216.029 100.111L216.059 99.9552L215.488 93.2969L221.146 92.7999C224.963 92.4645 226.83 92.2927 226.886 92.2739C227.213 92.1664 227.234 91.6878 226.918 91.5658L226.829 91.5322L215.418 92.5347L215.416 92.3811C215.412 90.9453 215.73 89.6722 216.387 88.5131C216.7 87.9576 217.266 87.2223 217.691 86.8126C218.623 85.915 219.682 85.3078 220.901 84.9703C221.146 84.9015 221.186 84.896 221.313 84.9045C223.497 85.0712 225.509 86.2164 226.808 88.0272C227.004 88.2995 227.347 88.8861 227.49 89.1888C227.731 89.7035 227.904 90.2163 228.047 90.8341C228.116 91.1335 228.117 91.1432 228.465 95.0038C228.857 99.3412 228.806 98.9378 228.991 99.2525C229.372 99.9007 230.205 100.141 230.873 99.7945C231.165 99.6428 231.43 99.3436 231.547 99.03C231.684 98.6653 231.703 99.0418 231.338 94.8499C230.997 90.9297 230.997 90.9317 230.855 90.3314C230.511 88.8801 229.822 87.6028 228.8 86.5105C228.504 86.1956 227.789 85.5867 227.429 85.3444C226.147 84.4818 224.675 84.0024 223.142 83.9459C222.557 83.9244 221.76 83.9905 221.253 84.102C221.167 84.1194 221.061 84.1287 220.977 84.1263C220.581 84.1059 219.956 84.1469 219.488 84.2196ZM218.365 85.2896C218.361 85.2938 218.275 85.3565 218.175 85.4265C217.554 85.8632 217.004 86.3824 216.503 87.0056C215.945 87.7008 215.535 88.4126 215.221 89.2322C214.873 90.1434 214.721 90.8956 214.662 92.0002C214.651 92.2158 214.68 92.5935 214.976 96.1001L215.301 99.9626L215.251 100.099C215.191 100.264 215.088 100.393 214.949 100.474C214.86 100.525 214.819 100.537 214.672 100.55C214.514 100.564 214.484 100.56 214.364 100.512C214.209 100.453 214.101 100.358 214.012 100.204L213.953 100.101L213.624 96.3272C213.317 92.8059 213.295 92.534 213.304 92.2574C213.357 90.5879 213.869 89.1264 214.866 87.8055C215.575 86.8645 216.603 86.0413 217.669 85.5576C218.015 85.3991 218.397 85.2533 218.365 85.2896ZM224.277 84.8411C225.244 85.0281 226.172 85.4135 226.988 85.9644C228.613 87.0628 229.733 88.7159 230.153 90.6374C230.259 91.1245 230.312 91.6439 230.611 95.1403L230.906 98.5917L230.856 98.7282C230.798 98.8889 230.698 99.012 230.556 99.0993C230.463 99.1547 230.427 99.1657 230.277 99.179C230.13 99.1918 230.085 99.1879 229.991 99.1529C229.832 99.0939 229.719 98.9994 229.633 98.8553L229.558 98.7299L229.212 94.8987C228.966 92.168 228.856 91.0172 228.83 90.8935C228.7 90.2941 228.594 89.9213 228.429 89.4826C227.697 87.5294 226.215 85.8845 224.365 84.9733C224.013 84.7993 224.026 84.8061 224.051 84.8039C224.062 84.8009 224.163 84.8177 224.277 84.8411Z" fill="black"/>
<path d="M242.905 82.1605C241.085 82.4584 239.479 83.3067 238.232 84.6299C236.777 86.1762 235.973 88.1875 235.96 90.3144C235.957 90.5964 236 91.1403 236.283 94.3859C236.603 98.0597 236.61 98.136 236.662 98.2851C236.808 98.7136 237.172 99.0737 237.589 99.2045C238.309 99.4309 239.079 99.052 239.351 98.3424C239.479 98.0061 239.495 98.3436 239.174 94.591L238.886 91.2414L246.398 90.5717L246.47 90.524C246.51 90.4988 246.566 90.4427 246.595 90.3987C246.691 90.2563 246.648 90.004 246.511 89.8978C246.394 89.8076 246.609 89.7947 242.577 90.1488L238.829 90.4781L238.825 90.3661C238.803 89.7948 238.881 89.0393 239.022 88.4318C239.653 85.7482 241.726 83.5959 244.352 82.9003C244.608 82.8325 244.637 82.8319 245.08 82.8876C246.471 83.059 247.768 83.6228 248.863 84.5333C249.465 85.034 249.892 85.5009 250.31 86.1183C250.584 86.5198 250.821 86.7018 251.178 86.7847C251.396 86.8326 251.592 86.8292 251.791 86.7703C252.254 86.6331 252.582 86.2811 252.692 85.8026C252.723 85.6659 252.726 85.6066 252.709 85.4169C252.677 85.0454 252.574 84.8476 252.21 84.4619C251.114 83.2993 249.711 82.4808 248.178 82.111C247.064 81.8424 245.888 81.8138 244.779 82.0255C244.572 82.0633 244.489 82.0706 244.287 82.0667C243.973 82.0608 243.201 82.1129 242.905 82.1605ZM241.566 83.3815C239.78 84.6397 238.534 86.6405 238.182 88.811C238.113 89.2387 238.088 89.5286 238.064 90.102C238.059 90.2285 238.151 91.3908 238.379 94.1033L238.701 97.9267L238.66 98.0406C238.604 98.1953 238.516 98.3074 238.378 98.4003C238.27 98.4729 238.251 98.4785 238.08 98.4935C237.933 98.5064 237.878 98.5034 237.802 98.4746C237.675 98.4286 237.506 98.2917 237.434 98.1759L237.373 98.0828L237.038 94.231C236.77 91.1653 236.704 90.3396 236.71 90.1815C236.752 89.1908 236.912 88.4005 237.246 87.5634C237.537 86.8266 237.889 86.2282 238.404 85.594C239.14 84.6821 240.001 84.0056 241.041 83.5162C241.27 83.4074 241.705 83.2353 241.762 83.2283C241.777 83.225 241.69 83.2937 241.566 83.3815ZM247.802 82.8081C248.748 83.0047 249.703 83.4212 250.533 84.0024C250.819 84.2019 251.312 84.6215 251.558 84.8738C251.906 85.2294 251.971 85.3359 251.969 85.5332C251.965 85.8192 251.733 86.0366 251.436 86.0351C251.245 86.0342 251.095 85.9429 250.982 85.7617C250.883 85.5991 250.553 85.1611 250.376 84.956C249.861 84.3589 249.242 83.8124 248.601 83.392C248.345 83.2233 247.912 82.9816 247.62 82.8418C247.364 82.7204 247.368 82.7181 247.802 82.8081Z" fill="black"/>
<path d="M264.644 80.243C262.67 80.5464 261.05 81.4118 259.709 82.8831C259.331 83.2985 258.909 83.8892 258.625 84.4008C257.947 85.6287 257.606 86.9136 257.573 88.3646C257.564 88.7771 257.638 89.6316 257.72 90.0361C258.106 91.9843 259.039 93.5946 260.513 94.8482C261.216 95.4504 261.9 95.8652 262.75 96.2101C263.802 96.6359 264.795 96.8185 265.97 96.804C266.321 96.7987 267.02 96.7235 267.364 96.6539C267.496 96.6266 267.627 96.6112 267.691 96.6134C268.156 96.6376 268.904 96.5738 269.464 96.4635C271.865 95.9946 273.932 94.4654 275.101 92.2959C276.686 89.3571 276.37 85.7322 274.305 83.1159C273.938 82.6517 273.578 82.2834 273.073 81.8648C271.679 80.7066 270 80.064 268.169 79.9924C267.603 79.9692 266.793 80.0345 266.297 80.1431C266.192 80.1661 266.082 80.1738 265.891 80.1689C265.63 80.1643 264.864 80.2099 264.644 80.243ZM266.493 80.9652C268.702 81.1809 270.704 82.39 271.964 84.2673C272.503 85.0711 272.874 85.9644 273.085 86.9566C273.168 87.3551 273.254 88.3347 273.239 88.7261C273.181 90.197 272.771 91.49 271.982 92.6961C271.771 93.02 271.226 93.6786 270.949 93.9452C270.024 94.8343 268.934 95.46 267.749 95.7789L267.502 95.8459L267.247 95.8249C265.559 95.6816 263.916 94.9177 262.695 93.7069C261.632 92.6537 260.938 91.3867 260.605 89.8852C260.532 89.5625 260.442 88.7056 260.439 88.3374C260.432 86.7875 260.869 85.3267 261.724 84.0498C261.926 83.7463 262.332 83.2477 262.582 82.9893C263.508 82.0411 264.693 81.344 265.954 81.0046C266.222 80.9319 266.185 80.9351 266.493 80.9652ZM263.326 81.3774C262.679 81.8322 262.173 82.2884 261.707 82.8298C260.436 84.3126 259.756 86.0785 259.685 88.0746C259.678 88.2979 259.688 88.5039 259.732 89.0161C259.793 89.7161 259.834 89.9529 259.98 90.4918C260.413 92.0968 261.289 93.4994 262.53 94.5804C263.157 95.1262 263.734 95.507 264.438 95.8412C264.566 95.9009 264.661 95.9516 264.65 95.9526C264.6 95.957 264.057 95.8431 263.84 95.7814C262.134 95.3008 260.704 94.2817 259.677 92.8175C259.531 92.6097 259.25 92.1398 259.138 91.9153C258.073 89.7786 258.058 87.2443 259.1 85.1235C259.945 83.4002 261.423 82.0528 263.189 81.3953C263.4 81.3177 263.415 81.3143 263.326 81.3774ZM269.415 80.9094C269.94 81.0209 270.599 81.2428 271.069 81.4694C272.891 82.3457 274.303 83.9416 274.946 85.8514C275.145 86.4427 275.257 86.9923 275.315 87.6571C275.408 88.7207 275.299 89.6858 274.979 90.6734C274.292 92.7966 272.658 94.5458 270.623 95.3352C270.276 95.4702 270.27 95.4688 270.495 95.3091C271.388 94.6731 272.177 93.8255 272.756 92.8861C273.548 91.601 273.966 90.1497 273.995 88.5907C274.001 88.2158 273.909 87.227 273.833 86.8613C273.644 85.946 273.347 85.1466 272.907 84.3617C272.113 82.9401 270.819 81.718 269.355 81.0014C269.221 80.9363 269.097 80.8763 269.081 80.8659C269.034 80.8385 269.156 80.8554 269.415 80.9094Z" fill="black"/>
<path d="M302.109 64.4195L302.518 64.3835L306.128 105.818L305.719 105.854L302.109 64.4195Z" fill="black"/>
<path d="M354.866 61.8801C354.537 61.9399 354.226 62.0214 353.945 62.12C352.568 62.6066 351.431 63.6212 350.782 64.9408C350.117 66.295 350.015 67.8648 350.499 69.2948C350.936 70.5842 351.811 71.6607 352.99 72.3602C353.163 72.4642 353.417 72.5933 353.431 72.5865C353.437 72.5849 353.846 71.7016 354.341 70.6254C354.836 69.549 355.259 68.6391 355.281 68.6041C355.493 68.2717 355.951 68.1598 356.302 68.3542C356.466 68.4447 356.416 68.3763 357.753 70.3101C358.432 71.2922 358.99 72.0971 358.993 72.1002C359.007 72.1133 359.345 71.8494 359.532 71.6772C359.971 71.2741 360.347 70.8036 360.644 70.2848C360.9 69.8382 361.12 69.2732 361.237 68.7625C361.464 67.776 361.425 66.7443 361.128 65.7818C360.571 63.9859 359.165 62.5817 357.382 62.0413C356.919 61.9019 356.417 61.8222 355.895 61.8051C355.725 61.7991 355.032 61.85 354.866 61.8801Z" fill="black"/>
<path d="M347.691 77.7436C346.308 77.949 345.09 78.6348 344.197 79.713C343.489 80.5661 343.049 81.6067 342.927 82.7143C342.863 83.2943 342.895 83.9687 343.013 84.5173C343.285 85.7803 343.932 86.8701 344.897 87.6878C345.674 88.3465 346.584 88.7724 347.572 88.9375C348.06 89.0195 348.465 89.0347 348.976 88.9898C349.477 88.9458 349.843 88.8683 350.304 88.7096C351.847 88.1775 353.087 86.9772 353.69 85.434C353.98 84.6906 354.113 83.8658 354.07 83.0787L354.057 82.8622L351.915 83.0504C350.166 83.203 349.757 83.2366 349.689 83.2304C349.451 83.2083 349.231 83.0696 349.106 82.8608C349.041 82.7516 349.012 82.6724 348.992 82.5571C348.976 82.4591 348.986 82.3256 349.016 82.2269C349.027 82.1895 349.442 81.2782 349.937 80.2018C350.432 79.1244 350.837 78.2382 350.836 78.2316C350.836 78.2251 350.788 78.1984 350.731 78.1724C350.008 77.8515 349.235 77.6886 348.447 77.6893C348.26 77.6892 347.87 77.7178 347.691 77.7436Z" fill="black"/>
<path d="M364.944 76.2279C364.206 76.338 363.51 76.587 362.888 76.9619C362.691 77.0809 362.526 77.1915 362.527 77.2035C362.528 77.2079 363.071 77.9953 363.734 78.9545C364.398 79.9124 364.958 80.727 364.981 80.7648C365.054 80.8821 365.073 80.9445 365.086 81.1035C365.1 81.2658 365.086 81.3543 365.023 81.4979C364.97 81.6174 364.84 81.7669 364.731 81.834C364.553 81.9424 364.785 81.9143 362.336 82.1327L360.156 82.3264L360.181 82.5187C360.364 83.9762 361.055 85.2565 362.163 86.191C363.072 86.9562 364.216 87.4169 365.387 87.4896C365.686 87.5075 365.885 87.5044 366.215 87.4754C366.39 87.4611 366.6 87.4361 366.679 87.4214C367.866 87.2045 368.875 86.6706 369.714 85.8193C369.876 85.6537 370.178 85.2891 370.305 85.1035C370.959 84.1501 371.29 83.1269 371.326 81.9473C371.329 81.8144 371.323 81.6956 371.293 81.3481C371.263 81.0006 371.248 80.8826 371.222 80.7523C370.998 79.6751 370.537 78.7612 369.822 77.9811C368.851 76.923 367.492 76.2725 366.07 76.1842C365.725 76.1638 365.257 76.1816 364.944 76.2279Z" fill="black"/>
<path d="M362.548 93.5064C361.682 93.6355 360.975 94.1406 360.597 94.9006C360.426 95.246 360.33 95.6576 360.322 96.0836C360.319 96.2452 360.366 96.6884 360.403 96.8365C360.647 97.8214 361.327 98.5305 362.246 98.758L362.373 98.7899L363.73 98.6706L363.824 98.6282C364.153 98.4777 364.423 98.2298 364.556 97.9541L364.591 97.8825L364.653 98.5896L365.181 98.541L365.708 98.4914L365.46 95.6521L362.64 95.8943L362.732 96.9467L364.238 96.8144L364.197 96.9119C364.009 97.3614 363.566 97.6356 362.985 97.6613C362.694 97.6735 362.459 97.6192 362.239 97.4893C361.821 97.2432 361.567 96.7044 361.577 96.0893C361.589 95.3923 361.95 94.8911 362.564 94.7223C362.695 94.6865 362.972 94.6622 363.107 94.6746C363.499 94.7109 363.806 94.8838 364.012 95.1795L364.046 95.2295L364.705 95.1716C365.068 95.1398 365.364 95.1115 365.364 95.1082C365.364 95.106 365.335 95.0368 365.3 94.9547C365.047 94.3572 364.573 93.8941 363.966 93.6557C363.619 93.5195 363.294 93.4651 362.887 93.4755C362.788 93.4787 362.703 93.4817 362.697 93.4834C362.692 93.4838 362.625 93.4941 362.548 93.5064Z" fill="black"/>
<path d="M333.79 101.301L335.024 101.192L334.735 97.8121L336.16 99.6455L336.225 99.6365L336.289 99.6287L336.828 98.6125C337.124 98.054 337.37 97.5928 337.375 97.5879C337.379 97.5832 337.448 98.3393 337.529 99.2689L337.676 100.959L338.911 100.851L338.463 95.7095L337.058 95.8328L336.558 96.7605C336.283 97.2707 336.054 97.6863 336.05 97.6833C336.046 97.6815 335.751 97.3098 335.394 96.8584L334.744 96.0372L334.044 96.0977L333.342 96.1593L333.79 101.301Z" fill="black"/>
<path d="M340.935 100.673L344.425 100.361L344.377 99.7654L344.327 99.1711L342.065 99.3698L341.995 98.5695L344.052 98.3889L343.948 97.1939L341.891 97.3746L341.825 96.6182L344.082 96.4144L343.978 95.2305L340.487 95.5317L340.935 100.673Z" fill="black"/>
<path d="M345.527 96.293L346.902 96.1722L347.246 100.119L348.48 100.01L348.136 96.0638L349.522 95.9421L349.418 94.7471L345.423 95.098L345.527 96.293Z" fill="black"/>
<path d="M352.042 94.5464C352.038 94.5644 351.731 95.7303 351.36 97.1393C350.99 98.5482 350.679 99.7276 350.671 99.7593L350.657 99.8191L351.962 99.7044L352.049 99.3521C352.097 99.1579 352.158 98.9106 352.184 98.8034L352.232 98.6092L354.13 98.4425L354.356 98.9562L354.58 99.4689L355.234 99.4148C355.853 99.3626 355.886 99.3586 355.881 99.3414C355.872 99.3168 353.638 94.4603 353.614 94.4138L353.597 94.38L352.05 94.5159L352.042 94.5464ZM353.282 96.5242L353.617 97.2835L353.075 97.331C352.648 97.3686 352.536 97.3751 352.539 97.3638C352.541 97.357 352.631 96.9912 352.739 96.552C352.846 96.1129 352.937 95.7558 352.941 95.7588C352.944 95.7618 353.099 96.1062 353.282 96.5242Z" fill="black"/>
<path d="M368.001 95.6796C367.621 97.1248 367.309 98.3176 367.306 98.3322L367.303 98.3568L367.954 98.2974L368.606 98.2368L368.873 97.1474L370.769 96.9808L370.958 97.4082C371.062 97.6444 371.164 97.8762 371.185 97.9251L371.226 98.0122L371.874 97.9552C372.341 97.9142 372.522 97.895 372.521 97.8862C372.521 97.8796 372.008 96.7593 371.381 95.396L370.241 92.9179L368.691 93.0541L368.001 95.6796ZM369.92 95.0538L370.256 95.8163L369.986 95.8433C369.838 95.8574 369.596 95.8787 369.447 95.8906L369.178 95.9109L369.376 95.1015C369.485 94.6557 369.576 94.2908 369.579 94.2905C369.583 94.2902 369.736 94.6336 369.92 95.0538Z" fill="black"/>
<path d="M372.98 93.8814L374.355 93.7606L374.698 97.7071L375.932 97.5987L375.589 93.6522L376.974 93.5304L376.87 92.3355L372.876 92.6864L372.98 93.8814Z" fill="black"/>
<path d="M379.018 97.3277L382.508 97.0155L382.46 96.42L382.41 95.8256L380.148 96.0244L380.078 95.2241L382.135 95.0434L382.031 93.8485L379.974 94.0292L379.908 93.2727L382.164 93.069L382.061 91.885L378.57 92.1862L379.018 97.3277Z" fill="black"/>
<path d="M406.927 55.2116L407.336 55.1756L410.946 96.6105L410.537 96.6464L406.927 55.2116Z" fill="black"/>
<path d="M437.464 65.0692C436.895 65.2276 436.494 65.6667 436.393 66.2469C436.354 66.4631 436.393 66.7847 436.5 67.1438C436.726 67.9041 436.986 68.5019 437.375 69.1474C437.963 70.1261 438.694 70.9229 439.619 71.5942C441.028 72.621 442.686 73.1531 444.446 73.1463L444.722 73.1457L445.007 76.4128C445.193 78.5479 445.303 79.7242 445.322 79.8053C445.442 80.2854 445.758 80.6595 446.199 80.8316C446.499 80.9511 446.815 80.9686 447.107 80.8819C447.65 80.7198 448.015 80.3115 448.138 79.7333L448.17 79.5847L447.596 72.8912L447.726 72.866C448.155 72.789 448.279 72.7623 448.49 72.7103C450.73 72.1411 452.602 70.6744 453.711 68.6127C454.22 67.6716 454.546 66.5928 454.657 65.4995C454.693 65.1338 454.691 65.0039 454.65 64.8184C454.509 64.224 454.069 63.7996 453.481 63.6898C453.307 63.6578 452.954 63.6888 452.786 63.7508C452.419 63.8875 452.121 64.1659 451.951 64.5335C451.883 64.6773 451.841 64.9076 451.825 65.2163C451.709 67.4508 450.649 69.4885 448.888 70.8568C448.162 71.421 447.277 71.8632 446.362 72.117L446.106 72.1887L445.887 72.1706C443.287 71.9518 440.986 70.3728 439.83 68.0137C439.544 67.432 439.358 66.9065 439.216 66.2748C439.188 66.1531 439.143 65.9974 439.116 65.9289C438.884 65.3642 438.336 65.0084 437.737 65.0354C437.637 65.0403 437.514 65.055 437.464 65.0692ZM438.035 65.8387C438.294 65.94 438.397 66.0867 438.498 66.5132C438.862 68.0317 439.541 69.294 440.611 70.4373C440.87 70.714 441.602 71.3333 441.941 71.5597C442.252 71.7688 442.772 72.064 443.069 72.1994C443.179 72.2489 443.264 72.2926 443.26 72.2969C443.252 72.3095 442.765 72.2104 442.526 72.1486C441.317 71.8351 440.152 71.177 439.239 70.2918C438.74 69.8096 438.391 69.3655 438.023 68.7536C437.652 68.138 437.432 67.6372 437.233 66.9632C437.158 66.7057 437.133 66.5937 437.132 66.4953C437.126 66.2042 437.287 65.9556 437.56 65.837C437.682 65.7849 437.9 65.7855 438.035 65.8387ZM453.501 64.4859C453.65 64.5437 453.758 64.6407 453.847 64.7924C453.897 64.8806 453.908 64.919 453.92 65.0717C453.945 65.4083 453.816 66.2018 453.641 66.8004C453.059 68.7803 451.723 70.4148 449.91 71.364C449.594 71.5297 448.951 71.8009 448.926 71.7814C448.922 71.7779 449.004 71.7155 449.106 71.6415C449.95 71.0394 450.708 70.2379 451.279 69.3445C451.563 68.8999 451.896 68.2284 452.071 67.7461C452.358 66.9506 452.517 66.1899 452.573 65.322C452.6 64.9177 452.625 64.821 452.743 64.6786C452.931 64.4533 453.226 64.3781 453.501 64.4859ZM446.363 72.9542C446.463 72.9573 446.611 72.9581 446.694 72.9567L446.844 72.9573L447.128 76.2166C447.444 79.8396 447.431 79.6082 447.31 79.8257C447.055 80.2875 446.39 80.2809 446.124 79.8177L446.062 79.7108L445.474 73.0776L445.67 73.0467C445.779 73.0292 445.919 73.0031 445.982 72.9897C446.148 72.9535 446.167 72.9518 446.363 72.9542Z" fill="black"/>
<path d="M467.203 62.4587C465.997 62.6474 464.793 63.1334 463.802 63.8292C462.489 64.7524 461.422 66.1129 460.837 67.6084C460.557 68.3245 460.361 69.1732 460.296 69.9492C460.237 70.6677 460.226 70.505 460.589 74.6716C460.961 78.9359 460.913 78.548 461.102 78.8643C461.269 79.1433 461.522 79.3574 461.824 79.4708C462.047 79.5556 462.19 79.5745 462.453 79.5495C462.725 79.5257 462.855 79.4827 463.086 79.3422C463.215 79.2639 463.273 79.2115 463.412 79.0437C463.6 78.8164 463.692 78.627 463.744 78.3506L463.773 78.1943L463.202 71.536L468.86 71.039C472.677 70.7037 474.544 70.5318 474.601 70.5131C474.927 70.4055 474.948 69.927 474.632 69.805L474.544 69.7714L463.132 70.7738L463.131 70.6203C463.126 69.1845 463.445 67.9113 464.102 66.7523C464.415 66.1968 464.98 65.4615 465.405 65.0518C466.338 64.1542 467.397 63.547 468.615 63.2094C468.86 63.1406 468.9 63.1351 469.027 63.1437C471.211 63.3104 473.223 64.4556 474.522 66.2664C474.719 66.5387 475.061 67.1253 475.204 67.4279C475.446 67.9426 475.619 68.4554 475.762 69.0733C475.831 69.3726 475.831 69.3824 476.179 73.2429C476.571 77.5803 476.52 77.177 476.705 77.4917C477.086 78.1399 477.92 78.38 478.587 78.0337C478.879 77.8819 479.145 77.5828 479.261 77.2691C479.399 76.9044 479.418 77.281 479.052 73.089C478.711 69.1689 478.711 69.1708 478.569 68.5705C478.225 67.1192 477.537 65.842 476.514 64.7497C476.219 64.4348 475.503 63.8259 475.144 63.5836C473.861 62.721 472.389 62.2415 470.856 62.1851C470.271 62.1636 469.474 62.2296 468.967 62.3412C468.881 62.3586 468.775 62.3679 468.691 62.3654C468.295 62.3451 467.671 62.3861 467.203 62.4587ZM466.079 63.5287C466.076 63.533 465.99 63.5957 465.889 63.6656C465.268 64.1024 464.719 64.6215 464.217 65.2448C463.66 65.94 463.249 66.6518 462.936 67.4713C462.588 68.3826 462.435 69.1348 462.376 70.2393C462.366 70.455 462.395 70.8327 462.691 74.3392L463.016 78.2018L462.965 78.3382C462.906 78.503 462.802 78.6323 462.664 78.7134C462.575 78.7645 462.533 78.7761 462.386 78.789C462.228 78.8029 462.199 78.7995 462.078 78.751C461.923 78.6918 461.816 78.5968 461.726 78.4431L461.667 78.3399L461.338 74.5664C461.031 71.0451 461.01 70.7731 461.019 70.4965C461.071 68.8271 461.583 67.3655 462.58 66.0447C463.289 65.1037 464.318 64.2804 465.383 63.7967C465.729 63.6383 466.111 63.4924 466.079 63.5287ZM471.992 63.0803C472.958 63.2672 473.886 63.6527 474.702 64.2036C476.327 65.302 477.447 66.9551 477.867 68.8765C477.974 69.3637 478.027 69.8831 478.326 73.3795L478.621 76.8309L478.57 76.9673C478.512 77.1281 478.412 77.2511 478.27 77.3385C478.178 77.3939 478.142 77.4049 477.991 77.4181C477.845 77.431 477.8 77.4271 477.705 77.392C477.547 77.3331 477.433 77.2386 477.347 77.0945L477.272 76.9691L476.926 73.1379C476.681 70.4072 476.571 69.2564 476.544 69.1326C476.414 68.5333 476.308 68.1604 476.144 67.7217C475.412 65.7686 473.929 64.1237 472.079 63.2125C471.728 63.0384 471.74 63.0453 471.765 63.043C471.776 63.0401 471.877 63.0569 471.992 63.0803Z" fill="black"/>
<path d="M490.62 60.3997C488.799 60.6975 487.194 61.5458 485.946 62.869C484.491 64.4154 483.687 66.4267 483.674 68.5536C483.671 68.8356 483.715 69.3795 483.998 72.6251C484.318 76.2989 484.324 76.3752 484.376 76.5243C484.522 76.9528 484.886 77.3129 485.304 77.4436C486.023 77.6701 486.793 77.2912 487.065 76.5816C487.194 76.2453 487.209 76.5827 486.888 72.8302L486.6 69.4806L494.113 68.8108L494.184 68.7632C494.225 68.7379 494.28 68.6818 494.309 68.6379C494.406 68.4955 494.362 68.2431 494.225 68.137C494.108 68.0468 494.323 68.0338 490.291 68.388L486.544 68.7172L486.54 68.6053C486.517 68.0339 486.595 67.2784 486.736 66.671C487.368 63.9874 489.441 61.8351 492.066 61.1395C492.323 61.0716 492.352 61.0711 492.794 61.1268C494.185 61.2981 495.482 61.8619 496.578 62.7724C497.179 63.2732 497.607 63.74 498.024 64.3575C498.298 64.7589 498.535 64.941 498.893 65.0239C499.111 65.0717 499.307 65.0683 499.506 65.0095C499.968 64.8723 500.297 64.5203 500.407 64.0418C500.438 63.9051 500.44 63.8457 500.424 63.6561C500.391 63.2846 500.288 63.0868 499.924 62.7011C498.828 61.5384 497.425 60.7199 495.893 60.3502C494.779 60.0816 493.602 60.053 492.493 60.2646C492.287 60.3025 492.204 60.3098 492.001 60.3059C491.688 60.2999 490.915 60.3521 490.62 60.3997ZM489.28 61.6207C487.495 62.8788 486.248 64.8797 485.897 67.0501C485.827 67.4779 485.802 67.7677 485.778 68.3412C485.773 68.4677 485.865 69.6299 486.094 72.3425L486.415 76.1659L486.374 76.2798C486.318 76.4345 486.231 76.5466 486.093 76.6395C485.984 76.712 485.966 76.7176 485.794 76.7327C485.647 76.7456 485.593 76.7425 485.516 76.7138C485.39 76.6677 485.22 76.5309 485.148 76.4151L485.088 76.3219L484.752 72.4702C484.485 69.4044 484.419 68.5788 484.424 68.4207C484.466 67.43 484.627 66.6396 484.96 65.8026C485.252 65.0657 485.604 64.4674 486.118 63.8331C486.855 62.9212 487.715 62.2447 488.755 61.7554C488.985 61.6466 489.419 61.4745 489.477 61.4675C489.492 61.4641 489.404 61.5329 489.28 61.6207ZM495.516 61.0472C496.462 61.2439 497.418 61.6604 498.248 62.2415C498.533 62.441 499.027 62.8607 499.272 63.113C499.62 63.4686 499.686 63.5751 499.683 63.7723C499.679 64.0584 499.447 64.2758 499.15 64.2743C498.959 64.2733 498.81 64.1821 498.697 64.0009C498.597 63.8382 498.267 63.4003 498.09 63.1952C497.575 62.5981 496.956 62.0516 496.315 61.6311C496.059 61.4625 495.626 61.2208 495.334 61.0809C495.079 60.9596 495.082 60.9573 495.516 61.0472Z" fill="black"/>
<path d="M512.358 58.4822C510.384 58.7856 508.765 59.6509 507.424 61.1222C507.046 61.5376 506.623 62.1284 506.339 62.64C505.661 63.8679 505.32 65.1528 505.287 66.6038C505.278 67.0163 505.353 67.8707 505.435 68.2753C505.82 70.2234 506.753 71.8338 508.227 73.0874C508.931 73.6895 509.614 74.1043 510.464 74.4493C511.516 74.875 512.51 75.0577 513.684 75.0431C514.036 75.0379 514.735 74.9627 515.079 74.8931C515.21 74.8657 515.341 74.8503 515.405 74.8525C515.87 74.8767 516.619 74.813 517.179 74.7027C519.579 74.2337 521.646 72.7046 522.816 70.5351C524.4 67.5963 524.084 63.9714 522.02 61.3551C521.653 60.8909 521.292 60.5226 520.787 60.1039C519.394 58.9458 517.715 58.3032 515.883 58.2316C515.318 58.2084 514.507 58.2737 514.011 58.3823C513.906 58.4053 513.796 58.413 513.605 58.4081C513.344 58.4034 512.579 58.449 512.358 58.4822ZM514.207 59.2043C516.416 59.4201 518.419 60.6292 519.679 62.5064C520.217 63.3102 520.588 64.2036 520.799 65.1958C520.883 65.5943 520.968 66.5739 520.953 66.9652C520.895 68.4362 520.485 69.7292 519.696 70.9352C519.485 71.2591 518.94 71.9178 518.664 72.1844C517.738 73.0734 516.648 73.6992 515.463 74.0181L515.216 74.0851L514.962 74.0641C513.274 73.9208 511.631 73.1568 510.41 71.9461C509.346 70.8929 508.652 69.6259 508.319 68.1243C508.247 67.8017 508.156 66.9447 508.153 66.5766C508.147 65.0266 508.583 63.5658 509.438 62.289C509.641 61.9855 510.046 61.4868 510.296 61.2285C511.222 60.2803 512.407 59.5831 513.668 59.2438C513.936 59.171 513.899 59.1743 514.207 59.2043ZM511.04 59.6166C510.393 60.0713 509.887 60.5276 509.421 61.0689C508.151 62.5518 507.471 64.3177 507.4 66.3138C507.392 66.5371 507.402 66.743 507.447 67.2553C507.508 67.9553 507.548 68.1921 507.694 68.7309C508.127 70.336 509.004 71.7386 510.245 72.8195C510.871 73.3654 511.449 73.7461 512.152 74.0803C512.28 74.14 512.376 74.1907 512.364 74.1917C512.314 74.1962 511.772 74.0823 511.554 74.0206C509.849 73.5399 508.419 72.5209 507.391 71.0567C507.245 70.8489 506.965 70.379 506.852 70.1544C505.787 68.0178 505.772 65.4834 506.814 63.3627C507.659 61.6394 509.137 60.292 510.903 59.6345C511.114 59.5568 511.13 59.5535 511.04 59.6166ZM517.129 59.1486C517.654 59.2601 518.313 59.482 518.784 59.7086C520.606 60.5849 522.018 62.1808 522.66 64.0905C522.859 64.6818 522.972 65.2315 523.03 65.8963C523.122 66.9599 523.014 67.9249 522.694 68.9125C522.006 71.0357 520.372 72.7849 518.338 73.5744C517.99 73.7094 517.984 73.7079 518.209 73.5483C519.102 72.9122 519.891 72.0647 520.47 71.1253C521.262 69.8401 521.68 68.3889 521.709 66.8299C521.716 66.455 521.624 65.4661 521.547 65.1005C521.359 64.1852 521.061 63.3858 520.622 62.6009C519.827 61.1793 518.533 59.9572 517.069 59.2406C516.935 59.1755 516.812 59.1154 516.795 59.1051C516.748 59.0777 516.87 59.0945 517.129 59.1486Z" fill="black"/>
<path d="M549.823 42.6586L550.232 42.6227L553.843 84.0575L553.433 84.0935L549.823 42.6586Z" fill="black"/>
<path d="M602.58 40.1193C602.251 40.1791 601.94 40.2605 601.66 40.3592C600.283 40.8458 599.145 41.8604 598.497 43.18C597.831 44.5342 597.729 46.104 598.214 47.5339C598.65 48.8234 599.525 49.8998 600.704 50.5993C600.878 50.7034 601.131 50.8324 601.146 50.8256C601.151 50.8241 601.561 49.9408 602.055 48.8646C602.55 47.7882 602.974 46.8783 602.996 46.8432C603.208 46.5109 603.665 46.3989 604.017 46.5934C604.181 46.6839 604.13 46.6155 605.468 48.5493C606.147 49.5313 606.704 50.3362 606.707 50.3393C606.721 50.3524 607.059 50.0886 607.246 49.9164C607.685 49.5133 608.061 49.0428 608.358 48.524C608.614 48.0774 608.834 47.5123 608.951 47.0016C609.178 46.0151 609.14 44.9835 608.842 44.0209C608.285 42.2251 606.879 40.8209 605.096 40.2804C604.634 40.141 604.131 40.0614 603.61 40.0443C603.439 40.0383 602.746 40.0892 602.58 40.1193Z" fill="black"/>
<path d="M595.405 55.9827C594.022 56.1881 592.805 56.8739 591.911 57.9521C591.204 58.8052 590.763 59.8459 590.641 60.9535C590.577 61.5335 590.609 62.2079 590.728 62.7564C590.999 64.0195 591.646 65.1093 592.612 65.927C593.388 66.5856 594.299 67.0116 595.286 67.1767C595.774 67.2586 596.179 67.2739 596.69 67.229C597.191 67.1849 597.558 67.1075 598.018 66.9488C599.561 66.4167 600.802 65.2163 601.405 63.6732C601.694 62.9297 601.828 62.105 601.784 61.3179L601.772 61.1013L599.629 61.2895C597.88 61.4421 597.472 61.4758 597.404 61.4696C597.165 61.4475 596.946 61.3088 596.82 61.1C596.755 60.9908 596.727 60.9116 596.707 60.7962C596.691 60.6982 596.701 60.5648 596.73 60.4661C596.741 60.4287 597.156 59.5173 597.651 58.441C598.146 57.3635 598.551 56.4774 598.551 56.4708C598.55 56.4642 598.502 56.4375 598.445 56.4116C597.722 56.0907 596.949 55.9277 596.161 55.9284C595.974 55.9283 595.585 55.957 595.405 55.9827Z" fill="black"/>
<path d="M612.658 54.4671C611.92 54.5772 611.224 54.8261 610.603 55.2011C610.406 55.32 610.241 55.4306 610.242 55.4427C610.242 55.4471 610.785 56.2345 611.448 57.1936C612.112 58.1516 612.673 58.9662 612.696 59.0039C612.768 59.1213 612.788 59.1837 612.8 59.3427C612.814 59.505 612.8 59.5935 612.738 59.737C612.685 59.8566 612.555 60.0061 612.445 60.0732C612.267 60.1816 612.499 60.1535 610.051 60.3719L607.871 60.5656L607.895 60.7579C608.079 62.2153 608.77 63.4957 609.877 64.4301C610.786 65.1954 611.93 65.656 613.101 65.7288C613.401 65.7467 613.599 65.7436 613.929 65.7146C614.105 65.7003 614.314 65.6753 614.394 65.6605C615.58 65.4436 616.589 64.9098 617.428 64.0584C617.591 63.8928 617.892 63.5283 618.019 63.3426C618.673 62.3893 619.004 61.366 619.04 60.1864C619.044 60.0535 619.038 59.9348 619.008 59.5872C618.977 59.2397 618.963 59.1217 618.936 58.9915C618.712 57.9142 618.251 57.0003 617.536 56.2203C616.566 55.1622 615.207 54.5116 613.784 54.4234C613.439 54.4029 612.971 54.4208 612.658 54.4671Z" fill="black"/>
<path d="M610.263 71.7455C609.396 71.8747 608.69 72.3797 608.312 73.1398C608.14 73.4851 608.044 73.8968 608.036 74.3227C608.033 74.4843 608.08 74.9275 608.117 75.0756C608.361 76.0605 609.041 76.7696 609.96 76.9971L610.087 77.029L611.445 76.9098L611.538 76.8673C611.868 76.7169 612.137 76.469 612.27 76.1933L612.305 76.1217L612.367 76.8288L612.895 76.7802L613.422 76.7306L613.175 73.8912L610.354 74.1335L610.446 75.1859L611.953 75.0535L611.911 75.1511C611.723 75.6006 611.28 75.8748 610.699 75.9005C610.409 75.9127 610.173 75.8583 609.953 75.7285C609.536 75.4824 609.282 74.9435 609.291 74.3285C609.304 73.6315 609.665 73.1303 610.278 72.9615C610.409 72.9257 610.686 72.9013 610.822 72.9138C611.213 72.9501 611.521 73.123 611.726 73.4186L611.76 73.4687L612.419 73.4108C612.782 73.3789 613.078 73.3507 613.078 73.3474C613.078 73.3452 613.049 73.2759 613.015 73.1939C612.762 72.5964 612.287 72.1333 611.681 71.8949C611.333 71.7587 611.009 71.7043 610.602 71.7147C610.503 71.7178 610.418 71.7209 610.411 71.7225C610.406 71.723 610.339 71.7333 610.263 71.7455Z" fill="black"/>
<path d="M581.504 79.5399L582.739 79.4315L582.449 76.0513L583.875 77.8846L583.939 77.8756L584.003 77.8678L584.543 76.8516C584.839 76.2932 585.084 75.832 585.089 75.8271C585.093 75.8223 585.162 76.5785 585.243 77.5081L585.391 79.1985L586.625 79.0901L586.177 73.9487L584.773 74.072L584.272 74.9997C583.997 75.5099 583.768 75.9255 583.765 75.9225C583.76 75.9207 583.465 75.5489 583.108 75.0975L582.458 74.2764L581.758 74.3368L581.057 74.3985L581.504 79.5399Z" fill="black"/>
<path d="M588.649 78.9123L592.14 78.6001L592.091 78.0046L592.042 77.4102L589.779 77.609L589.709 76.8087L591.766 76.628L591.662 75.4331L589.605 75.6138L589.539 74.8573L591.796 74.6536L591.693 73.4696L588.201 73.7708L588.649 78.9123Z" fill="black"/>
<path d="M593.242 74.5321L594.616 74.4114L594.96 78.3579L596.194 78.2495L595.85 74.3029L597.236 74.1812L597.132 72.9863L593.137 73.3372L593.242 74.5321Z" fill="black"/>
<path d="M599.756 72.7856C599.752 72.8036 599.445 73.9695 599.075 75.3784C598.704 76.7874 598.394 77.9668 598.386 77.9984L598.371 78.0583L599.677 77.9436L599.764 77.5913C599.811 77.3971 599.873 77.1498 599.898 77.0426L599.947 76.8483L601.844 76.6816L602.07 77.1953L602.295 77.7081L602.948 77.654C603.567 77.6018 603.601 77.5978 603.595 77.5806C603.586 77.5559 601.352 72.6995 601.329 72.653L601.311 72.6191L599.765 72.755L599.756 72.7856ZM600.997 74.7633L601.331 75.5227L600.79 75.5702C600.362 75.6078 600.25 75.6143 600.254 75.6029C600.255 75.5962 600.346 75.2303 600.454 74.7911C600.56 74.352 600.651 73.995 600.655 73.998C600.658 74.001 600.813 74.3453 600.997 74.7633Z" fill="black"/>
<path d="M615.715 73.9188C615.335 75.364 615.023 76.5567 615.02 76.5714L615.017 76.596L615.669 76.5365L616.32 76.476L616.587 75.3865L618.484 75.2199L618.673 75.6474C618.776 75.8835 618.878 76.1154 618.9 76.1643L618.94 76.2514L619.588 76.1944C620.055 76.1534 620.237 76.1341 620.236 76.1254C620.235 76.1188 619.722 74.9985 619.095 73.6352L617.955 71.157L616.405 71.2932L615.715 73.9188ZM617.634 73.2929L617.97 74.0555L617.701 74.0824C617.552 74.0966 617.31 74.1179 617.162 74.1298L616.893 74.1501L617.091 73.3407C617.199 72.8948 617.29 72.53 617.294 72.5297C617.297 72.5294 617.45 72.8728 617.634 73.2929Z" fill="black"/>
<path d="M620.694 72.1205L622.069 71.9997L622.413 75.9463L623.647 75.8379L623.303 71.8913L624.689 71.7696L624.584 70.5747L620.59 70.9256L620.694 72.1205Z" fill="black"/>
<path d="M626.732 75.5669L630.223 75.2547L630.174 74.6591L630.124 74.0648L627.862 74.2635L627.792 73.4633L629.849 73.2826L629.745 72.0876L627.688 72.2683L627.622 71.5119L629.879 71.3081L629.776 70.1242L626.284 70.4254L626.732 75.5669Z" fill="black"/>
<path d="M654.641 33.4508L655.05 33.4148L658.661 74.8496L658.251 74.8856L654.641 33.4508Z" fill="black"/>
<path d="M685.179 43.3084C684.609 43.4667 684.208 43.9058 684.107 44.4861C684.068 44.7023 684.108 45.0239 684.215 45.3829C684.44 46.1433 684.7 46.741 685.089 47.3866C685.678 48.3653 686.408 49.1621 687.333 49.8334C688.742 50.8602 690.4 51.3923 692.161 51.3854L692.437 51.3848L692.721 54.652C692.907 56.7871 693.018 57.9634 693.036 58.0445C693.156 58.5246 693.472 58.8987 693.913 59.0708C694.213 59.1902 694.529 59.2077 694.821 59.121C695.365 58.959 695.73 58.5507 695.852 57.9725L695.884 57.8239L695.31 51.1304L695.44 51.1052C695.869 51.0281 695.993 51.0015 696.204 50.9494C698.444 50.3803 700.317 48.9135 701.426 46.8518C701.935 45.9107 702.26 44.832 702.371 43.7387C702.407 43.373 702.406 43.2431 702.364 43.0576C702.223 42.4632 701.784 42.0388 701.195 41.929C701.021 41.897 700.668 41.928 700.501 41.99C700.133 42.1266 699.835 42.405 699.665 42.7726C699.598 42.9164 699.556 43.1467 699.54 43.4555C699.423 45.69 698.363 47.7277 696.603 49.096C695.876 49.6602 694.992 50.1024 694.077 50.3561L693.821 50.4279L693.601 50.4097C691.001 50.1909 688.7 48.612 687.544 46.2528C687.258 45.6711 687.073 45.1456 686.93 44.5139C686.902 44.3923 686.857 44.2366 686.83 44.1681C686.598 43.6033 686.05 43.2476 685.452 43.2745C685.351 43.2794 685.228 43.2942 685.179 43.3084ZM685.749 44.0778C686.009 44.1792 686.111 44.3258 686.212 44.7523C686.576 46.2709 687.255 47.5332 688.325 48.6765C688.584 48.9532 689.316 49.5725 689.655 49.7989C689.967 50.0079 690.486 50.3031 690.784 50.4386C690.893 50.4881 690.978 50.5318 690.975 50.536C690.966 50.5486 690.479 50.4495 690.241 50.3877C689.032 50.0743 687.866 49.4162 686.954 48.531C686.455 48.0488 686.105 47.6047 685.737 46.9928C685.366 46.3771 685.146 45.8764 684.947 45.2023C684.872 44.9449 684.847 44.8329 684.846 44.7344C684.84 44.4434 685.001 44.1948 685.275 44.0762C685.397 44.0241 685.614 44.0247 685.749 44.0778ZM701.216 42.7251C701.365 42.7829 701.472 42.8798 701.561 43.0316C701.612 43.1198 701.623 43.1582 701.634 43.3109C701.66 43.6475 701.53 44.441 701.355 45.0396C700.774 47.0195 699.437 48.6539 697.624 49.6032C697.309 49.7688 696.665 50.0401 696.64 50.0206C696.636 50.017 696.718 49.9547 696.821 49.8806C697.664 49.2785 698.422 48.4771 698.994 47.5836C699.278 47.1391 699.61 46.4676 699.786 45.9852C700.072 45.1897 700.231 44.4291 700.288 43.5612C700.315 43.1569 700.339 43.0602 700.457 42.9178C700.645 42.6924 700.94 42.6173 701.216 42.7251ZM694.078 51.1934C694.177 51.1965 694.325 51.1973 694.408 51.1958L694.558 51.1965L694.842 54.4558C695.158 58.0788 695.145 57.8474 695.024 58.0649C694.769 58.5267 694.104 58.5201 693.838 58.0568L693.776 57.9499L693.189 51.3168L693.384 51.2858C693.493 51.2683 693.633 51.2423 693.696 51.2289C693.862 51.1926 693.881 51.1909 694.078 51.1934Z" fill="black"/>
<path d="M714.917 40.6979C713.711 40.8866 712.507 41.3726 711.516 42.0684C710.203 42.9915 709.136 44.3521 708.551 45.8476C708.272 46.5637 708.075 47.4124 708.011 48.1884C707.951 48.9068 707.941 48.7442 708.304 52.9107C708.675 57.175 708.628 56.7871 708.817 57.1035C708.983 57.3825 709.237 57.5966 709.538 57.71C709.761 57.7948 709.905 57.8137 710.167 57.7887C710.439 57.7648 710.569 57.7218 710.8 57.5814C710.929 57.5031 710.987 57.4507 711.126 57.2829C711.314 57.0555 711.406 56.8661 711.458 56.5897L711.487 56.4335L710.917 49.7752L716.574 49.2782C720.392 48.9428 722.258 48.771 722.315 48.7522C722.642 48.6447 722.662 48.1661 722.346 48.0441L722.258 48.0105L710.846 49.013L710.845 48.8595C710.84 47.4236 711.159 46.1505 711.816 44.9914C712.129 44.4359 712.695 43.7006 713.12 43.2909C714.052 42.3934 715.111 41.7861 716.329 41.4486C716.574 41.3798 716.615 41.3743 716.742 41.3828C718.925 41.5496 720.938 42.6948 722.236 44.5055C722.433 44.7779 722.776 45.3644 722.919 45.6671C723.16 46.1818 723.333 46.6946 723.476 47.3125C723.545 47.6118 723.546 47.6216 723.894 51.4821C724.285 55.8195 724.235 55.4161 724.42 55.7309C724.801 56.3791 725.634 56.6191 726.302 56.2728C726.594 56.1211 726.859 55.8219 726.976 55.5083C727.113 55.1436 727.132 55.5202 726.767 51.3282C726.425 47.408 726.425 47.41 726.284 46.8097C725.94 45.3584 725.251 44.0811 724.229 42.9888C723.933 42.674 723.217 42.065 722.858 41.8227C721.576 40.9601 720.103 40.4807 718.571 40.4242C717.986 40.4027 717.189 40.4688 716.681 40.5803C716.595 40.5978 716.489 40.6071 716.406 40.6046C716.009 40.5842 715.385 40.6253 714.917 40.6979ZM713.794 41.7679C713.79 41.7721 713.704 41.8349 713.603 41.9048C712.982 42.3415 712.433 42.8607 711.931 43.484C711.374 44.1792 710.964 44.891 710.65 45.7105C710.302 46.6218 710.15 47.3739 710.091 48.4785C710.08 48.6942 710.109 49.0719 710.405 52.5784L710.73 56.4409L710.68 56.5773C710.62 56.7421 710.517 56.8714 710.378 56.9526C710.289 57.0037 710.247 57.0153 710.101 57.0281C709.943 57.042 709.913 57.0387 709.792 56.9902C709.637 56.9309 709.53 56.8359 709.441 56.6822L709.381 56.5791L709.053 52.8055C708.746 49.2842 708.724 49.0123 708.733 48.7357C708.786 47.0662 709.298 45.6047 710.294 44.2838C711.004 43.3428 712.032 42.5196 713.098 42.0359C713.444 41.8775 713.825 41.7316 713.794 41.7679ZM719.706 41.3194C720.673 41.5064 721.6 41.8918 722.416 42.4427C724.042 43.5412 725.161 45.1943 725.581 47.1157C725.688 47.6028 725.741 48.1222 726.04 51.6186L726.335 55.0701L726.285 55.2065C726.227 55.3672 726.127 55.4903 725.984 55.5776C725.892 55.633 725.856 55.6441 725.706 55.6573C725.559 55.6702 725.514 55.6662 725.42 55.6312C725.261 55.5722 725.148 55.4778 725.061 55.3337L724.986 55.2082L724.641 51.3771C724.395 48.6463 724.285 47.4956 724.259 47.3718C724.129 46.7724 724.022 46.3996 723.858 45.9609C723.126 44.0077 721.643 42.3629 719.793 41.4516C719.442 41.2776 719.454 41.2844 719.479 41.2822C719.491 41.2792 719.591 41.296 719.706 41.3194Z" fill="black"/>
<path d="M738.334 38.6388C736.513 38.9367 734.908 39.785 733.661 41.1082C732.206 42.6545 731.401 44.6658 731.388 46.7928C731.386 47.0747 731.429 47.6186 731.712 50.8643C732.032 54.5381 732.039 54.6143 732.091 54.7634C732.237 55.1919 732.601 55.552 733.018 55.6828C733.738 55.9092 734.507 55.5303 734.78 54.8208C734.908 54.4844 734.924 54.8219 734.603 51.0694L734.315 47.7198L741.827 47.05L741.899 47.0023C741.939 46.9771 741.995 46.921 742.024 46.8771C742.12 46.7346 742.077 46.4823 741.939 46.3762C741.823 46.286 742.037 46.273 738.006 46.6272L734.258 46.9564L734.254 46.8444C734.231 46.2731 734.309 45.5176 734.451 44.9102C735.082 42.2265 737.155 40.0743 739.78 39.3787C740.037 39.3108 740.066 39.3102 740.508 39.3659C741.899 39.5373 743.196 40.1011 744.292 41.0116C744.894 41.5124 745.321 41.9792 745.738 42.5966C746.012 42.9981 746.25 43.1802 746.607 43.2631C746.825 43.3109 747.021 43.3075 747.22 43.2486C747.682 43.1115 748.011 42.7595 748.121 42.2809C748.152 42.1442 748.154 42.0849 748.138 41.8952C748.106 41.5238 748.003 41.3259 747.639 40.9402C746.542 39.7776 745.14 38.9591 743.607 38.5894C742.493 38.3208 741.317 38.2921 740.208 38.5038C740.001 38.5417 739.918 38.5489 739.716 38.5451C739.402 38.5391 738.629 38.5912 738.334 38.6388ZM736.994 39.8598C735.209 41.118 733.962 43.1189 733.611 45.2893C733.541 45.717 733.516 46.0069 733.492 46.5804C733.488 46.7068 733.579 47.8691 733.808 50.5816L734.129 54.4051L734.089 54.519C734.032 54.6737 733.945 54.7857 733.807 54.8786C733.699 54.9512 733.68 54.9568 733.508 54.9719C733.362 54.9848 733.307 54.9817 733.231 54.9529C733.104 54.9069 732.935 54.7701 732.862 54.6543L732.802 54.5611L732.466 50.7093C732.199 47.6436 732.133 46.818 732.139 46.6599C732.181 45.6691 732.341 44.8788 732.674 44.0417C732.966 43.3049 733.318 42.7066 733.832 42.0723C734.569 41.1604 735.43 40.4839 736.47 39.9946C736.699 39.8857 737.133 39.7137 737.191 39.7066C737.206 39.7033 737.119 39.7721 736.994 39.8598ZM743.23 39.2864C744.176 39.483 745.132 39.8995 745.962 40.4807C746.248 40.6802 746.741 41.0999 746.987 41.3521C747.334 41.7077 747.4 41.8143 747.398 42.0115C747.394 42.2975 747.162 42.5149 746.864 42.5135C746.674 42.5125 746.524 42.4212 746.411 42.24C746.311 42.0774 745.982 41.6394 745.804 41.4343C745.29 40.8373 744.671 40.2908 744.029 39.8703C743.774 39.7017 743.341 39.4599 743.048 39.3201C742.793 39.1987 742.797 39.1964 743.23 39.2864Z" fill="black"/>
<path d="M760.072 36.7214C758.099 37.0248 756.479 37.8901 755.138 39.3614C754.76 39.7768 754.337 40.3676 754.053 40.8791C753.375 42.107 753.034 43.392 753.001 44.8429C752.993 45.2555 753.067 46.1099 753.149 46.5145C753.534 48.4626 754.468 50.073 755.941 51.3266C756.645 51.9287 757.328 52.3435 758.179 52.6884C759.23 53.1142 760.224 53.2968 761.399 53.2823C761.75 53.277 762.449 53.2018 762.793 53.1322C762.925 53.1049 763.055 53.0895 763.12 53.0917C763.584 53.1159 764.333 53.0521 764.893 52.9419C767.293 52.4729 769.36 50.9437 770.53 48.7743C772.115 45.8355 771.799 42.2105 769.734 39.5943C769.367 39.13 769.006 38.7617 768.501 38.3431C767.108 37.1849 765.429 36.5424 763.598 36.4708C763.032 36.4476 762.221 36.5129 761.725 36.6214C761.621 36.6445 761.51 36.6522 761.319 36.6473C761.059 36.6426 760.293 36.6882 760.072 36.7214ZM761.921 37.4435C764.131 37.6592 766.133 38.8684 767.393 40.7456C767.931 41.5494 768.303 42.4428 768.514 43.4349C768.597 43.8335 768.682 44.813 768.668 45.2044C768.609 46.6753 768.199 47.9683 767.41 49.1744C767.199 49.4983 766.654 50.157 766.378 50.4235C765.453 51.3126 764.362 51.9384 763.177 52.2572L762.93 52.3242L762.676 52.3032C760.988 52.1599 759.345 51.396 758.124 50.1852C757.06 49.132 756.367 47.8651 756.034 46.3635C755.961 46.0409 755.871 45.1839 755.868 44.8157C755.861 43.2658 756.297 41.805 757.152 40.5281C757.355 40.2246 757.761 39.726 758.01 39.4676C758.936 38.5194 760.122 37.8223 761.383 37.483C761.65 37.4102 761.614 37.4134 761.921 37.4435ZM758.754 37.8557C758.108 38.3105 757.601 38.7667 757.135 39.3081C755.865 40.7909 755.185 42.5568 755.114 44.5529C755.106 44.7762 755.117 44.9822 755.161 45.4945C755.222 46.1944 755.262 46.4313 755.408 46.9701C755.842 48.5751 756.718 49.9777 757.959 51.0587C758.586 51.6046 759.163 51.9853 759.867 52.3195C759.994 52.3792 760.09 52.4299 760.079 52.4309C760.028 52.4353 759.486 52.3214 759.269 52.2597C757.563 51.7791 756.133 50.7601 755.106 49.2959C754.959 49.0881 754.679 48.6181 754.566 48.3936C753.502 46.2569 753.487 43.7226 754.528 41.6018C755.373 39.8786 756.852 38.5311 758.618 37.8736C758.829 37.796 758.844 37.7927 758.754 37.8557ZM764.844 37.3878C765.369 37.4993 766.027 37.7212 766.498 37.9478C768.32 38.824 769.732 40.4199 770.375 42.3297C770.574 42.921 770.686 43.4707 770.744 44.1354C770.836 45.1991 770.728 46.1641 770.408 47.1517C769.72 49.2749 768.086 51.0241 766.052 51.8136C765.704 51.9485 765.698 51.9471 765.923 51.7874C766.817 51.1514 767.606 50.3039 768.185 49.3645C768.977 48.0793 769.394 46.628 769.424 45.069C769.43 44.6941 769.338 43.7053 769.261 43.3397C769.073 42.4244 768.776 41.625 768.336 40.84C767.542 39.4184 766.248 38.1963 764.784 37.4797C764.65 37.4146 764.526 37.3546 764.51 37.3442C764.463 37.3168 764.584 37.3337 764.844 37.3878Z" fill="black"/>
<path d="M797.537 20.8978L797.947 20.8618L801.557 62.2967L801.148 62.3327L797.537 20.8978Z" fill="black"/>
</svg>
