<svg width="1920" height="392" viewBox="0 0 1920 392" fill="none" xmlns="http://www.w3.org/2000/svg">
<rect x="-117.018" y="145.328" width="2199" height="199" transform="rotate(1 -117.018 145.328)" fill="black" stroke="white"/>
<path fill-rule="evenodd" clip-rule="evenodd" d="M-2.35393 264.847L-18.9556 228.552L-9.03454 228.725L-2.00635 246.91L7.22086 229.009L14.6088 247.2L22.8614 229.282L32.3722 229.448L14.3841 265.139L6.58462 247.875L-2.35393 264.847V264.847ZM58.857 265.915L50.2012 265.764L45.801 258.834L32.7798 258.651L29.4444 265.402L20.1715 265.24L40.3637 229.587L58.857 265.915V265.915ZM44.4038 254.644L39.8396 243.873L34.2414 254.469L44.4038 254.644V254.644ZM61.191 265.956L61.8022 230.936L85.378 250.977L85.7375 230.379L93.1441 230.508L92.648 266.505L69.1784 248.153L68.7332 266.088L61.191 265.956ZM134.752 267.24L135.364 232.22L156.289 232.586L156.19 238.251L143.999 238.038L143.869 245.46L153.703 245.631L153.587 252.263L143.753 252.092L143.612 260.207L156.342 260.429L156.217 267.615L134.752 267.24V267.24ZM109.221 266.795L110.138 230.805L117.139 230.927L116.636 259.736L130.806 259.983L130.681 267.169L109.221 266.795V266.795ZM160.925 267.345L161.536 232.324L182.462 232.689L182.363 238.356L170.173 238.143L170.044 245.563L179.877 245.735L179.762 252.366L169.928 252.194L169.786 260.311L182.517 260.533L182.392 267.719L160.925 267.344L160.925 267.345V267.345Z" fill="white"/>
<rect x="251.562" y="201.27" width="1" height="100" transform="rotate(1 251.562 201.27)" fill="white"/>
<path fill-rule="evenodd" clip-rule="evenodd" d="M341.605 268.417L341.988 266.778L337.17 258.588L334.666 266.651C333.538 270.39 331.637 271.064 330.34 270.923C329.043 270.783 327.993 270.06 328.995 266.786L333.5 252.297L328.906 244.815L321.907 266.897C319.532 274.376 320.978 279.453 326.858 280.965C329.443 281.716 331.82 280.934 333.972 279.444L342.36 292.868L351.369 284.212L341.605 268.417V268.417ZM379.092 225.248L398.602 224.061L394.583 237.738L384.889 238.274L382.881 245.053L392.575 244.517L389.19 255.737L379.614 256.275L377.608 262.937L387.303 262.401L383.286 275.96L363.657 277.263L379.092 225.248ZM356.035 226.726L349.006 250.454L361.622 272.057C362.695 271.488 363.308 270.205 363.558 269.387L376.609 225.439L368.568 226.004L359.771 256.281C358.518 260.371 354.84 261.364 356.376 254.577L364.074 226.279L356.035 226.726V226.726ZM389.668 262.207L385.652 275.766C389.197 275.711 397.01 274.673 399.852 274.252C402.693 273.832 407.573 271.802 410.482 267.505C413.391 263.209 413.604 257.808 412.045 252.377C410.486 246.945 409.703 244.464 409.027 242.572C408.351 240.68 407.945 236.914 412.437 236.639L422.369 235.99L411.072 274.213L422.187 273.467L433.604 235.247L440.342 234.894L444.241 221.333L412.554 223.247C407.707 223.516 403.19 225.199 400.648 228.562C398.109 231.925 394.674 239.267 397.047 245.417L399.079 250.858C400.44 254.171 404.337 260.936 389.668 262.207V262.207ZM334.905 226.004C336.16 221.796 339.505 212.809 348.598 212.967C354.622 212.955 356.924 216.402 354.162 225.754L347.631 248.081L342.697 239.77L346.593 226.326C347.844 222.352 342.658 221.675 340.783 227.634L339.028 233.36L334.905 226.004ZM360.261 275.558L358.099 277.636L324.385 219.711L326.547 217.634L360.261 275.558V275.558ZM356.057 279.597L353.894 281.673L320.18 223.75L322.342 221.673L356.057 279.597V279.597Z" fill="white"/>
<rect x="512.522" y="205.824" width="1" height="100" transform="rotate(1 512.522 205.824)" fill="white"/>
<g clip-path="url(#clip0_78_1495)">
<path d="M657.588 303.37L627.2 302.84C624.751 302.797 622.471 301.636 621.138 300.725C619.774 301.59 617.663 302.673 615.184 302.63L587.67 302.15L579.986 294.767L580.102 288.121L603.7 288.559C603.187 287.839 602.747 287.069 602.388 286.26C587.697 286.011 580.297 276.955 580.472 266.963L581.068 232.823L596.023 233.084C600.496 233.162 603.895 236.224 605.959 239.956L612.171 251.182L613.681 251.208L613.879 239.86L599.589 225.48L593.39 225.377L586.179 218.123L586.284 212.112L623.531 212.762L629.884 218.712L629.728 227.635L631.618 229.425L638.928 224.796L646.239 220.166C647.361 219.522 647.516 218.829 646.374 218.813L642.762 218.762L642.861 213.1L665.857 213.501L672.589 220.249L672.468 225.873L665.891 225.769L657.17 231.546L657.12 234.151L658.797 234.18L657.588 303.37ZM619.175 278.356C621.386 280.823 624.483 284.469 625.754 288.918L638.751 289.145L638.992 275.33L624.85 275.109C620.924 275.092 619.633 276.955 619.175 278.356Z" fill="white"/>
<path d="M596.972 257.996L596.972 257.998L600.004 258.049C599.459 260.658 597.388 262.593 594.964 262.55L587.887 262.427L587.841 265.046L595.566 265.181C599.525 265.25 602.82 261.508 602.901 256.852C602.953 253.89 601.691 251.253 599.748 249.707C601.742 248.352 603.091 245.97 603.139 243.245C603.213 238.961 600.045 235.411 596.086 235.342L583.266 235.118L582.745 264.957L582.75 264.957C582.746 265.058 582.742 265.158 582.74 265.259C582.643 270.841 587.16 275.474 592.795 275.572L602.806 275.742C602.687 276.5 602.621 277.266 602.607 278.034C602.517 283.188 604.795 287.803 608.349 290.652C607.774 290.777 607.186 290.835 606.598 290.824L582.301 290.404L582.255 293.029L606.554 293.453C612.19 293.552 616.866 289.079 616.963 283.497C617.049 278.587 613.563 274.412 608.887 273.411C608.524 274.219 608.239 275.06 608.036 275.923C611.644 276.549 614.372 279.712 614.306 283.448C614.264 285.892 613.036 288.048 611.177 289.389C607.591 287.171 605.195 282.913 605.279 278.085C605.401 271.077 610.703 265.452 617.082 265.563L637.485 265.912L637.531 263.293L616.987 262.934C610.796 262.826 605.438 267.107 603.439 273.125L592.843 272.945C588.669 272.873 585.324 269.442 585.396 265.308C585.468 261.174 588.931 257.862 593.105 257.932L596.972 257.996V257.996Z" fill="black"/>
<path d="M585.656 248.093L585.836 237.768L595.585 237.938C598.276 237.985 600.431 240.342 600.381 243.186C600.331 246.029 598.096 248.311 595.405 248.264L585.656 248.094L585.656 248.093ZM585.511 256.388L585.61 250.719L595.168 250.886C597.55 250.927 599.524 252.864 600.022 255.423L597.05 255.372L593.149 255.304C591.714 255.277 590.29 255.553 588.968 256.112C587.645 256.671 586.455 257.502 585.473 258.551L585.511 256.388V256.388Z" fill="white"/>
<path d="M615.177 255.688L615.465 239.205L592.482 216.04L588.841 215.976L588.88 213.739L621.323 214.305L621.284 216.542L615.254 216.437L631.366 231.513L647.878 221.036C649.026 220.307 650.068 219.672 649.981 218.376C649.921 217.479 649.334 217.033 646.683 216.987L644.358 216.946L644.397 214.701L663.651 215.038L663.612 217.281L662.135 217.255C660.56 217.227 659.097 217.687 657.73 218.625C656.367 219.56 653.695 221.192 651.493 222.639L632.866 234.872L632.501 255.952L637.657 256.054L637.611 258.704L605.903 258.151L605.963 255.527L615.177 255.688V255.688Z" fill="black"/>
<path d="M658.795 234.179L674.986 234.462C679.598 234.542 684.606 237.503 688.311 242.383C690.407 245.144 692.105 248.341 693.309 251.394C696.396 259.225 696.495 268.889 689.483 274.626C696.235 279.096 696.556 290.976 692.382 297.199C689.683 301.224 685.043 303.85 679.835 303.759L657.057 303.361L658.795 234.179ZM665.833 261.474C667.498 261.503 668.646 259.972 668.68 258.033L668.852 248.172L666.066 248.124L665.833 261.474ZM665.342 289.609C667.007 289.638 668.157 288.01 668.193 285.951L668.375 275.477L665.589 275.429L665.342 289.609Z" fill="white"/>
<path d="M616.885 291.007C616.098 292.041 615.099 292.952 614.017 293.583L673.037 294.614C681.184 294.756 687.93 288.277 688.071 280.191C688.193 273.243 684.394 266.95 679.711 265.361C684.446 263.977 688.459 257.992 688.577 251.235C688.714 243.372 682.195 236.843 674.054 236.701L637.214 236.058L637.168 238.662L641.207 238.733L640.287 291.415L616.885 291.007L616.885 291.007ZM669.877 279.87L669.777 285.61C669.732 288.223 669.012 289.895 667.651 290.658C666.647 291.22 664.58 291.84 661.337 291.783L657.835 291.722L658.279 266.275L661.782 266.336C665.025 266.393 667.069 267.084 668.052 267.681C669.385 268.491 670.046 270.187 670.001 272.8L669.877 279.87ZM670.36 252.198L670.264 257.75C670.219 260.278 669.5 261.895 668.14 262.632C667.137 263.175 665.07 263.774 661.827 263.717L658.325 263.656L658.754 239.04L662.257 239.101C665.5 239.158 667.545 239.827 668.528 240.406C669.862 241.19 670.524 242.831 670.48 245.358L670.36 252.198V252.198Z" fill="black"/>
</g>
<rect x="764.483" y="210.223" width="1" height="100" transform="rotate(1 764.483 210.223)" fill="white"/>
<g clip-path="url(#clip1_78_1495)">
<path d="M843.281 274.515L843.503 275.182C843.474 275.106 843.393 274.872 843.281 274.515ZM852.796 259.66C853.269 256.107 854.698 254.138 857.361 252.14C861.169 249.438 865.839 251.086 865.839 251.086L866.001 241.798C867.143 241.787 868.284 241.878 869.41 242.069L869.202 254.022C869.202 254.022 864.534 252.374 860.726 255.078C858.064 257.074 856.632 259.045 856.161 262.598C856.114 264.531 856.416 267.065 857.974 269.278C857.583 269.059 857.185 268.811 856.78 268.532C853.309 266 852.733 262.28 852.796 259.66ZM889.105 225.023C886.571 222.009 885.645 218.995 885.328 216.884L888.582 216.941C888.582 216.941 887.837 222.449 892.47 227.96L892.534 228.034C891.275 227.173 890.123 226.161 889.105 225.023V225.023ZM904.632 233.711L904.427 245.423C904.427 245.423 900.279 245.18 897.22 244.308C892.95 243.088 890.224 241.284 890.224 241.284C890.224 241.284 888.341 239.999 888.188 239.909L887.766 264.094C887.742 265.441 887.332 268.798 886.209 271.584C884.743 275.229 882.539 277.6 882.132 278.085C882.132 278.085 879.445 281.295 874.766 283.407C870.548 285.311 866.876 285.197 865.777 285.228C865.777 285.228 859.424 285.381 853.779 281.393C852.558 280.514 851.422 279.523 850.385 278.433L850.413 278.455C856.06 282.443 862.412 282.291 862.412 282.291C863.512 282.26 867.184 282.374 871.4 280.469C876.075 278.358 878.766 275.148 878.766 275.148C879.168 274.662 881.383 272.292 882.843 268.645C883.963 265.86 884.377 262.502 884.4 261.155L884.822 236.973C884.975 237.064 886.856 238.35 886.856 238.35C886.856 238.35 889.584 240.155 893.855 241.373C896.914 242.246 901.062 242.488 901.062 242.488L901.222 233.311C902.636 233.669 903.845 233.78 904.632 233.711V233.711Z" fill="#DDDDDD"/>
<path d="M901.223 233.311L901.063 242.485C901.063 242.485 896.916 242.243 893.856 241.37C889.586 240.151 886.858 238.346 886.858 238.346C886.858 238.346 884.976 237.061 884.824 236.97L884.402 261.158C884.378 262.505 883.967 265.863 882.845 268.648C881.379 272.294 879.174 274.665 878.768 275.15C878.768 275.15 876.079 278.36 871.401 280.472C867.185 282.376 863.513 282.262 862.413 282.293C862.413 282.293 856.061 282.446 850.415 278.458L850.386 278.436C849.794 277.813 849.237 277.157 848.719 276.471C846.936 274.111 845.867 271.338 845.599 270.547C845.599 270.544 845.599 270.541 845.6 270.537C845.172 269.164 844.279 265.869 844.464 262.696C844.792 257.097 846.734 253.691 847.246 252.838C848.605 250.512 850.356 248.44 852.421 246.714C854.242 245.226 856.297 244.052 858.503 243.241C860.888 242.286 863.433 241.796 866.001 241.797L865.839 251.085C865.839 251.085 861.17 249.443 857.363 252.14C854.7 254.138 853.271 256.107 852.798 259.66C852.735 262.28 853.31 265.999 856.779 268.534C857.184 268.813 857.582 269.061 857.972 269.279C858.571 270.125 859.305 270.865 860.145 271.471C863.535 273.805 866.407 274.014 870.108 272.601C872.576 271.657 874.46 269.464 875.359 267.013C875.923 265.482 875.943 263.932 875.971 262.329L876.767 216.734L885.321 216.884C885.638 218.995 886.564 222.009 889.099 225.022C890.117 226.161 891.268 227.172 892.527 228.034C892.897 228.448 894.786 230.498 897.235 231.779C898.502 232.442 899.84 232.955 901.223 233.311V233.311Z" fill="white"/>
<path d="M842.245 267.636L842.245 267.643L842.445 268.249C842.422 268.179 842.347 267.964 842.245 267.636Z" fill="#737373"/>
<path d="M858.502 243.241C856.297 244.052 854.242 245.225 852.42 246.714C850.355 248.443 848.605 250.52 847.247 252.851C846.735 253.701 844.793 257.11 844.465 262.708C844.28 265.882 845.173 269.177 845.601 270.55C845.6 270.553 845.6 270.557 845.601 270.56C845.872 271.344 846.938 274.117 848.72 276.484C849.238 277.17 849.795 277.826 850.388 278.449C848.478 277.073 846.782 275.42 845.356 273.545C843.588 271.205 842.521 268.461 842.244 267.651C842.244 267.646 842.244 267.64 842.244 267.634L842.245 267.624C841.815 266.252 840.92 262.956 841.108 259.778C841.435 254.179 843.377 250.773 843.89 249.92C845.247 247.589 846.997 245.513 849.063 243.784C850.884 242.295 852.939 241.121 855.145 240.311C856.521 239.766 857.952 239.371 859.413 239.133C861.614 238.787 863.855 238.792 866.054 239.15L866.008 241.797C863.437 241.795 860.89 242.285 858.502 243.241V243.241Z" fill="#737373"/>
<path d="M885.329 216.884L876.774 216.734L875.978 262.331C875.95 263.934 875.923 265.479 875.366 267.014C874.459 269.463 872.582 271.657 870.116 272.601C866.413 274.02 863.541 273.805 860.152 271.471C859.311 270.868 858.575 270.13 857.974 269.286C860.868 270.901 863.483 270.92 866.745 269.671C869.211 268.726 871.09 266.533 871.994 264.082C872.56 262.552 872.58 261.002 872.608 259.4L873.404 213.795L885.216 214.002C885.216 214.002 885.064 215.133 885.329 216.884ZM901.268 230.773L901.223 233.31C899.842 232.955 898.507 232.441 897.243 231.779C894.793 230.498 892.904 228.448 892.534 228.034C892.966 228.329 893.415 228.599 893.878 228.842C896.856 230.4 899.807 230.901 901.268 230.773V230.773Z" fill="#737373"/>
<path d="M884.114 303.352C884.108 303.679 884.15 304.004 884.24 304.318C884.244 304.34 884.251 304.362 884.259 304.383C884.474 305.125 884.92 305.778 885.532 306.248C886.144 306.717 886.889 306.977 887.659 306.99L887.595 310.652C885.819 310.621 884.546 310.662 882.624 309.479C880.445 308.13 879.247 305.711 879.29 303.222C879.335 300.655 880.769 298.107 883.144 296.909C884.871 296.04 886.167 296.057 887.854 296.087L887.79 299.747C886.833 299.731 885.908 300.096 885.22 300.764C884.531 301.431 884.135 302.346 884.118 303.307L884.114 303.352Z" fill="#737373"/>
<path d="M891.357 303.479C891.352 303.805 891.298 304.129 891.198 304.439C891.197 304.461 891.184 304.482 891.177 304.503C890.936 305.237 890.467 305.875 889.839 306.322C889.211 306.77 888.457 307.004 887.688 306.99L887.624 310.653C889.399 310.684 890.671 310.769 892.626 309.653C894.857 308.381 896.142 306.006 896.186 303.517C896.23 300.95 894.887 298.354 892.554 297.073C890.859 296.145 889.563 296.116 887.878 296.087L887.814 299.748C888.771 299.765 889.682 300.163 890.346 300.854C891.011 301.545 891.375 302.472 891.358 303.433L891.357 303.479Z" fill="#DDDDDD"/>
<path d="M832.07 291.79L845.431 292.023L844.132 295.691L840.63 295.63L840.384 309.751L836.088 309.676L836.335 295.555L832.006 295.479L832.07 291.79ZM867.479 292.408L867.415 296.097L871.743 296.173L871.497 310.294L875.798 310.369L876.045 296.248L879.541 296.309L880.84 292.641L867.479 292.408ZM848.265 296.279C848.677 296.285 849.081 296.17 849.427 295.946C849.773 295.722 850.046 295.4 850.21 295.021C850.374 294.642 850.422 294.222 850.348 293.816C850.275 293.409 850.083 293.033 849.797 292.736C849.51 292.439 849.143 292.234 848.74 292.147C848.338 292.059 847.919 292.094 847.536 292.245C847.153 292.397 846.823 292.66 846.589 292.999C846.354 293.339 846.225 293.741 846.218 294.154C846.213 294.429 846.263 294.701 846.363 294.957C846.463 295.212 846.613 295.445 846.803 295.642C846.993 295.84 847.22 295.997 847.471 296.107C847.722 296.216 847.991 296.274 848.265 296.279V296.279ZM845.944 309.848L850.162 309.921L850.373 297.793L846.156 297.719L845.944 309.848ZM865.574 296.475L860.641 296.389L856.315 300.582L856.46 292.23L852.27 292.157L851.947 309.952L856.177 310.026L856.258 305.39L857.595 304.209L861.599 310.115L866.122 310.194L860.322 301.558L865.574 296.475ZM905.942 302.357L911.19 297.271L906.258 297.185L901.93 301.378L902.076 293.026L897.887 292.953L897.557 310.749L901.788 310.822L901.869 306.186L903.219 305.005L907.223 310.912L911.747 310.991L905.942 302.357ZM895.075 303.495C895.005 307.516 891.656 310.72 887.595 310.649C883.535 310.578 880.299 307.259 880.37 303.238C880.44 299.217 883.789 296.013 887.849 296.083C891.91 296.154 895.145 299.475 895.075 303.497L895.075 303.495ZM891.329 303.429C891.342 302.713 891.143 302.009 890.757 301.407C890.371 300.805 889.815 300.331 889.161 300.045C888.507 299.76 887.783 299.675 887.08 299.803C886.378 299.93 885.73 300.264 885.216 300.762C884.703 301.259 884.348 301.898 884.197 302.598C884.045 303.298 884.104 304.027 884.365 304.694C884.627 305.36 885.079 305.934 885.666 306.342C886.252 306.75 886.946 306.975 887.659 306.987C888.615 307.004 889.539 306.639 890.227 305.972C890.915 305.305 891.312 304.392 891.329 303.432L891.329 303.429Z" fill="white"/>
</g>
<rect x="981.451" y="214.01" width="1" height="100" transform="rotate(1 981.451 214.01)" fill="white"/>
<g clip-path="url(#clip2_78_1495)">
<path d="M1049.33 288.939C1049.62 288.485 1050.08 288.464 1050.71 288.877C1064.96 297.439 1080.54 301.868 1097.47 302.163C1108.75 302.36 1119.92 300.463 1130.99 296.47C1131.28 296.361 1131.7 296.196 1132.25 295.976C1132.81 295.757 1133.2 295.591 1133.43 295.481C1134.3 295.152 1134.97 295.336 1135.45 296.032C1135.93 296.728 1135.76 297.356 1134.94 297.915C1133.89 298.642 1132.55 299.479 1130.92 300.425C1125.92 303.262 1120.36 305.43 1114.23 306.928C1108.1 308.426 1102.12 309.125 1096.31 309.023C1087.33 308.867 1078.87 307.156 1070.92 303.893C1062.97 300.63 1055.88 296.105 1049.65 290.32C1049.31 290.028 1049.14 289.738 1049.14 289.451C1049.15 289.279 1049.21 289.109 1049.33 288.939ZM1075.75 264.889C1075.81 260.934 1076.85 257.569 1078.86 254.795C1080.86 252.021 1083.58 249.947 1087 248.573C1090.13 247.309 1093.98 246.43 1098.53 245.936C1100.09 245.791 1102.63 245.606 1106.14 245.381L1106.17 243.919C1106.23 240.251 1105.87 237.779 1105.09 236.504C1103.91 234.764 1102.03 233.871 1099.44 233.825L1098.75 233.813C1096.84 233.952 1095.19 234.525 1093.79 235.533C1092.39 236.541 1091.48 237.958 1091.04 239.785C1090.79 240.927 1090.2 241.577 1089.28 241.732L1079.37 240.355C1078.39 240.109 1077.91 239.585 1077.93 238.782C1077.93 238.61 1077.96 238.41 1078.03 238.182C1079.09 233.098 1081.56 229.357 1085.43 226.959C1089.3 224.561 1093.8 223.263 1098.93 223.066L1101.09 223.104C1107.65 223.219 1112.75 224.999 1116.37 228.445C1116.94 229.031 1117.46 229.658 1117.94 230.321C1118.42 230.989 1118.8 231.583 1119.07 232.104C1119.35 232.625 1119.6 233.375 1119.81 234.353C1120.03 235.332 1120.19 236.008 1120.29 236.383C1120.4 236.757 1120.48 237.561 1120.51 238.795C1120.55 240.028 1120.56 240.759 1120.56 240.988L1120.2 261.795C1120.17 263.285 1120.36 264.65 1120.77 265.89C1121.18 267.13 1121.59 268.026 1121.98 268.577C1122.37 269.129 1123.02 270.014 1123.92 271.234C1124.26 271.756 1124.42 272.217 1124.41 272.619C1124.41 273.077 1124.17 273.474 1123.7 273.81C1118.85 277.854 1116.22 280.044 1115.81 280.381C1115.11 280.885 1114.28 280.927 1113.31 280.509C1112.51 279.807 1111.82 279.136 1111.22 278.495C1110.63 277.854 1110.21 277.388 1109.95 277.096C1109.7 276.805 1109.29 276.239 1108.73 275.398C1108.17 274.557 1107.78 273.991 1107.55 273.7C1104.27 277.141 1101.06 279.263 1097.94 280.069C1095.97 280.608 1093.55 280.852 1090.67 280.802C1086.24 280.725 1082.62 279.3 1079.82 276.527C1077.02 273.755 1075.66 269.876 1075.75 264.889ZM1090.63 263.429C1090.59 265.664 1091.12 267.465 1092.22 268.832C1093.32 270.198 1094.82 270.898 1096.72 270.931C1096.89 270.934 1097.13 270.91 1097.45 270.858C1097.77 270.806 1097.99 270.781 1098.1 270.783C1100.53 270.195 1102.43 268.68 1103.79 266.239C1104.45 265.161 1104.94 263.98 1105.28 262.695C1105.62 261.411 1105.81 260.368 1105.85 259.566C1105.9 258.764 1105.93 257.446 1105.97 255.612L1106 253.463C1102.66 253.404 1100.13 253.59 1098.39 254.018C1093.3 255.362 1090.71 258.499 1090.63 263.429ZM1126.41 291.746C1126.53 291.519 1126.71 291.293 1126.94 291.067C1128.4 290.118 1129.79 289.483 1131.12 289.162C1133.32 288.627 1135.45 288.349 1137.53 288.328C1138.1 288.281 1138.65 288.319 1139.17 288.443C1141.75 288.717 1143.3 289.174 1143.81 289.814C1144.03 290.162 1144.14 290.68 1144.13 291.367L1144.11 291.969C1144.08 293.975 1143.49 296.33 1142.35 299.034C1141.21 301.737 1139.65 303.903 1137.66 305.531C1137.37 305.755 1137.11 305.865 1136.88 305.861C1136.76 305.859 1136.65 305.829 1136.53 305.769C1136.19 305.591 1136.11 305.275 1136.29 304.819C1138.51 299.87 1139.63 296.42 1139.67 294.472C1139.68 293.841 1139.57 293.381 1139.34 293.09C1138.78 292.392 1137.17 292.02 1134.53 291.974C1133.55 291.957 1132.4 291.994 1131.07 292.085C1129.63 292.232 1128.3 292.381 1127.09 292.532C1126.74 292.526 1126.51 292.465 1126.4 292.348C1126.29 292.231 1126.26 292.116 1126.32 292.003C1126.32 291.945 1126.35 291.86 1126.41 291.746Z" fill="white"/>
</g>
<rect x="1213.42" y="218.059" width="1" height="100" transform="rotate(1 1213.42 218.059)" fill="white"/>
<path fill-rule="evenodd" clip-rule="evenodd" d="M1392.2 231.18L1392.2 231.18C1427.41 231.81 1454.65 236.605 1473.1 243.978C1491.41 251.294 1501.7 261.445 1501.5 273.107C1501.29 284.764 1490.66 294.626 1472.1 301.334C1453.4 308.094 1426.01 311.928 1390.8 311.164C1355.91 310.555 1328.68 305.766 1310.16 298.397C1291.79 291.088 1281.33 280.938 1281.53 269.267C1281.74 257.596 1292.55 247.817 1311.16 241.151C1329.92 234.429 1357.31 230.586 1392.2 231.18L1392.2 231.18ZM1312.25 244.139C1293.83 250.737 1284.9 259.813 1284.74 269.323C1284.57 278.832 1293.17 288.215 1311.35 295.448C1329.38 302.621 1356.18 307.382 1390.86 307.988L1390.86 307.988L1390.87 307.988C1425.86 308.748 1452.82 304.924 1471 298.349C1489.34 291.722 1498.13 282.574 1498.29 273.051C1498.46 263.532 1490 254.155 1471.9 246.925C1453.95 239.752 1427.15 234.983 1392.14 234.357C1357.46 233.767 1330.51 237.597 1312.25 244.139Z" fill="white"/>
<path fill-rule="evenodd" clip-rule="evenodd" d="M1408.83 239.064C1351.71 238.098 1319.6 252.12 1319.28 270.074C1318.97 288.029 1350.58 303.193 1407.7 304.19C1465.34 305.436 1496.94 291.135 1497.25 273.18C1497.57 255.227 1466.48 240.1 1408.83 239.064ZM1394.4 285.734L1394.4 285.734L1394.41 285.734C1394.75 285.736 1395 285.738 1395.09 285.74C1395.54 285.747 1395.78 285.305 1395.78 285.305C1395.78 285.305 1398.88 276.094 1401.27 268.726C1403.56 261.664 1396.4 261.406 1392.23 261.257L1392.23 261.257C1392.05 261.25 1391.87 261.244 1391.7 261.237C1387.65 261.076 1382.67 262.065 1382.08 262.264C1381.49 262.463 1381.33 262.998 1381.33 262.998C1381.33 262.998 1381.23 263.983 1381.07 264.577C1380.91 265.173 1381.5 265.184 1381.5 265.184C1381.5 265.184 1386.94 264.68 1390.61 264.893C1394.28 265.107 1394.98 266.913 1394.51 268.547C1394.04 270.183 1392.58 270.007 1392.58 270.007C1379.96 269.04 1377.08 271.291 1374.98 276.872C1373.13 281.77 1375.12 285.542 1381.73 285.506C1387.61 285.49 1388.65 284.731 1388.65 284.731C1388.65 284.731 1388.8 284.675 1389.09 284.889C1389.38 285.104 1389.46 285.343 1389.46 285.343C1389.46 285.343 1389.61 285.585 1390.04 285.652C1390.39 285.706 1393.07 285.725 1394.4 285.734L1394.4 285.734L1394.4 285.734ZM1406.28 267.617C1405.35 270.29 1400.33 285.295 1400.33 285.295C1400.33 285.295 1400.18 285.89 1400.91 285.841C1401.29 285.827 1403.75 285.881 1405.21 285.913L1405.21 285.913L1405.21 285.913L1405.21 285.913C1405.68 285.923 1406.04 285.931 1406.2 285.934C1406.87 285.945 1407.15 285.264 1407.15 285.264C1407.15 285.264 1411.73 271.896 1412.82 268.568C1413.9 265.24 1417.08 265.265 1417.72 265.276C1418.31 265.286 1419.17 265.478 1419.99 265.66L1420.21 265.709C1420.85 265.869 1421.16 265.187 1421.16 265.187C1421.16 265.187 1421.42 263.937 1421.57 263.341C1421.73 262.747 1420.86 262.343 1420.86 262.343C1420.86 262.343 1419.54 261.872 1415.73 261.746C1409.12 261.541 1407.21 264.943 1406.28 267.617ZM1423.68 285.552L1431.28 262.824C1431.28 262.824 1431.58 262.022 1430.76 262.008L1425.48 261.916C1424.74 261.903 1424.53 262.557 1424.53 262.557L1416.87 285.584C1416.87 285.584 1416.71 286.178 1417.44 286.13C1417.82 286.115 1420.29 286.169 1421.74 286.201L1421.75 286.201L1421.75 286.201C1422.21 286.211 1422.57 286.219 1422.73 286.222C1423.41 286.234 1423.68 285.552 1423.68 285.552ZM1432.74 258.157L1434.38 253.464C1434.38 253.464 1434.69 252.663 1433.86 252.648L1428.58 252.556C1427.84 252.543 1427.63 253.197 1427.63 253.197L1425.92 258.188C1425.92 258.188 1425.77 258.782 1426.5 258.735C1426.88 258.719 1429.34 258.774 1430.8 258.807L1430.8 258.807C1431.26 258.817 1431.62 258.825 1431.79 258.828C1432.46 258.84 1432.74 258.157 1432.74 258.157ZM1435.28 285.753L1445.2 256.043C1445.2 256.043 1445.51 255.243 1444.69 255.227L1439.4 255.135C1438.67 255.122 1438.45 255.776 1438.45 255.776L1428.47 285.785C1428.47 285.785 1428.31 286.38 1429.04 286.331C1429.42 286.317 1431.89 286.371 1433.35 286.403C1433.81 286.413 1434.17 286.421 1434.33 286.423C1435.01 286.435 1435.28 285.753 1435.28 285.753ZM1446.74 285.953L1456.65 256.243C1456.65 256.243 1456.96 255.443 1456.14 255.427L1450.86 255.335C1450.12 255.322 1449.9 255.976 1449.9 255.976L1439.92 285.985C1439.92 285.985 1439.76 286.58 1440.5 286.531C1440.88 286.517 1443.34 286.57 1444.8 286.602L1444.8 286.602L1444.8 286.602L1444.8 286.602C1445.26 286.613 1445.62 286.62 1445.78 286.623C1446.46 286.635 1446.74 285.953 1446.74 285.953ZM1472.22 287.092C1472.57 287.095 1472.83 287.097 1472.92 287.098C1473.36 287.106 1473.6 286.663 1473.6 286.663C1473.6 286.663 1476.7 277.453 1479.09 270.084C1481.38 263.022 1474.22 262.765 1470.06 262.615L1470.06 262.615C1469.87 262.609 1469.7 262.602 1469.53 262.596C1465.48 262.434 1460.5 263.423 1459.9 263.623C1459.31 263.822 1459.16 264.356 1459.16 264.356C1459.16 264.356 1459.05 265.341 1458.89 265.936C1458.74 266.532 1459.33 266.542 1459.33 266.542C1459.33 266.542 1464.77 266.038 1468.44 266.252C1472.11 266.465 1472.81 268.271 1472.34 269.906C1471.87 271.542 1470.4 271.366 1470.4 271.366C1457.79 270.399 1454.9 272.649 1452.8 278.231C1450.96 283.129 1452.95 286.9 1459.56 286.865C1465.43 286.848 1466.48 286.089 1466.48 286.089C1466.48 286.089 1466.62 286.033 1466.91 286.248C1467.2 286.462 1467.29 286.701 1467.29 286.701C1467.29 286.701 1467.43 286.943 1467.87 287.01C1468.21 287.065 1470.89 287.083 1472.22 287.092ZM1391.67 276.774C1390.11 281.827 1386.93 282.07 1384.82 282.122C1382.7 282.178 1381.51 281.528 1381.49 279.226C1381.45 274.594 1384.39 272.913 1388.85 272.991C1392.88 273.061 1392.26 274.945 1391.81 276.339L1391.81 276.339C1391.76 276.491 1391.71 276.637 1391.67 276.774ZM1469.49 278.133C1467.94 283.185 1464.76 283.428 1462.64 283.481C1460.53 283.537 1459.33 282.887 1459.31 280.585C1459.28 275.952 1462.22 274.271 1466.68 274.349C1470.71 274.42 1470.09 276.305 1469.63 277.699C1469.58 277.85 1469.53 277.996 1469.49 278.133ZM1349.56 260.292L1341.81 283.855C1341.81 283.855 1341.5 284.804 1342.62 284.824C1346.7 284.914 1349.22 284.953 1352.38 285.002L1352.38 285.002C1354.22 285.031 1356.27 285.062 1358.97 285.109C1366.32 285.238 1369.6 282.458 1371.89 277.416C1374.18 272.376 1372.89 270.261 1370.71 269.028C1373.23 268.027 1374.58 266.107 1375.82 262.244C1378.12 255.053 1371.4 254.846 1368.9 254.802L1358.92 254.628C1351.72 254.502 1349.56 260.292 1349.56 260.292ZM1355.19 266.067C1354.73 267.255 1356.05 267.278 1356.05 267.278L1362.95 267.4C1365.16 267.438 1367.37 266.729 1368.9 263.17C1370.43 259.61 1367.95 258.671 1366.49 258.645L1361.79 258.563C1357.67 258.491 1356.59 261.609 1356.59 261.609C1356.59 261.609 1355.65 264.88 1355.19 266.067ZM1350.69 279.885C1350.23 281.071 1351.55 281.095 1351.55 281.095L1358.45 281.216C1360.66 281.255 1363.86 279.369 1365 276.399C1366.69 272.094 1363.91 271.15 1362.45 271.124L1355.99 271.011C1353.64 270.97 1353.02 272.752 1353.02 272.752C1353.02 272.752 1351.15 278.698 1350.69 279.885Z" fill="white"/>
<rect x="1570.36" y="224.289" width="1" height="100" transform="rotate(1 1570.36 224.289)" fill="white"/>
<path fill-rule="evenodd" clip-rule="evenodd" d="M1703.05 328.46C1702.58 270.807 1692.83 236.001 1692.83 236.001C1684.9 208.895 1670.33 236.102 1670.33 236.102C1653.44 264.815 1652.76 335.744 1652.76 335.744L1637.43 335.477C1637.43 335.477 1641.69 275.434 1658.39 240.1C1658.39 240.1 1670.73 215.039 1683.04 216.285C1683.04 216.285 1702.42 214.577 1711.58 270.34C1722.68 214.931 1741.99 217.314 1741.99 217.314C1754.33 216.498 1765.79 241.975 1765.79 241.975C1781.24 277.87 1783.41 338.025 1783.41 338.025L1768.08 337.757C1768.08 337.757 1769.87 266.848 1754 237.563C1754 237.563 1740.39 209.864 1731.51 236.676C1731.51 236.676 1720.56 271.121 1718.07 328.722L1703.05 328.46V328.46Z" fill="white"/>
<rect x="1853.32" y="229.228" width="1" height="100" transform="rotate(1 1853.32 229.228)" fill="white"/>
<g clip-path="url(#clip3_78_1495)">
<rect x="-58.2171" y="192.629" width="2199" height="199" transform="rotate(-5 -58.2171 192.629)" fill="white" stroke="black"/>
<path fill-rule="evenodd" clip-rule="evenodd" d="M68.3119 299.508L48.0073 265.146L57.8921 264.282L66.7827 281.633L74.0881 262.865L83.3371 280.184L89.6716 261.501L99.1476 260.672L84.9888 298.049L75.4274 281.694L68.3119 299.508V299.508ZM129.299 294.172L120.675 294.926L115.574 288.494L102.606 289.673L99.994 296.736L90.755 297.544L107.11 259.976L129.299 294.172V294.172ZM113.747 284.473L108.082 274.238L103.622 285.361L113.747 284.473V284.473ZM131.625 293.968L128.572 259.077L154.113 276.543L152.318 256.02L159.697 255.375L162.967 291.226L137.707 275.428L139.139 293.311L131.625 293.968ZM204.917 287.556L201.865 252.664L222.714 250.84L223.208 256.485L211.06 257.547L211.707 264.942L221.505 264.085L222.083 270.692L212.285 271.55L212.993 279.635L225.677 278.526L226.303 285.685L204.917 287.556V287.556ZM179.479 289.782L176.63 253.893L183.605 253.283L186.116 281.987L200.234 280.752L200.86 287.911L179.479 289.782V289.782ZM230.957 284.925L227.904 250.032L248.754 248.207L249.247 253.853L237.102 254.916L237.749 262.309L247.547 261.452L248.125 268.058L238.327 268.916L239.035 277.002L251.719 275.893L252.345 283.052L230.957 284.923L230.957 284.925V284.925Z" fill="black"/>
<rect x="314.191" y="209.736" width="1" height="100" transform="rotate(-5 314.191 209.736)" fill="black"/>
<path fill-rule="evenodd" clip-rule="evenodd" d="M410.76 267.104L410.97 265.435L405.322 257.793L403.675 266.073C402.944 269.91 401.123 270.778 399.818 270.775C398.514 270.77 397.394 270.162 398.048 266.801L401.014 251.92L395.663 244.959L391.011 267.652C389.43 275.338 391.4 280.236 397.405 281.125C400.055 281.601 402.337 280.576 404.321 278.869L414.067 291.342L422.122 281.793L410.76 267.104V267.104ZM443.529 220.254L462.808 217.034L460.241 231.056L450.656 232.602L449.368 239.554L458.953 238.008L456.759 249.52L447.292 251.056L445.993 257.891L455.579 256.344L453.001 270.25L433.615 273.597L443.529 220.254ZM420.753 224.133L416.243 248.466L431.048 268.632C432.056 267.954 432.531 266.614 432.694 265.774L441.08 220.703L433.142 222.106L427.557 253.136C426.739 257.335 423.185 258.707 424.003 251.796L428.701 222.848L420.753 224.133V224.133ZM457.911 255.905L455.334 269.809C458.853 269.383 466.515 267.534 469.297 266.819C472.079 266.104 476.721 263.576 479.165 258.998C481.609 254.421 481.256 249.028 479.138 243.789C477.019 238.55 475.981 236.164 475.111 234.353C474.241 232.542 473.443 228.839 477.882 228.096L487.692 226.413L480.453 265.607L491.429 263.704L498.788 224.499L505.452 223.445L507.912 209.55L476.598 214.766C471.806 215.54 467.49 217.686 465.314 221.296C463.14 224.906 460.491 232.567 463.495 238.435L466.083 243.634C467.783 246.787 472.366 253.107 457.911 255.905V255.905ZM399.664 225.624C400.472 221.308 402.859 212.02 411.918 211.227C417.908 210.585 420.557 213.773 418.788 223.362L414.627 246.25L408.852 238.5L411.321 224.722C412.15 220.64 406.921 220.509 405.679 226.631L404.533 232.509L399.664 225.624ZM430.061 272.257L428.127 274.548L388.543 220.465L390.476 218.174L430.061 272.257V272.257ZM426.301 276.713L424.367 279.004L384.783 224.922L386.716 222.63L426.301 276.713V276.713Z" fill="black"/>
<rect x="574.198" y="186.989" width="1" height="100" transform="rotate(-5 574.198 186.989)" fill="black"/>
<g clip-path="url(#clip4_78_1495)">
<path d="M728.665 268.837L698.388 271.486C695.948 271.699 693.559 270.783 692.138 270.016C690.872 271.019 688.886 272.317 686.416 272.533L659.002 274.932L650.589 268.393L650.01 261.771L673.524 259.739C672.938 259.077 672.42 258.357 671.979 257.59C657.342 258.878 649.037 250.646 648.166 240.69L645.19 206.674L660.09 205.371C664.547 204.981 668.248 207.671 670.691 211.167L678.041 221.682L679.546 221.55L678.557 210.244L662.842 197.436L656.666 197.981L648.737 191.521L648.213 185.532L685.323 182.285L692.263 187.539L693.041 196.429L695.108 198.012L701.894 192.643L708.681 187.275C709.729 186.517 709.811 185.811 708.674 185.916L705.076 186.242L704.583 180.6L727.495 178.596L734.895 184.603L735.362 190.209L728.811 190.793L720.742 197.45L720.964 200.046L722.635 199.899L728.665 268.837ZM687.848 247.975C690.305 250.198 693.766 253.5 695.494 257.792L708.444 256.659L707.24 242.894L693.152 244.152C689.246 244.546 688.157 246.534 687.848 247.975Z" fill="black"/>
<path d="M663.638 230.047L663.638 230.049L666.659 229.784C666.39 232.435 664.533 234.575 662.117 234.787L655.066 235.404L655.294 238.013L662.99 237.34C666.935 236.995 669.821 232.929 669.415 228.29C669.157 225.338 667.626 222.848 665.532 221.514C667.374 219.958 668.466 217.448 668.229 214.733C667.855 210.465 664.333 207.265 660.389 207.61L647.616 208.728L650.217 238.457L650.222 238.457C650.228 238.557 650.234 238.658 650.243 238.759C650.73 244.32 655.706 248.455 661.321 247.964L671.294 247.086C671.256 247.853 671.27 248.622 671.337 249.386C671.786 254.522 674.534 258.874 678.366 261.335C677.807 261.519 677.229 261.639 676.642 261.69L652.435 263.811L652.664 266.427L676.874 264.309C682.489 263.817 686.672 258.881 686.185 253.319C685.757 248.427 681.854 244.639 677.099 244.133C676.822 244.974 676.627 245.84 676.516 246.719C680.168 246.965 683.212 249.825 683.538 253.548C683.751 255.983 682.755 258.256 681.046 259.784C677.249 257.953 674.42 253.969 673.999 249.158C673.388 242.176 678.073 236.027 684.429 235.471L704.756 233.685L704.528 231.076L684.059 232.867C677.891 233.406 673.01 238.224 671.651 244.418L661.094 245.347C656.935 245.71 653.25 242.648 652.89 238.529C652.529 234.411 655.627 230.755 659.785 230.388L663.638 230.047V230.047Z" fill="white"/>
<path d="M651.349 221.382L650.449 211.094L660.162 210.244C662.843 210.009 665.233 212.129 665.48 214.962C665.728 217.795 663.744 220.298 661.062 220.532L651.349 221.382L651.349 221.382ZM652.072 229.646L651.578 223.998L661.101 223.164C663.474 222.957 665.64 224.677 666.403 227.17L663.441 227.43L659.555 227.769C658.125 227.893 656.737 228.316 655.481 229.01C654.224 229.705 653.127 230.655 652.26 231.801L652.072 229.646V229.646Z" fill="black"/>
<path d="M681.502 225.85L680.065 209.427L654.787 188.791L651.159 189.109L650.964 186.879L683.289 184.051L683.484 186.28L677.476 186.806L695.075 200.116L710.401 187.969C711.467 187.125 712.437 186.384 712.215 185.105C712.062 184.218 711.431 183.837 708.79 184.067L706.473 184.27L706.278 182.034L725.462 180.355L725.657 182.59L724.185 182.719C722.616 182.856 721.209 183.466 719.948 184.542C718.69 185.615 716.203 187.517 714.164 189.186L696.918 203.299L698.759 224.302L703.897 223.864L704.128 226.505L672.536 229.268L672.322 226.653L681.502 225.85V225.85Z" fill="white"/>
<path d="M722.634 199.899L738.765 198.488C743.36 198.086 748.651 200.507 752.845 204.973C755.219 207.5 757.241 210.502 758.758 213.412C762.647 220.878 763.755 230.478 757.381 236.916C764.564 240.656 766.124 252.438 762.624 259.062C760.36 263.348 756.02 266.444 750.831 266.898L728.136 268.884L722.634 199.899ZM732.486 226.308C734.144 226.163 735.127 224.521 734.958 222.589L734.098 212.764L731.322 213.007L732.486 226.308ZM734.938 254.341C736.597 254.196 737.571 252.457 737.391 250.405L736.478 239.97L733.702 240.212L734.938 254.341Z" fill="black"/>
<path d="M686.893 260.797C686.218 261.907 685.32 262.918 684.31 263.659L743.114 258.514C751.231 257.804 757.263 250.656 756.558 242.599C755.953 235.676 751.517 229.815 746.693 228.724C751.258 226.853 754.623 220.481 754.034 213.749C753.349 205.915 746.183 200.103 738.071 200.813L701.366 204.024L701.593 206.619L705.617 206.267L710.209 258.757L686.893 260.796L686.893 260.797ZM738.43 244.182L738.931 249.901C739.159 252.504 738.617 254.242 737.344 255.143C736.404 255.807 734.413 256.639 731.182 256.922L727.693 257.227L725.474 231.873L728.964 231.568C732.196 231.285 734.301 231.759 735.341 232.25C736.752 232.917 737.586 234.534 737.814 237.137L738.43 244.182ZM736.018 216.61L736.502 222.143C736.723 224.661 736.176 226.344 734.901 227.22C733.96 227.865 731.967 228.676 728.736 228.959L725.246 229.264L723.1 204.738L726.59 204.433C729.822 204.15 731.925 204.602 732.963 205.075C734.372 205.715 735.202 207.278 735.422 209.796L736.018 216.61V216.61Z" fill="white"/>
</g>
<rect x="825.239" y="165.025" width="1" height="100" transform="rotate(-5 825.239 165.025)" fill="black"/>
<g clip-path="url(#clip5_78_1495)">
<path d="M910.325 220.73L910.616 221.37C910.579 221.297 910.474 221.073 910.325 220.73ZM918.235 204.962C918.334 201.378 919.55 199.271 921.989 197.005C925.494 193.92 930.31 195.071 930.31 195.071L929.5 185.817C930.635 185.687 931.779 185.658 932.92 185.73L933.961 197.639C933.961 197.639 929.147 196.488 925.643 199.575C923.204 201.839 921.986 203.948 921.888 207.532C922.044 209.459 922.61 211.947 924.39 213.985C923.978 213.808 923.557 213.603 923.125 213.369C919.408 211.213 918.447 207.574 918.235 204.962ZM950.725 166.718C947.889 163.986 946.654 161.086 946.118 159.019L949.36 158.736C949.36 158.736 949.194 164.292 954.378 169.288L954.45 169.355C953.107 168.63 951.856 167.744 950.725 166.718V166.718ZM967.075 173.736L968.096 185.405C968.096 185.405 963.944 185.598 960.811 185.05C956.437 184.283 953.537 182.774 953.537 182.774C953.537 182.774 951.53 181.692 951.369 181.619L953.477 205.716C953.594 207.058 953.537 210.439 952.711 213.328C951.635 217.106 949.69 219.694 949.337 220.219C949.337 220.219 946.999 223.692 942.567 226.281C938.571 228.617 934.907 228.887 933.818 229.032C933.818 229.032 927.515 229.848 921.484 226.472C920.179 225.726 918.945 224.859 917.799 223.884L917.83 223.902C923.862 227.278 930.163 226.463 930.163 226.463C931.254 226.317 934.918 226.047 938.912 223.712C943.341 221.123 945.682 217.65 945.682 217.65C946.031 217.125 947.986 214.536 949.057 210.757C949.879 207.87 949.94 204.487 949.822 203.145L947.714 179.051C947.876 179.126 949.881 180.207 949.881 180.207C949.881 180.207 952.783 181.718 957.157 182.483C960.291 183.031 964.441 182.839 964.441 182.839L963.641 173.695C965.085 173.903 966.299 173.887 967.075 173.736V173.736Z" fill="#DDDDDD"/>
<path d="M963.643 173.695L964.442 182.836C964.442 182.836 960.292 183.028 957.158 182.48C952.784 181.714 949.882 180.204 949.882 180.204C949.882 180.204 947.877 179.123 947.715 179.048L949.824 203.148C949.941 204.49 949.884 207.873 949.058 210.759C947.982 214.539 946.037 217.127 945.684 217.652C945.684 217.652 943.345 221.126 938.914 223.715C934.92 226.05 931.256 226.32 930.165 226.466C930.165 226.466 923.864 227.281 917.831 223.905L917.801 223.886C917.146 223.329 916.524 222.735 915.938 222.107C913.918 219.946 912.564 217.3 912.216 216.542C912.215 216.538 912.215 216.535 912.215 216.532C911.645 215.211 910.414 212.027 910.266 208.852C910.006 203.249 911.582 199.659 912.002 198.757C913.111 196.301 914.635 194.058 916.508 192.126C918.164 190.455 920.085 189.073 922.194 188.036C924.466 186.837 926.946 186.083 929.5 185.817L930.31 195.071C930.31 195.071 925.495 193.926 921.991 197.005C919.551 199.271 918.335 201.378 918.237 204.962C918.448 207.574 919.409 211.213 923.123 213.37C923.555 213.606 923.977 213.811 924.388 213.987C925.072 214.765 925.88 215.425 926.778 215.94C930.394 217.907 933.272 217.814 936.805 216.023C939.161 214.825 940.805 212.447 941.442 209.916C941.844 208.335 941.702 206.791 941.562 205.194L937.587 159.766L946.111 159.02C946.646 161.087 947.882 163.987 950.718 166.719C951.849 167.745 953.1 168.63 954.443 169.356C954.853 169.729 956.947 171.571 959.516 172.589C960.845 173.115 962.23 173.486 963.643 173.695V173.695Z" fill="black"/>
<path d="M908.575 213.996L908.575 214.003L908.838 214.585C908.808 214.517 908.711 214.312 908.575 213.996Z" fill="#CCCCCC"/>
<path d="M922.194 188.036C920.085 189.073 918.164 190.455 916.508 192.125C914.635 194.061 913.111 196.309 912.005 198.769C911.584 199.668 910.009 203.262 910.269 208.864C910.416 212.039 911.648 215.223 912.217 216.544C912.217 216.547 912.217 216.551 912.218 216.554C912.57 217.305 913.92 219.951 915.94 222.119C916.527 222.748 917.149 223.342 917.804 223.899C915.761 222.73 913.901 221.264 912.287 219.548C910.284 217.406 908.936 214.788 908.576 214.012C908.575 214.006 908.575 214.001 908.575 213.995L908.574 213.985C908.003 212.666 906.768 209.481 906.623 206.301C906.364 200.698 907.939 197.108 908.36 196.206C909.465 193.746 910.989 191.498 912.863 189.562C914.518 187.891 916.44 186.509 918.548 185.473C919.86 184.787 921.242 184.244 922.67 183.855C924.822 183.281 927.052 183.052 929.277 183.178L929.507 185.816C926.951 186.082 924.468 186.835 922.194 188.036V188.036Z" fill="#CCCCCC"/>
<path d="M946.118 159.019L937.594 159.765L941.569 205.194C941.709 206.791 941.844 208.331 941.45 209.916C940.804 212.447 939.167 214.824 936.812 216.022C933.278 217.819 930.4 217.906 926.785 215.939C925.886 215.427 925.076 214.77 924.39 213.993C927.437 215.297 930.04 215.042 933.154 213.459C935.507 212.262 937.147 209.884 937.79 207.353C938.193 205.771 938.051 204.228 937.911 202.632L933.936 157.194L945.705 156.164C945.705 156.164 945.672 157.305 946.118 159.019ZM963.421 171.166L963.643 173.694C962.232 173.485 960.85 173.113 959.523 172.588C956.954 171.57 954.86 169.728 954.45 169.355C954.91 169.603 955.384 169.825 955.87 170.018C958.995 171.256 961.982 171.446 963.421 171.166V171.166Z" fill="#CCCCCC"/>
<path d="M953.949 245.14C953.977 245.465 954.053 245.785 954.175 246.087C954.182 246.109 954.19 246.13 954.2 246.15C954.492 246.865 955.004 247.469 955.661 247.871C956.319 248.274 957.087 248.455 957.855 248.387L958.174 252.036C956.404 252.191 955.142 252.365 953.107 251.389C950.8 250.275 949.355 247.995 949.138 245.515C948.914 242.957 950.073 240.274 952.311 238.834C953.937 237.789 955.228 237.67 956.908 237.523L957.227 241.171C956.274 241.254 955.393 241.714 954.778 242.45C954.163 243.186 953.864 244.137 953.948 245.094L953.949 245.14Z" fill="#CCCCCC"/>
<path d="M961.165 244.509C961.194 244.834 961.174 245.162 961.107 245.481C961.109 245.502 961.098 245.525 961.093 245.547C960.93 246.302 960.53 246.985 959.952 247.496C959.375 248.006 958.65 248.318 957.883 248.385L958.202 252.034C959.97 251.879 961.244 251.831 963.072 250.517C965.158 249.019 966.188 246.522 965.971 244.042C965.747 241.484 964.139 239.043 961.686 238.014C959.903 237.267 958.611 237.375 956.932 237.521L957.251 241.169C958.205 241.086 959.152 241.386 959.885 242.004C960.618 242.622 961.077 243.506 961.161 244.463L961.165 244.509Z" fill="#DDDDDD"/>
<path d="M900.981 239.082L914.293 237.917L913.385 241.701L909.896 242.006L911.127 256.075L906.847 256.45L905.616 242.381L901.303 242.758L900.981 239.082ZM936.261 235.995L936.582 239.671L940.895 239.294L942.126 253.363L946.412 252.988L945.181 238.919L948.664 238.614L949.573 234.831L936.261 235.995ZM917.556 241.853C917.967 241.817 918.357 241.66 918.678 241.401C918.999 241.142 919.236 240.793 919.359 240.399C919.483 240.005 919.487 239.583 919.371 239.186C919.255 238.789 919.025 238.436 918.71 238.17C918.394 237.905 918.007 237.739 917.597 237.694C917.188 237.649 916.775 237.727 916.41 237.918C916.045 238.109 915.744 238.405 915.547 238.767C915.349 239.13 915.263 239.543 915.299 239.954C915.323 240.228 915.4 240.494 915.527 240.737C915.653 240.981 915.826 241.197 916.036 241.373C916.245 241.55 916.488 241.683 916.749 241.765C917.01 241.847 917.284 241.877 917.556 241.853V241.853ZM916.667 255.591L920.869 255.223L919.812 243.139L915.61 243.506L916.667 255.591ZM934.791 240.239L929.876 240.669L926.012 245.292L925.284 236.97L921.109 237.335L922.647 255.067L926.862 254.699L926.458 250.079L927.664 248.765L932.264 254.22L936.77 253.826L930.1 245.843L934.791 240.239ZM975.553 241.87L980.24 236.263L975.327 236.693L971.461 241.315L970.733 232.994L966.559 233.359L968.091 251.092L972.307 250.723L971.903 246.103L973.122 244.788L977.722 250.243L982.229 249.849L975.553 241.87ZM964.864 244.137C965.215 248.143 962.219 251.68 958.173 252.034C954.128 252.388 950.563 249.425 950.213 245.419C949.862 241.412 952.858 237.875 956.904 237.521C960.949 237.167 964.514 240.131 964.865 244.14L964.864 244.137ZM961.132 244.463C961.07 243.75 960.798 243.071 960.351 242.512C959.905 241.953 959.303 241.54 958.622 241.324C957.942 241.109 957.213 241.101 956.528 241.301C955.843 241.501 955.232 241.901 954.774 242.449C954.316 242.998 954.029 243.67 953.952 244.382C953.875 245.094 954.009 245.813 954.339 246.449C954.669 247.084 955.179 247.607 955.804 247.952C956.43 248.297 957.143 248.447 957.854 248.385C958.807 248.302 959.687 247.842 960.302 247.107C960.917 246.372 961.216 245.422 961.133 244.466L961.132 244.463Z" fill="black"/>
</g>
<rect x="1041.41" y="146.112" width="1" height="100" transform="rotate(-5 1041.41 146.112)" fill="black"/>
<g clip-path="url(#clip6_78_1495)">
<path d="M1116.75 213.536C1117 213.054 1117.45 212.985 1118.12 213.33C1133.18 220.356 1149.14 223.132 1166.01 221.656C1177.25 220.673 1188.17 217.617 1198.76 212.49C1199.03 212.351 1199.43 212.143 1199.96 211.867C1200.48 211.591 1200.86 211.386 1201.07 211.251C1201.91 210.833 1202.59 210.946 1203.14 211.588C1203.69 212.231 1203.59 212.873 1202.83 213.514C1201.87 214.347 1200.62 215.319 1199.1 216.43C1194.42 219.775 1189.11 222.512 1183.17 224.643C1177.23 226.774 1171.37 228.093 1165.57 228.6C1156.63 229.383 1148.03 228.566 1139.79 226.152C1131.54 223.737 1124.02 219.978 1117.21 214.877C1116.84 214.621 1116.65 214.351 1116.62 214.065C1116.61 213.894 1116.65 213.718 1116.75 213.536ZM1140.51 186.857C1140.16 182.916 1140.84 179.462 1142.55 176.493C1144.26 173.524 1146.74 171.177 1150 169.454C1152.98 167.869 1156.71 166.593 1161.19 165.626C1162.73 165.319 1165.23 164.87 1168.7 164.278L1168.58 162.822C1168.26 159.167 1167.64 156.746 1166.73 155.56C1165.37 153.952 1163.4 153.261 1160.82 153.487L1160.14 153.547C1158.26 153.884 1156.68 154.627 1155.39 155.775C1154.1 156.924 1153.34 158.429 1153.1 160.292C1152.97 161.454 1152.45 162.161 1151.55 162.412L1141.55 162.079C1140.55 161.936 1140.02 161.464 1139.95 160.665C1139.94 160.493 1139.95 160.291 1139.99 160.058C1140.52 154.89 1142.58 150.911 1146.18 148.122C1149.78 145.332 1154.12 143.572 1159.2 142.839L1161.35 142.651C1167.89 142.079 1173.14 143.317 1177.11 146.365C1177.73 146.889 1178.32 147.458 1178.86 148.068C1179.4 148.682 1179.84 149.234 1180.17 149.722C1180.51 150.211 1180.83 150.931 1181.14 151.882C1181.46 152.833 1181.69 153.489 1181.84 153.85C1181.98 154.211 1182.14 155.003 1182.3 156.226C1182.47 157.449 1182.56 158.174 1182.58 158.403L1184.39 179.133C1184.52 180.618 1184.86 181.955 1185.4 183.145C1185.93 184.336 1186.43 185.184 1186.87 185.692C1187.32 186.199 1188.06 187.012 1189.08 188.131C1189.47 188.615 1189.68 189.057 1189.72 189.457C1189.76 189.914 1189.56 190.334 1189.14 190.716C1184.73 195.245 1182.35 197.698 1181.98 198.075C1181.33 198.65 1180.51 198.78 1179.5 198.465C1178.63 197.85 1177.87 197.255 1177.22 196.679C1176.56 196.104 1176.09 195.685 1175.81 195.422C1175.52 195.159 1175.06 194.638 1174.41 193.86C1173.77 193.082 1173.32 192.561 1173.06 192.295C1170.15 196.06 1167.19 198.506 1164.17 199.634C1162.27 200.375 1159.88 200.872 1157.02 201.122C1152.6 201.509 1148.85 200.47 1145.78 198.006C1142.7 195.541 1140.94 191.825 1140.51 186.857ZM1155.16 183.849C1155.35 186.076 1156.07 187.812 1157.3 189.056C1158.54 190.3 1160.1 190.839 1162 190.674C1162.17 190.659 1162.41 190.609 1162.72 190.524C1163.03 190.439 1163.24 190.392 1163.36 190.382C1165.71 189.543 1167.44 187.838 1168.55 185.267C1169.08 184.127 1169.45 182.9 1169.65 181.588C1169.86 180.275 1169.94 179.218 1169.9 178.416C1169.86 177.614 1169.75 176.299 1169.59 174.472L1169.41 172.33C1166.08 172.621 1163.58 173.07 1161.9 173.678C1156.97 175.547 1154.73 178.938 1155.16 183.849ZM1193.71 208.271C1193.8 208.032 1193.95 207.789 1194.16 207.54C1195.51 206.444 1196.83 205.667 1198.12 205.209C1200.25 204.447 1202.34 203.947 1204.4 203.709C1204.97 203.602 1205.52 203.583 1206.05 203.652C1208.65 203.655 1210.23 203.948 1210.8 204.531C1211.06 204.853 1211.22 205.357 1211.28 206.042L1211.33 206.642C1211.51 208.641 1211.17 211.044 1210.32 213.852C1209.47 216.66 1208.14 218.978 1206.33 220.804C1206.07 221.058 1205.82 221.195 1205.59 221.215C1205.47 221.225 1205.36 221.206 1205.24 221.159C1204.88 221.018 1204.76 220.711 1204.9 220.239C1206.58 215.085 1207.34 211.537 1207.17 209.596C1207.12 208.968 1206.96 208.521 1206.71 208.255C1206.07 207.62 1204.44 207.418 1201.8 207.649C1200.82 207.734 1199.68 207.892 1198.37 208.121C1196.95 208.418 1195.65 208.705 1194.46 208.981C1194.12 209.012 1193.88 208.975 1193.76 208.87C1193.63 208.766 1193.59 208.654 1193.64 208.535C1193.64 208.478 1193.66 208.39 1193.71 208.271Z" fill="black"/>
</g>
<rect x="1272.53" y="125.893" width="1" height="100" transform="rotate(-5 1272.53 125.893)" fill="black"/>
<path fill-rule="evenodd" clip-rule="evenodd" d="M1451.71 120.255L1451.71 120.255C1486.79 117.2 1514.38 119.122 1533.5 124.526C1552.48 129.888 1563.77 138.907 1564.79 150.527C1565.81 162.141 1556.26 173.061 1538.51 181.672C1520.62 190.349 1493.78 197.026 1458.68 199.947C1423.91 202.988 1396.33 201.072 1377.14 195.679C1358.11 190.331 1346.64 181.329 1345.63 169.701C1344.61 158.073 1354.34 147.217 1372.15 138.642C1390.11 129.995 1416.94 123.312 1451.71 120.255L1451.71 120.255ZM1373.55 141.5C1355.92 149.987 1347.99 159.947 1348.82 169.422C1349.65 178.896 1359.18 187.328 1378.02 192.622C1396.7 197.871 1423.85 199.805 1458.4 196.782L1458.41 196.781L1458.41 196.781C1493.29 193.878 1519.7 187.258 1537.1 178.818C1554.64 170.312 1562.43 160.294 1561.6 150.806C1560.77 141.322 1551.37 132.881 1532.62 127.582C1514.02 122.325 1486.86 120.384 1451.98 123.42C1417.43 126.458 1391.03 133.085 1373.55 141.5Z" fill="black"/>
<path fill-rule="evenodd" clip-rule="evenodd" d="M1469.07 126.356C1412.17 131.366 1381.69 148.668 1383.26 166.557C1384.82 184.446 1417.84 196.223 1474.75 191.244C1532.21 186.458 1562.14 168.932 1560.57 151.043C1559.01 133.155 1526.52 121.36 1469.07 126.356ZM1459.59 174.279L1459.6 174.279L1459.6 174.278C1459.95 174.245 1460.2 174.22 1460.29 174.212C1460.73 174.173 1460.92 173.708 1460.92 173.708C1460.92 173.708 1463.04 164.224 1464.65 156.646C1466.19 149.383 1459.04 149.876 1454.88 150.162L1454.88 150.162C1454.7 150.175 1454.52 150.187 1454.36 150.198C1450.31 150.461 1445.46 151.965 1444.89 152.225C1444.33 152.485 1444.23 153.033 1444.23 153.033C1444.23 153.033 1444.22 154.024 1444.13 154.631C1444.04 155.241 1444.62 155.189 1444.62 155.189C1444.62 155.189 1449.98 154.119 1453.65 153.948C1457.32 153.777 1458.21 155.5 1457.91 157.175C1457.62 158.851 1456.14 158.829 1456.14 158.829C1443.5 159.186 1440.86 161.725 1439.36 167.496C1438.03 172.56 1440.41 176.103 1446.98 175.377C1452.82 174.746 1453.78 173.882 1453.78 173.882C1453.78 173.882 1453.92 173.811 1454.23 173.994C1454.54 174.177 1454.65 174.406 1454.65 174.406C1454.65 174.406 1454.81 174.632 1455.26 174.652C1455.61 174.67 1458.28 174.409 1459.59 174.279L1459.59 174.279L1459.59 174.279ZM1469.52 155.019C1468.88 157.775 1465.45 173.222 1465.45 173.222C1465.45 173.222 1465.36 173.83 1466.08 173.705C1466.46 173.651 1468.91 173.447 1470.37 173.326L1470.37 173.326L1470.37 173.326L1470.37 173.326C1470.83 173.288 1471.19 173.258 1471.35 173.244C1472.02 173.185 1472.23 172.478 1472.23 172.478C1472.23 172.478 1475.39 158.705 1476.12 155.282C1476.85 151.858 1480.01 151.552 1480.65 151.495C1481.24 151.444 1482.12 151.544 1482.95 151.64L1483.17 151.665C1483.83 151.758 1484.06 151.047 1484.06 151.047C1484.06 151.047 1484.19 149.778 1484.28 149.168C1484.38 148.561 1483.46 148.251 1483.46 148.251C1483.46 148.251 1482.11 147.92 1478.3 148.193C1471.71 148.68 1470.16 152.263 1469.52 155.019ZM1488.7 171.037L1493.88 147.64C1493.88 147.64 1494.1 146.811 1493.28 146.882L1488.01 147.343C1487.28 147.407 1487.14 148.08 1487.14 148.08L1481.93 171.781C1481.93 171.781 1481.83 172.389 1482.56 172.264C1482.93 172.21 1485.39 172.006 1486.84 171.885L1486.84 171.885L1486.84 171.885C1487.3 171.847 1487.66 171.817 1487.82 171.803C1488.5 171.744 1488.7 171.037 1488.7 171.037ZM1494.84 142.845L1495.98 138.007C1495.98 138.007 1496.21 137.178 1495.39 137.25L1490.12 137.71C1489.39 137.774 1489.24 138.447 1489.24 138.447L1488.07 143.589C1488.07 143.589 1487.97 144.196 1488.7 144.073C1489.08 144.017 1491.53 143.814 1492.98 143.694L1492.99 143.694C1493.45 143.656 1493.81 143.626 1493.97 143.612C1494.64 143.553 1494.84 142.845 1494.84 142.845ZM1500.26 170.025L1507.02 139.441C1507.02 139.441 1507.24 138.612 1506.42 138.683L1501.15 139.144C1500.42 139.208 1500.27 139.881 1500.27 139.881L1493.48 170.769C1493.48 170.769 1493.39 171.377 1494.11 171.252C1494.49 171.197 1496.95 170.994 1498.4 170.873C1498.86 170.835 1499.22 170.805 1499.38 170.791C1500.05 170.732 1500.26 170.025 1500.26 170.025ZM1511.67 169.026L1518.43 138.442C1518.43 138.442 1518.65 137.614 1517.83 137.684L1512.57 138.145C1511.83 138.209 1511.69 138.882 1511.69 138.882L1504.9 169.77C1504.9 169.77 1504.8 170.378 1505.53 170.253C1505.9 170.199 1508.36 169.995 1509.81 169.875L1509.81 169.874L1509.81 169.874L1509.81 169.874C1510.27 169.836 1510.63 169.806 1510.79 169.792C1511.47 169.733 1511.67 169.026 1511.67 169.026ZM1537.13 167.495C1537.48 167.461 1537.74 167.436 1537.83 167.428C1538.27 167.39 1538.46 166.924 1538.46 166.924C1538.46 166.924 1540.58 157.44 1542.19 149.862C1543.73 142.599 1536.58 143.092 1532.42 143.379L1532.42 143.379C1532.24 143.391 1532.06 143.403 1531.89 143.414C1527.85 143.677 1523 145.181 1522.43 145.442C1521.86 145.701 1521.77 146.249 1521.77 146.249C1521.77 146.249 1521.76 147.24 1521.67 147.848C1521.58 148.457 1522.16 148.405 1522.16 148.405C1522.16 148.405 1527.52 147.336 1531.19 147.165C1534.86 146.993 1535.75 148.716 1535.46 150.391C1535.16 152.067 1533.68 152.045 1533.68 152.045C1521.04 152.402 1518.4 154.942 1516.9 160.712C1515.57 165.776 1517.95 169.319 1524.52 168.593C1530.36 167.962 1531.32 167.098 1531.32 167.098C1531.32 167.098 1531.46 167.027 1531.77 167.21C1532.08 167.393 1532.19 167.622 1532.19 167.622C1532.19 167.622 1532.35 167.848 1532.8 167.868C1533.15 167.886 1535.81 167.625 1537.13 167.495ZM1455.94 165.654C1454.92 170.841 1451.79 171.416 1449.69 171.689C1447.59 171.965 1446.34 171.444 1446.08 169.156C1445.56 164.553 1448.3 162.574 1452.75 162.185C1456.76 161.834 1456.34 163.772 1456.03 165.206L1456.03 165.206C1456 165.363 1455.97 165.513 1455.94 165.654ZM1533.48 158.87C1532.46 164.058 1529.33 164.632 1527.23 164.905C1525.13 165.181 1523.88 164.66 1523.62 162.373C1523.1 157.769 1525.84 155.791 1530.29 155.401C1534.3 155.05 1533.88 156.99 1533.57 158.424C1533.54 158.58 1533.51 158.73 1533.48 158.87ZM1412.35 153.663L1407.1 177.907C1407.1 177.907 1406.89 178.884 1408 178.787C1412.07 178.45 1414.58 178.225 1417.73 177.944L1417.73 177.943C1419.56 177.78 1421.61 177.596 1424.3 177.361C1431.61 176.721 1434.59 173.614 1436.34 168.36C1438.09 163.108 1436.59 161.139 1434.29 160.141C1436.69 158.882 1437.83 156.832 1438.67 152.86C1440.2 145.468 1433.49 145.964 1431.01 146.182L1421.06 147.052C1413.89 147.679 1412.35 153.663 1412.35 153.663ZM1418.55 158.818C1418.22 160.048 1419.53 159.933 1419.53 159.933L1426.41 159.332C1428.6 159.14 1430.73 158.203 1431.88 154.503C1433.03 150.804 1430.47 150.128 1429 150.256L1424.32 150.666C1420.23 151.024 1419.47 154.238 1419.47 154.238C1419.47 154.238 1418.88 157.589 1418.55 158.818ZM1415.52 173.03C1415.18 174.259 1416.5 174.144 1416.5 174.144L1423.37 173.543C1425.57 173.351 1428.56 171.141 1429.38 168.068C1430.61 163.61 1427.75 162.961 1426.29 163.089L1419.86 163.652C1417.51 163.857 1417.09 165.693 1417.09 165.693C1417.09 165.693 1415.85 171.802 1415.52 173.03Z" fill="black"/>
<rect x="1628.17" y="94.7783" width="1" height="100" transform="rotate(-5 1628.17 94.7783)" fill="black"/>
<path fill-rule="evenodd" clip-rule="evenodd" d="M1771.03 184.507C1764.52 127.221 1751.2 93.6234 1751.2 93.6234C1740.47 67.4958 1728.82 96.0765 1728.82 96.0765C1715.03 126.398 1721.77 197.009 1721.77 197.009L1706.5 198.345C1706.5 198.345 1704.46 138.186 1717.37 101.301C1717.37 101.301 1727.03 75.0865 1739.39 75.0395C1739.39 75.0395 1758.49 71.3147 1773.43 125.815C1778.68 69.5486 1798.13 69.9007 1798.13 69.9007C1810.32 67.7998 1824.38 91.9377 1824.38 91.9377C1843.5 126.021 1851.94 185.621 1851.94 185.621L1836.67 186.957C1836.67 186.957 1831.04 116.248 1812.19 88.7827C1812.19 88.7827 1795.76 62.6587 1789.73 90.2518C1789.73 90.2518 1782.44 125.653 1785.99 183.198L1771.03 184.507V184.507Z" fill="black"/>
<rect x="1910.09" y="70.1133" width="1" height="100" transform="rotate(-5 1910.09 70.1133)" fill="black"/>
</g>
<defs>
<clipPath id="clip0_78_1495">
<rect width="115" height="90" fill="white" transform="translate(581.424 212.027) rotate(1)"/>
</clipPath>
<clipPath id="clip1_78_1495">
<rect width="80" height="110" fill="white" transform="translate(833.561 206.428) rotate(1)"/>
</clipPath>
<clipPath id="clip2_78_1495">
<rect width="95" height="86" fill="white" transform="translate(1050.32 222.213) rotate(1)"/>
</clipPath>
<clipPath id="clip3_78_1495">
<rect width="2200" height="200" fill="white" transform="translate(-58.7588 192.175) rotate(-5)"/>
</clipPath>
<clipPath id="clip4_78_1495">
<rect width="115" height="90" fill="white" transform="translate(643.371 185.956) rotate(-5)"/>
</clipPath>
<clipPath id="clip5_78_1495">
<rect width="80" height="110" fill="white" transform="translate(893.541 154.031) rotate(-5)"/>
</clipPath>
<clipPath id="clip6_78_1495">
<rect width="95" height="86" fill="white" transform="translate(1110.76 147.072) rotate(-5)"/>
</clipPath>
</defs>
</svg>
