<svg width="360" height="248" viewBox="0 0 360 248" fill="none" xmlns="http://www.w3.org/2000/svg">
<path d="M-33 61.0957L665.332 -0.000473723L671.259 67.7408L-27.0734 128.837L-33 61.0957Z" fill="white"/>
<path fill-rule="evenodd" clip-rule="evenodd" d="M9.98887 97.6079L3.11695 85.9224L6.45956 85.6299L9.46887 91.5304L11.9364 85.1508L15.0669 91.0407L17.206 84.6897L20.4104 84.4094L15.6283 97.1145L12.3923 91.5527L9.98887 97.6079ZM30.6122 95.8036L27.6958 96.0588L25.9699 93.8709L21.5844 94.2699L20.7024 96.6706L17.5782 96.9439L23.1029 84.1738L30.6122 95.8036ZM25.3513 92.5037L23.4339 89.0229L21.9275 92.804L25.3513 92.5037ZM31.3985 95.7348L30.3606 83.8716L39.0008 89.8139L38.3903 82.8364L40.8858 82.618L41.9971 94.8076L33.4526 89.4321L33.9397 95.5125L31.3985 95.7348ZM56.1829 93.5665L55.145 81.7032L62.1954 81.0864L62.3633 83.0055L58.2556 83.3649L58.4755 85.879L61.7887 85.5891L61.9853 87.8358L58.6721 88.1256L58.9126 90.8748L63.2019 90.4995L63.4149 92.9337L56.1829 93.5665ZM47.5807 94.3191L46.6115 82.1171L48.9703 81.9107L49.8241 91.6699L54.5982 91.2522L54.8111 93.6865L47.5807 94.3191ZM64.9884 92.6759L63.9505 80.8123L71.0008 80.1955L71.1688 82.115L67.0619 82.4743L67.2818 84.988L70.595 84.6982L70.7915 86.9444L67.4783 87.2343L67.7188 89.9838L72.0081 89.6085L72.2211 92.0428L64.9884 92.6756L64.9884 92.6759Z" fill="black"/>
<path d="M93.1237 67.1262L93.4606 67.0968L96.4239 100.967L96.087 100.997L93.1237 67.1262Z" fill="black"/>
<path fill-rule="evenodd" clip-rule="evenodd" d="M125.79 86.6459L125.86 86.0784L123.949 83.4793L123.394 86.2942C123.147 87.5985 122.532 87.8936 122.09 87.8921C121.649 87.8905 121.27 87.6833 121.491 86.5407L122.492 81.4819L120.681 79.1144L119.111 86.8289C118.578 89.4419 119.245 91.1075 121.276 91.4108C122.172 91.5731 122.943 91.2248 123.614 90.6449L126.912 94.8871L129.634 91.6416L125.79 86.6459ZM136.864 70.7226L143.383 69.6311L142.517 74.3978L139.276 74.9221L138.841 77.2855L142.083 76.7613L141.343 80.6748L138.141 81.1956L137.703 83.5192L140.944 82.9949L140.075 87.7221L133.52 88.857L136.864 70.7226ZM129.162 72.0381L127.641 80.31L132.651 87.1686C132.992 86.9383 133.152 86.4828 133.207 86.1972L136.036 70.8751L133.351 71.3506L131.468 81.8996C131.192 83.327 129.99 83.7929 130.266 81.4434L131.85 71.6025L129.162 72.0381ZM141.733 82.8459L140.864 87.5728C142.054 87.4285 144.645 86.8011 145.585 86.5585C146.526 86.3159 148.095 85.4569 148.921 83.9008C149.747 82.3453 149.627 80.5114 148.909 78.7301C148.192 76.9484 147.841 76.1373 147.546 75.5214C147.252 74.9055 146.981 73.6464 148.482 73.3946L151.8 72.8239L149.358 86.1482L153.069 85.5027L155.551 72.1749L157.805 71.8174L158.635 67.094L148.046 68.8623C146.426 69.1245 144.966 69.8534 144.231 71.0806C143.497 72.3074 142.602 74.9116 143.619 76.9074L144.495 78.6752C145.07 79.7475 146.621 81.8971 141.733 82.8459ZM122.031 72.5415C122.303 71.0743 123.109 67.9169 126.173 67.6488C128.198 67.4315 129.095 68.5156 128.498 71.7755L127.094 79.5564L125.14 76.9207L125.973 72.2368C126.252 70.849 124.484 70.8035 124.065 72.8847L123.678 74.8832L122.031 72.5415ZM132.318 88.4008L131.664 89.1797L118.269 70.7859L118.923 70.007L132.318 88.4008ZM131.047 89.9152L130.393 90.6938L116.998 72.3003L117.652 71.5214L131.047 89.9152Z" fill="black"/>
<path d="M181.047 59.434L181.384 59.4045L184.347 93.2751L184.01 93.3046L181.047 59.434Z" fill="black"/>
<path d="M233.296 87.2861L223.058 88.1818C222.233 88.254 221.425 87.9422 220.944 87.6812C220.516 88.0219 219.845 88.463 219.01 88.536L209.74 89.3471L206.893 87.1225L206.696 84.871L214.648 84.1842C214.45 83.9589 214.274 83.714 214.125 83.4533C209.176 83.8889 206.366 81.0885 206.069 77.7036L205.058 66.1383L210.096 65.6975C211.603 65.5656 212.855 66.4809 213.682 67.6697L216.17 71.2459L216.678 71.2014L216.342 67.3571L211.026 63.0002L208.937 63.1846L206.255 60.987L206.076 58.9507L218.626 57.8527L220.973 59.64L221.238 62.6625L221.937 63.2011L226.525 59.5528C226.88 59.2955 226.907 59.0554 226.523 59.0907L225.306 59.201L225.138 57.283L232.886 56.6051L235.39 58.6488L235.549 60.5548L233.333 60.7523L230.606 63.0143L230.681 63.8967L231.246 63.8473L233.296 87.2861ZM219.49 80.1869C220.321 80.9428 221.492 82.066 222.077 83.5256L226.456 83.1425L226.047 78.4623L221.283 78.8879C219.962 79.0213 219.594 79.6968 219.49 80.1869Z" fill="black"/>
<path d="M211.3 74.0875L211.3 74.0883L212.322 73.9983C212.231 74.8997 211.603 75.6272 210.787 75.6986L208.402 75.9073L208.48 76.7945L211.082 76.5668C212.416 76.4501 213.391 75.0682 213.253 73.4909C213.166 72.4874 212.648 71.6404 211.939 71.1867C212.562 70.6578 212.931 69.8046 212.85 68.8815C212.723 67.4303 211.532 66.342 210.198 66.4586L205.878 66.8365L206.763 76.9447L206.764 76.9446C206.766 76.9787 206.769 77.0129 206.772 77.0471C206.937 78.938 208.621 80.3446 210.52 80.1785L213.892 79.8818C213.879 80.1425 213.884 80.4037 213.907 80.6638C214.059 82.4098 214.99 83.8898 216.286 84.7272C216.097 84.7899 215.901 84.8303 215.703 84.8476L207.517 85.5649L207.595 86.4543L215.782 85.7381C217.68 85.5719 219.094 83.8942 218.929 82.0033C218.783 80.34 217.463 79.0515 215.855 78.8785C215.761 79.1646 215.695 79.459 215.658 79.7578C216.893 79.842 217.923 80.8149 218.033 82.0807C218.106 82.9085 217.769 83.6812 217.192 84.2004C215.907 83.5772 214.95 82.2222 214.807 80.5865C214.599 78.2126 216.183 76.1229 218.332 75.9349L225.206 75.331L225.128 74.4437L218.206 75.0493C216.121 75.2318 214.471 76.8689 214.012 78.9745L210.442 79.2887C209.036 79.4117 207.789 78.37 207.667 76.9696C207.544 75.5693 208.591 74.3267 209.997 74.2026L211.3 74.0875Z" fill="white"/>
<path d="M207.143 71.1395L206.837 67.6416L210.121 67.3542C211.028 67.2749 211.836 67.9959 211.921 68.9591C212.005 69.9223 211.334 70.7729 210.428 70.8523L207.143 71.1395ZM207.221 72.0289L210.441 71.7471C211.244 71.6769 211.976 72.262 212.235 73.1097L209.919 73.3125C209.435 73.3544 208.966 73.4979 208.541 73.7337C208.117 73.9696 207.746 74.2927 207.453 74.682L207.221 72.0289Z" fill="black"/>
<path d="M217.341 72.6634L216.852 67.0796L208.301 60.0596L207.074 60.167L207.007 59.409L217.938 58.4525L218.004 59.2105L215.973 59.3882L221.926 63.9161L227.107 59.7891C227.468 59.5021 227.795 59.2503 227.72 58.8153C227.668 58.5139 227.455 58.3842 226.562 58.4621L225.778 58.5305L225.712 57.7703L232.199 57.2028L232.266 57.9626L231.768 58.0061C231.237 58.0526 230.762 58.2597 230.335 58.6253C229.91 58.9898 229.069 59.6362 228.38 60.2031L222.55 64.9987L223.176 72.1396L224.914 71.9918L224.992 72.8895L214.309 73.8241L214.236 72.935L217.341 72.6634Z" fill="white"/>
<path d="M231.246 63.8471L236.701 63.3699C238.255 63.2339 240.044 64.0579 241.463 65.5771C242.266 66.4364 242.951 67.4574 243.464 68.4471C244.78 70.9859 245.157 74.2503 243.002 76.438C245.432 77.7107 245.961 81.7166 244.779 83.9682C244.014 85.4249 242.547 86.477 240.792 86.6305L233.118 87.3019L231.246 63.8471ZM234.582 72.8275C235.143 72.7784 235.474 72.2201 235.417 71.5634L235.125 68.223L234.186 68.3052L234.582 72.8275ZM235.416 82.3586C235.976 82.3096 236.305 81.7184 236.244 81.0209L235.934 77.4728L234.995 77.5549L235.416 82.3586Z" fill="black"/>
<path d="M219.169 84.5456C218.941 84.923 218.637 85.2665 218.296 85.5182L238.181 83.7785C240.926 83.5384 242.965 81.109 242.725 78.3699C242.519 76.016 241.018 74.0227 239.387 73.6508C240.93 73.0155 242.067 70.8498 241.867 68.5606C241.634 65.8971 239.21 63.9201 236.467 64.1601L224.054 65.246L224.132 66.1281L225.492 66.0091L227.054 83.8556L219.169 84.5456ZM236.765 80.8494C236.843 81.7344 236.66 82.3252 236.229 82.6314C235.912 82.8572 235.239 83.1398 234.146 83.2353L232.966 83.3386L232.212 74.7182L233.392 74.615C234.485 74.5194 235.197 74.6807 235.548 74.8479C236.025 75.0747 236.308 75.6246 236.385 76.5098L236.765 80.8494ZM235.939 71.4118C236.014 72.268 235.83 72.8401 235.399 73.1375C235.081 73.3567 234.407 73.6321 233.314 73.7277L232.134 73.831L231.404 65.4922L232.585 65.3889C233.677 65.2933 234.389 65.4474 234.74 65.6083C235.216 65.8263 235.497 66.3578 235.572 67.2138L235.939 71.4118Z" fill="white"/>
<path d="M265.938 52.0069L266.275 51.9775L269.238 85.8481L268.902 85.8776L265.938 52.0069Z" fill="black"/>
<path d="M294.721 70.9591L294.819 71.1767C294.807 71.1518 294.771 71.0758 294.721 70.9591ZM297.393 65.5994C297.426 64.3811 297.837 63.6646 298.662 62.8949C299.846 61.8465 301.475 62.2384 301.475 62.2384L301.2 59.0921C301.584 59.0481 301.971 59.0384 302.356 59.0632L302.71 63.1122C302.71 63.1122 301.082 62.7203 299.897 63.7692C299.073 64.5384 298.661 65.2554 298.629 66.4736C298.682 67.129 298.874 67.9749 299.476 68.6682C299.337 68.608 299.194 68.5381 299.048 68.4584C297.791 67.7248 297.465 66.4875 297.393 65.5994ZM308.374 52.6023C307.415 51.6731 306.997 50.6867 306.815 49.984L307.911 49.8881C307.911 49.8881 307.856 51.7771 309.61 53.4766L309.634 53.4994C309.18 53.2526 308.757 52.9513 308.374 52.6023ZM313.904 54.9909L314.252 58.9585C314.252 58.9585 312.848 59.0232 311.788 58.8364C310.309 58.5751 309.328 58.0615 309.328 58.0615C309.328 58.0615 308.649 57.6934 308.594 57.6684L309.311 65.8615C309.351 66.3177 309.332 67.4673 309.054 68.4492C308.69 69.7335 308.033 70.6132 307.913 70.7917C307.913 70.7917 307.124 71.9721 305.625 72.8516C304.274 73.6449 303.035 73.7362 302.667 73.7855C302.667 73.7855 300.536 74.0619 298.496 72.9131C298.054 72.6592 297.637 72.3644 297.249 72.0324L297.259 72.0389C299.3 73.1876 301.431 72.9113 301.431 72.9113C301.799 72.8619 303.038 72.7707 304.389 71.9774C305.886 71.098 306.677 69.9174 306.677 69.9174C306.795 69.7391 307.456 68.8591 307.817 67.5745C308.095 66.5932 308.115 65.443 308.075 64.9868L307.358 56.7947C307.413 56.8202 308.091 57.1883 308.091 57.1883C308.091 57.1883 309.073 57.7023 310.552 57.9632C311.612 58.1499 313.015 58.0852 313.015 58.0852L312.743 54.9762C313.232 55.0473 313.642 55.0422 313.904 54.9909Z" fill="#DDDDDD"/>
<path d="M312.744 54.9762L313.016 58.0842C313.016 58.0842 311.612 58.1489 310.552 57.9622C309.073 57.7008 308.092 57.1873 308.092 57.1873C308.092 57.1873 307.413 56.8192 307.359 56.7936L308.075 64.9877C308.115 65.4439 308.096 66.594 307.818 67.5754C307.454 68.8602 306.797 69.7399 306.678 69.9184C306.678 69.9184 305.887 71.0989 304.389 71.9783C303.039 72.7716 301.8 72.8629 301.431 72.9123C301.431 72.9123 299.3 73.1886 297.26 72.0398L297.25 72.0334C297.028 71.8439 296.818 71.6418 296.619 71.4281C295.936 70.6931 295.478 69.7932 295.36 69.5354C295.359 69.5343 295.359 69.5331 295.359 69.532C295.167 69.0828 294.749 68.0001 294.699 66.9205C294.61 65.0158 295.143 63.7953 295.285 63.4888C295.659 62.6541 296.174 61.8915 296.807 61.235C297.367 60.6673 298.017 60.1977 298.729 59.8456C299.498 59.4381 300.336 59.1824 301.2 59.0921L301.475 62.2384C301.475 62.2384 299.847 61.8484 298.662 62.8949C297.837 63.6646 297.427 64.381 297.394 65.5993C297.466 66.4875 297.791 67.7247 299.048 68.4589C299.194 68.539 299.336 68.6089 299.476 68.6687C299.707 68.9335 299.98 69.158 300.284 69.3332C301.507 70.0024 302.48 69.9715 303.675 69.3628C304.471 68.9561 305.027 68.1478 305.242 67.2873C305.378 66.7498 305.329 66.225 305.282 65.682L303.931 50.2364L306.813 49.9842C306.994 50.6869 307.413 51.6733 308.372 52.6025C308.755 52.9516 309.178 53.2528 309.632 53.4996C309.771 53.6266 310.479 54.253 311.348 54.5995C311.798 54.7786 312.266 54.905 312.744 54.9762Z" fill="black"/>
<path d="M294.128 68.6695L294.128 68.672L294.217 68.8698C294.207 68.8468 294.174 68.7769 294.128 68.6695Z" fill="#CCCCCC"/>
<path d="M298.729 59.8456C298.017 60.1977 297.367 60.6673 296.807 61.235C296.174 61.8929 295.659 62.657 295.286 63.4932C295.143 63.7987 294.611 65.0201 294.7 66.9249C294.75 68.0045 295.167 69.0871 295.36 69.5363C295.36 69.5374 295.36 69.5386 295.36 69.5397C295.48 69.795 295.936 70.695 296.62 71.4324C296.819 71.6461 297.029 71.8482 297.25 72.0377C296.559 71.6401 295.93 71.1413 295.384 70.5576C294.707 69.8289 294.25 68.9388 294.128 68.6749C294.128 68.6729 294.128 68.671 294.128 68.6691L294.128 68.6657C293.934 68.217 293.516 67.1339 293.467 66.0528C293.378 64.1481 293.91 62.9276 294.052 62.6211C294.426 61.7848 294.941 61.0207 295.574 60.3629C296.134 59.7951 296.783 59.3255 297.496 58.9735C297.94 58.7405 298.407 58.5563 298.89 58.4242C299.617 58.2292 300.372 58.1519 301.124 58.195L301.202 59.0919C300.338 59.1819 299.498 59.4377 298.729 59.8456Z" fill="#CCCCCC"/>
<path d="M306.815 49.984L303.933 50.2362L305.284 65.6823C305.332 66.2253 305.378 66.7489 305.245 67.2876C305.027 68.1479 304.473 68.9559 303.677 69.3626C302.482 69.9733 301.509 70.0022 300.286 69.333C299.982 69.1588 299.708 68.9351 299.476 68.6711C300.507 69.1148 301.387 69.0286 302.44 68.4909C303.235 68.0843 303.79 67.2761 304.007 66.4155C304.143 65.8779 304.094 65.3531 304.047 64.8106L302.695 49.3616L306.675 49.0134C306.675 49.0134 306.664 49.4013 306.815 49.984ZM312.669 54.1166L312.744 54.9762C312.267 54.9047 311.799 54.7783 311.351 54.5993C310.482 54.2528 309.773 53.6264 309.634 53.4994C309.79 53.584 309.951 53.6593 310.115 53.725C311.172 54.1465 312.182 54.2115 312.669 54.1166Z" fill="#CCCCCC"/>
<path d="M309.477 79.2653C309.486 79.3759 309.512 79.4845 309.554 79.5874C309.556 79.5947 309.559 79.6018 309.562 79.6086C309.661 79.852 309.834 80.0572 310.057 80.1942C310.279 80.3312 310.539 80.3928 310.798 80.37L310.907 81.6106C310.308 81.663 309.882 81.7218 309.193 81.3897C308.413 81.0105 307.924 80.2351 307.85 79.392C307.774 78.5223 308.166 77.6102 308.922 77.121C309.472 76.7661 309.908 76.7259 310.477 76.6762L310.585 77.9163C310.263 77.9445 309.965 78.1009 309.757 78.3509C309.549 78.601 309.448 78.9243 309.477 79.2497L309.477 79.2653Z" fill="#CCCCCC"/>
<path d="M311.917 79.0518C311.927 79.1624 311.921 79.2737 311.898 79.3823C311.899 79.3896 311.895 79.3972 311.893 79.4047C311.838 79.6614 311.703 79.8935 311.508 80.067C311.313 80.2406 311.067 80.3464 310.808 80.3692L310.917 81.6098C311.515 81.5574 311.945 81.5412 312.563 81.0949C313.268 80.5857 313.616 79.7371 313.543 78.894C313.466 78.0243 312.922 77.194 312.093 76.8436C311.489 76.5896 311.053 76.6258 310.485 76.6755L310.593 77.9156C310.916 77.8875 311.236 77.9898 311.484 78.2C311.732 78.4101 311.888 78.711 311.916 79.0363L311.917 79.0518Z" fill="#DDDDDD"/>
<path d="M291.564 77.197L296.066 76.8032L295.759 78.0894L294.579 78.1926L294.998 82.9761L293.55 83.1027L293.132 78.3192L291.673 78.4468L291.564 77.197ZM303.494 76.1533L303.603 77.4031L305.062 77.2755L305.48 82.059L306.93 81.9322L306.511 77.1487L307.689 77.0457L307.996 75.7595L303.494 76.1533ZM297.17 78.1418C297.308 78.1296 297.44 78.0761 297.549 77.9882C297.657 77.9003 297.737 77.7818 297.779 77.6478C297.821 77.5138 297.822 77.3702 297.783 77.2353C297.744 77.1004 297.666 76.9802 297.559 76.8899C297.452 76.7995 297.321 76.7432 297.183 76.7278C297.044 76.7125 296.905 76.739 296.781 76.8038C296.658 76.8687 296.556 76.9691 296.49 77.0923C296.423 77.2155 296.394 77.3559 296.406 77.4959C296.414 77.5889 296.44 77.6793 296.483 77.7621C296.526 77.8449 296.585 77.9184 296.655 77.9784C296.726 78.0384 296.808 78.0837 296.897 78.1118C296.985 78.1398 297.078 78.15 297.17 78.1418ZM296.871 82.8122L298.292 82.6879L297.933 78.5792L296.512 78.7035L296.871 82.8122ZM302.998 77.5958L301.336 77.7412L300.03 79.3122L299.782 76.4829L298.37 76.6064L298.893 82.6353L300.319 82.5106L300.181 80.9398L300.589 80.4933L302.145 82.3488L303.669 82.2155L301.412 79.5005L302.998 77.5958ZM316.783 78.1567L318.367 76.2512L316.705 76.3965L315.399 77.9676L315.151 75.1383L313.74 75.2618L314.26 81.2908L315.686 81.1661L315.549 79.5953L315.961 79.1485L317.517 81.0039L319.041 80.8706L316.783 78.1567ZM313.168 78.9258C313.287 80.288 312.275 81.4899 310.907 81.6096C309.539 81.7293 308.333 80.7215 308.214 79.3592C308.095 77.9969 309.107 76.7951 310.475 76.6754C311.843 76.5557 313.049 77.564 313.168 78.9267L313.168 78.9258ZM311.906 79.0362C311.885 78.7936 311.793 78.5627 311.642 78.3727C311.491 78.1826 311.287 78.042 311.057 77.9686C310.827 77.8952 310.58 77.8923 310.349 77.9603C310.117 78.0282 309.911 78.164 309.756 78.3504C309.601 78.5368 309.504 78.7655 309.478 79.0075C309.452 79.2495 309.498 79.494 309.609 79.7101C309.721 79.9262 309.893 80.1041 310.105 80.2214C310.317 80.3387 310.558 80.3901 310.798 80.369C311.12 80.3408 311.418 80.1847 311.626 79.935C311.834 79.6852 311.935 79.3623 311.906 79.0371L311.906 79.0362Z" fill="black"/>
<path d="M339.039 45.6114L339.376 45.582L342.339 79.4526L342.002 79.4821L339.039 45.6114Z" fill="black"/>
<path d="M364.526 68.5466C364.61 68.3828 364.764 68.3595 364.989 68.4768C370.084 70.868 375.483 71.8142 381.186 71.3153C384.987 70.9827 388.678 69.9456 392.259 68.2041C392.352 68.1568 392.488 68.0862 392.665 67.9924C392.843 67.8986 392.969 67.8289 393.043 67.7833C393.323 67.6414 393.556 67.6797 393.742 67.8983C393.927 68.1168 393.892 68.3351 393.638 68.553C393.311 68.836 392.89 69.1663 392.376 69.5439C390.795 70.68 389 71.6099 386.991 72.3334C384.983 73.057 382.999 73.5045 381.04 73.6758C378.015 73.9406 375.107 73.6617 372.319 72.8394C369.53 72.0171 366.985 70.7381 364.684 69.0025C364.559 68.9156 364.492 68.8236 364.483 68.7265C364.478 68.6682 364.493 68.6083 364.526 68.5466ZM372.557 59.4798C372.44 58.14 372.669 56.9656 373.246 55.9565C373.822 54.9474 374.661 54.15 375.763 53.5645C376.771 53.0263 378.033 52.5931 379.548 52.2648C380.067 52.1608 380.913 52.0084 382.088 51.8078L382.045 51.3127C381.936 50.07 381.727 49.247 381.418 48.8436C380.96 48.2967 380.294 48.0615 379.422 48.1378L379.189 48.1582C378.554 48.2724 378.019 48.5247 377.584 48.9149C377.149 49.3051 376.891 49.8169 376.81 50.4501C376.766 50.8452 376.592 51.0854 376.286 51.1708L372.905 51.0558C372.568 51.007 372.388 50.8466 372.365 50.5748C372.359 50.5166 372.363 50.4478 372.376 50.3684C372.554 48.6115 373.252 47.2591 374.469 46.3113C375.685 45.3636 377.153 44.7656 378.87 44.5175L379.598 44.4539C381.809 44.2604 383.585 44.6822 384.927 45.7192C385.138 45.8972 385.337 46.0908 385.52 46.2983C385.704 46.5072 385.852 46.6947 385.965 46.861C386.077 47.0273 386.186 47.2721 386.293 47.5954C386.399 47.9187 386.477 48.1417 386.527 48.2645C386.577 48.3873 386.63 48.6567 386.686 49.0724C386.742 49.4882 386.773 49.7349 386.78 49.8126L387.397 56.8609C387.441 57.3657 387.554 57.8205 387.736 58.2252C387.918 58.6299 388.085 58.9186 388.237 59.0912C388.389 59.2638 388.637 59.5404 388.984 59.921C389.115 60.0855 389.187 60.2358 389.199 60.3717C389.212 60.527 389.147 60.6697 389.002 60.7998C387.514 62.3387 386.708 63.1723 386.582 63.3007C386.365 63.4958 386.085 63.5398 385.744 63.4327C385.452 63.2235 385.194 63.021 384.972 62.8252C384.75 62.6295 384.591 62.4868 384.495 62.3974C384.399 62.3079 384.242 62.1309 384.023 61.8664C383.805 61.6018 383.652 61.4243 383.566 61.334C382.584 62.6135 381.582 63.4447 380.56 63.8275C379.917 64.0794 379.111 64.2478 378.141 64.3326C376.648 64.4633 375.381 64.1095 374.34 63.2711C373.299 62.4328 372.705 61.1691 372.557 59.4798ZM377.51 58.4595C377.577 59.2168 377.819 59.807 378.237 60.2302C378.655 60.6534 379.184 60.837 379.824 60.781C379.882 60.7759 379.964 60.759 380.069 60.7302C380.174 60.7015 380.246 60.6854 380.285 60.682C381.081 60.3972 381.665 59.8178 382.038 58.9438C382.219 58.5562 382.344 58.1393 382.412 57.6931C382.481 57.2469 382.508 56.8875 382.494 56.6148C382.48 56.3421 382.446 55.8951 382.391 55.2737L382.328 54.5456C381.203 54.644 380.356 54.7964 379.788 55.0026C378.123 55.6374 377.364 56.7897 377.51 58.4595ZM390.55 66.7688C390.582 66.6877 390.633 66.605 390.704 66.5205C391.16 66.148 391.606 65.884 392.042 65.7284C392.762 65.4698 393.47 65.3002 394.167 65.2197C394.359 65.1833 394.544 65.1769 394.722 65.2005C395.602 65.2018 396.138 65.3016 396.332 65.4999C396.419 65.6096 396.473 65.781 396.494 66.014L396.512 66.2179C396.571 66.8974 396.457 67.7145 396.169 68.669C395.881 69.6236 395.432 70.4113 394.822 71.032C394.732 71.1182 394.648 71.1647 394.57 71.1714C394.532 71.1748 394.492 71.1685 394.451 71.1525C394.33 71.1044 394.292 71.0002 394.336 70.8398C394.906 69.0877 395.162 67.8816 395.104 67.2214C395.086 67.0079 395.033 66.8559 394.947 66.7656C394.733 66.5496 394.18 66.4806 393.287 66.5586C392.958 66.5875 392.571 66.6408 392.129 66.7187C391.649 66.8194 391.208 66.9167 390.806 67.0105C390.689 67.0207 390.61 67.0081 390.568 66.9727C390.526 66.9372 390.513 66.8992 390.529 66.8587C390.527 66.8393 390.534 66.8093 390.55 66.7688Z" fill="black"/>
<path d="M417.193 38.7738L417.53 38.7444L420.493 72.615L420.156 72.6445L417.193 38.7738Z" fill="black"/>
<path fill-rule="evenodd" clip-rule="evenodd" d="M477.785 36.8857C489.649 35.8529 498.98 36.5107 505.447 38.3511C511.863 40.1771 515.685 43.2453 516.031 47.1959C516.376 51.1448 513.15 54.8559 507.147 57.7806C501.099 60.7279 492.023 62.9937 480.154 63.9811C468.399 65.0095 459.071 64.3536 452.581 62.5169C446.144 60.6955 442.265 57.6333 441.919 53.6798C441.573 49.7262 444.861 46.037 450.884 43.1245C456.957 40.1875 466.029 37.9194 477.784 36.8858L477.785 36.8857ZM451.357 44.0963C445.396 46.979 442.717 50.3638 442.999 53.5853C443.281 56.8066 446.507 59.675 452.877 61.4777C459.194 63.2652 468.377 63.9271 480.061 62.9049L480.062 62.9047L480.063 62.9047C491.86 61.9234 500.789 59.6768 506.672 56.8102C512.601 53.9208 515.233 50.5163 514.951 47.2904C514.669 44.0658 511.49 41.1946 505.148 39.3898C498.857 37.5994 489.672 36.9352 477.879 37.9619C466.195 38.9892 457.267 41.238 451.357 44.0963Z" fill="black"/>
<path d="M479.225 52.3216C478.88 54.0852 477.821 54.2798 477.111 54.3723C476.401 54.4661 475.977 54.2886 475.889 53.5108C475.712 51.9457 476.64 51.2734 478.144 51.1418C479.5 51.0232 479.36 51.6819 479.255 52.1695C479.244 52.2226 479.233 52.2738 479.225 52.3216Z" fill="black"/>
<path d="M505.445 50.0276C505.101 51.7911 504.041 51.9859 503.331 52.0784C502.622 52.1721 502.197 51.9946 502.109 51.2168C501.933 49.6517 502.861 48.9794 504.365 48.8478C505.722 48.7291 505.58 49.3885 505.476 49.8761C505.465 49.9291 505.454 49.98 505.445 50.0276Z" fill="black"/>
<path d="M466.578 49.9915C466.465 50.4096 466.91 50.3706 466.91 50.3706L469.235 50.1676C469.977 50.1027 470.697 49.7844 471.086 48.5267C471.474 47.269 470.607 47.0391 470.112 47.0824L468.529 47.2209C467.144 47.3421 466.89 48.4347 466.89 48.4347C466.89 48.4347 466.691 49.5739 466.578 49.9915Z" fill="black"/>
<path d="M465.555 54.823C465.442 55.2407 465.887 55.2017 465.887 55.2017L468.212 54.9987C468.954 54.9338 469.965 54.1827 470.243 53.1382C470.658 51.6228 469.692 51.4016 469.197 51.4449L467.02 51.6353C466.229 51.7045 466.084 52.3288 466.084 52.3288C466.084 52.3288 465.668 54.4054 465.555 54.823Z" fill="black"/>
<path fill-rule="evenodd" clip-rule="evenodd" d="M483.659 38.9629C464.415 40.6572 454.112 46.5349 454.644 52.6169C455.176 58.6992 466.345 62.7087 485.589 61.025C505.02 59.4068 515.137 53.4533 514.605 47.3709C514.073 41.289 503.083 37.2738 483.659 38.9629ZM480.461 55.2547L480.461 55.2546L480.463 55.2544C480.58 55.243 480.665 55.2346 480.695 55.232C480.845 55.2189 480.91 55.0607 480.91 55.0607C480.91 55.0607 481.625 51.8367 482.167 49.2604C482.687 46.7915 480.27 46.9578 478.863 47.0546C478.802 47.0588 478.742 47.0629 478.685 47.0666C477.317 47.1555 475.677 47.6661 475.485 47.7543C475.294 47.8426 475.26 48.0289 475.26 48.0289C475.26 48.0289 475.26 48.3656 475.228 48.5722C475.196 48.7793 475.394 48.762 475.394 48.762C475.394 48.762 477.207 48.3991 478.448 48.3415C479.689 48.2839 479.99 48.8696 479.89 49.4391C479.79 50.0089 479.291 50.0012 479.291 50.0012C475.014 50.1205 474.123 50.9836 473.617 52.9451C473.169 54.6667 473.972 55.8715 476.194 55.6258C478.169 55.4123 478.493 55.1189 478.493 55.1189C478.493 55.1189 478.54 55.0946 478.645 55.1569C478.751 55.2192 478.787 55.297 478.787 55.297C478.787 55.297 478.844 55.3738 478.994 55.3808C479.112 55.387 480.015 55.2985 480.46 55.2547L480.461 55.2547ZM483.814 48.7081C483.597 49.645 482.441 54.8963 482.441 54.8963C482.441 54.8963 482.41 55.103 482.655 55.0605C482.783 55.0422 483.612 54.9733 484.104 54.9325L484.104 54.9325L484.105 54.9324C484.26 54.9195 484.382 54.9094 484.437 54.9047C484.664 54.8847 484.733 54.6444 484.733 54.6444C484.733 54.6444 485.798 49.9621 486.046 48.7986C486.292 47.6347 487.361 47.5309 487.578 47.5119C487.778 47.4944 488.074 47.5287 488.356 47.5613L488.431 47.57C488.653 47.6016 488.732 47.36 488.732 47.36C488.732 47.36 488.774 46.9284 488.806 46.7213C488.837 46.5147 488.529 46.4093 488.529 46.4093C488.529 46.4093 488.07 46.2965 486.782 46.3886C484.553 46.5533 484.031 47.7712 483.814 48.7081ZM490.303 54.1571L492.05 46.2032C492.05 46.2032 492.124 45.9212 491.848 45.9454L490.067 46.1013C489.819 46.1229 489.77 46.3517 489.77 46.3517L488.012 54.4089C488.012 54.4089 487.98 54.6156 488.225 54.5732C488.353 54.5548 489.183 54.486 489.674 54.4452L489.675 54.4451L489.675 54.4451C489.83 54.4322 489.952 54.4221 490.007 54.4173C490.234 54.3974 490.303 54.1571 490.303 54.1571ZM492.376 44.5732L492.76 42.9286C492.76 42.9286 492.836 42.6466 492.558 42.6708L490.777 42.8267C490.53 42.8483 490.48 43.0771 490.48 43.0771L490.085 44.8249C490.085 44.8249 490.053 45.0313 490.299 44.9896C490.426 44.9707 491.256 44.9021 491.748 44.8615C491.903 44.8487 492.025 44.8386 492.08 44.8338C492.307 44.8139 492.376 44.5732 492.376 44.5732ZM494.212 53.8147L496.492 43.4177C496.492 43.4177 496.567 43.1361 496.29 43.1599L494.509 43.3157C494.262 43.3373 494.212 43.5662 494.212 43.5662L491.92 54.0666C491.92 54.0666 491.888 54.2733 492.134 54.2309C492.261 54.2125 493.091 54.1436 493.583 54.1028C493.739 54.0899 493.861 54.0798 493.915 54.075C494.142 54.0551 494.212 53.8147 494.212 53.8147ZM498.07 53.4772L500.351 43.0801C500.351 43.0801 500.426 42.7985 500.149 42.8223L498.368 42.9781C498.121 42.9998 498.071 43.2285 498.071 43.2285L495.78 53.7289C495.78 53.7289 495.747 53.9356 495.993 53.8932C496.12 53.8749 496.95 53.806 497.442 53.7652L497.442 53.7651C497.598 53.7522 497.719 53.7422 497.774 53.7374C498.002 53.7175 498.07 53.4772 498.07 53.4772ZM506.681 52.9607C506.799 52.9491 506.885 52.9407 506.916 52.9379C507.065 52.925 507.131 52.7667 507.131 52.7667C507.131 52.7667 507.846 49.5426 508.388 46.9664C508.908 44.4975 506.491 44.6638 505.084 44.7606C505.023 44.7648 504.963 44.7689 504.906 44.7726C503.538 44.8614 501.898 45.372 501.706 45.4603C501.514 45.5486 501.481 45.7349 501.481 45.7349C501.481 45.7349 501.48 46.0716 501.448 46.2783C501.417 46.4853 501.615 46.468 501.615 46.468C501.615 46.468 503.427 46.1051 504.668 46.0475C505.91 45.9899 506.21 46.5757 506.111 47.145C506.011 47.7149 505.512 47.7072 505.512 47.7072C501.235 47.8265 500.344 48.6896 499.837 50.6511C499.389 52.3727 500.193 53.5776 502.415 53.3318C504.39 53.1182 504.714 52.8248 504.714 52.8248C504.714 52.8248 504.761 52.8005 504.866 52.8629C504.971 52.9252 505.008 53.003 505.008 53.003C505.008 53.003 505.064 53.0798 505.215 53.0868C505.333 53.093 506.235 53.0045 506.681 52.9607ZM464.48 48.238L462.709 56.4797C462.709 56.4797 462.638 56.8118 463.014 56.779C464.39 56.6651 465.24 56.589 466.303 56.4939L466.304 56.4938C466.923 56.4384 467.615 56.3764 468.525 56.2968C470.999 56.0804 472.003 55.0245 472.595 53.2385C473.187 51.4532 472.679 50.7836 471.902 50.4439C472.712 50.0162 473.099 49.3193 473.38 47.969C473.898 45.4561 471.629 45.6238 470.788 45.6973L467.424 45.9917C465 46.2037 464.48 48.238 464.48 48.238Z" fill="black"/>
<path d="M537.456 28.2522L537.793 28.2227L540.756 62.0934L540.419 62.1228L537.456 28.2522Z" fill="black"/>
<path fill-rule="evenodd" clip-rule="evenodd" d="M585.78 58.7819C583.572 39.3042 579.059 27.8795 579.059 27.8795C575.428 18.9948 571.494 28.7099 571.494 28.7099C566.835 39.0165 569.124 63.0245 569.124 63.0245L563.96 63.4763C563.96 63.4763 563.261 43.0226 567.62 30.4842C567.62 30.4842 570.883 21.5733 575.065 21.5593C575.065 21.5593 581.522 20.296 586.583 38.8276C588.349 19.6988 594.927 19.8216 594.927 19.8216C599.048 19.1093 603.809 27.3181 603.809 27.3181C610.279 38.9091 613.143 59.1733 613.143 59.1733L607.978 59.6252C607.978 59.6252 606.064 35.5844 599.686 26.2435C599.686 26.2435 594.124 17.3591 592.091 26.7393C592.091 26.7393 589.631 38.7741 590.838 58.3393L585.78 58.7819Z" fill="black"/>
<path d="M632.79 19.9115L633.127 19.8821L636.09 53.7527L635.754 53.7822L632.79 19.9115Z" fill="black"/>
<path d="M-315 180.096L383.332 119L389.259 186.741L-309.073 247.837L-315 180.096Z" fill="white"/>
<path fill-rule="evenodd" clip-rule="evenodd" d="M-272.011 216.608L-278.883 204.922L-275.54 204.63L-272.531 210.53L-270.064 204.151L-266.933 210.041L-264.794 203.69L-261.59 203.409L-266.372 216.115L-269.608 210.553L-272.011 216.608ZM-251.388 214.804L-254.304 215.059L-256.03 212.871L-260.416 213.27L-261.298 215.671L-264.422 215.944L-258.897 203.174L-251.388 214.804ZM-256.649 211.504L-258.566 208.023L-260.073 211.804L-256.649 211.504ZM-250.601 214.735L-251.639 202.872L-242.999 208.814L-243.61 201.836L-241.114 201.618L-240.003 213.808L-248.547 208.432L-248.06 214.512L-250.601 214.735ZM-225.817 212.566L-226.855 200.703L-219.805 200.086L-219.637 202.006L-223.744 202.365L-223.524 204.879L-220.211 204.589L-220.015 206.836L-223.328 207.126L-223.087 209.875L-218.798 209.499L-218.585 211.934L-225.817 212.566ZM-234.419 213.319L-235.388 201.117L-233.03 200.911L-232.176 210.67L-227.402 210.252L-227.189 212.686L-234.419 213.319ZM-217.012 211.676L-218.049 199.812L-210.999 199.195L-210.831 201.115L-214.938 201.474L-214.718 203.988L-211.405 203.698L-211.209 205.944L-214.522 206.234L-214.281 208.984L-209.992 208.609L-209.779 211.043L-217.012 211.676L-217.012 211.676Z" fill="black"/>
<path d="M-188.876 186.126L-188.539 186.097L-185.576 219.967L-185.913 219.997L-188.876 186.126Z" fill="black"/>
<path fill-rule="evenodd" clip-rule="evenodd" d="M-156.21 205.646L-156.14 205.078L-158.051 202.479L-158.606 205.294C-158.853 206.599 -159.468 206.894 -159.91 206.892C-160.351 206.89 -160.73 206.683 -160.509 205.541L-159.508 200.482L-161.319 198.114L-162.889 205.829C-163.422 208.442 -162.755 210.107 -160.724 210.411C-159.828 210.573 -159.057 210.225 -158.386 209.645L-155.088 213.887L-152.366 210.642L-156.21 205.646ZM-145.136 189.723L-138.617 188.631L-139.483 193.398L-142.724 193.922L-143.159 196.286L-139.917 195.761L-140.657 199.675L-143.859 200.196L-144.297 202.519L-141.056 201.995L-141.925 206.722L-148.48 207.857L-145.136 189.723ZM-152.838 191.038L-154.359 199.31L-149.349 206.169C-149.008 205.938 -148.848 205.483 -148.793 205.197L-145.964 189.875L-148.649 190.351L-150.532 200.9C-150.808 202.327 -152.01 202.793 -151.734 200.443L-150.15 190.602L-152.838 191.038ZM-140.267 201.846L-141.136 206.573C-139.946 206.429 -137.355 205.801 -136.415 205.558C-135.474 205.316 -133.905 204.457 -133.079 202.901C-132.253 201.345 -132.373 199.511 -133.091 197.73C-133.808 195.948 -134.159 195.137 -134.454 194.521C-134.748 193.906 -135.019 192.646 -133.518 192.395L-130.2 191.824L-132.642 205.148L-128.931 204.503L-126.449 191.175L-124.195 190.817L-123.365 186.094L-133.954 187.862C-135.574 188.125 -137.034 188.853 -137.769 190.081C-138.503 191.307 -139.398 193.912 -138.381 195.907L-137.505 197.675C-136.93 198.748 -135.379 200.897 -140.267 201.846ZM-159.969 191.542C-159.697 190.074 -158.891 186.917 -155.827 186.649C-153.802 186.431 -152.905 187.516 -153.502 190.776L-154.906 198.556L-156.86 195.921L-156.027 191.237C-155.748 189.849 -157.516 189.803 -157.935 191.885L-158.322 193.883L-159.969 191.542ZM-149.682 207.401L-150.336 208.18L-163.731 189.786L-163.077 189.007L-149.682 207.401ZM-150.953 208.915L-151.607 209.694L-165.002 191.3L-164.348 190.521L-150.953 208.915Z" fill="black"/>
<path d="M-100.953 178.434L-100.616 178.404L-97.6529 212.275L-97.9898 212.305L-100.953 178.434Z" fill="black"/>
<path d="M-48.7036 206.286L-58.9418 207.182C-59.7669 207.254 -60.5751 206.942 -61.0556 206.681C-61.4836 207.022 -62.1552 207.463 -62.9902 207.536L-72.2605 208.347L-75.1065 206.122L-75.3035 203.871L-67.3519 203.184C-67.5503 202.959 -67.7256 202.714 -67.875 202.453C-72.8245 202.889 -75.6344 200.088 -75.9306 196.704L-76.9424 185.138L-71.9037 184.697C-70.3966 184.566 -69.1447 185.481 -68.318 186.67L-65.8305 190.246L-65.3217 190.201L-65.658 186.357L-70.9744 182L-73.0627 182.185L-75.7454 179.987L-75.9236 177.951L-63.3743 176.853L-61.0265 178.64L-60.7621 181.663L-60.0629 182.201L-55.4746 178.553C-55.1202 178.295 -55.0928 178.055 -55.4771 178.091L-56.6938 178.201L-56.8616 176.283L-49.1136 175.605L-46.6101 177.649L-46.4512 179.555L-48.6665 179.752L-51.3943 182.014L-51.3187 182.897L-50.7536 182.847L-48.7036 206.286ZM-62.5101 199.187C-61.6789 199.943 -60.5078 201.066 -59.9226 202.526L-55.5436 202.142L-55.9531 197.462L-60.7169 197.888C-62.0379 198.021 -62.4058 198.697 -62.5101 199.187Z" fill="black"/>
<path d="M-70.6998 193.088L-70.6997 193.088L-69.6784 192.998C-69.7689 193.9 -70.3966 194.627 -71.2134 194.699L-73.5979 194.907L-73.5203 195.794L-70.9178 195.567C-69.5838 195.45 -68.6086 194.068 -68.7466 192.491C-68.8344 191.487 -69.3523 190.64 -70.0607 190.187C-69.4382 189.658 -69.0691 188.805 -69.1499 187.881C-69.2768 186.43 -70.4684 185.342 -71.8021 185.459L-76.1216 185.837L-75.2372 195.945L-75.2356 195.945C-75.2335 195.979 -75.2312 196.013 -75.2282 196.047C-75.0628 197.938 -73.3792 199.345 -71.4804 199.178L-68.108 198.882C-68.1209 199.142 -68.116 199.404 -68.0933 199.664C-67.9406 201.41 -67.0105 202.89 -65.7142 203.727C-65.9032 203.79 -66.0988 203.83 -66.2971 203.848L-74.483 204.565L-74.4052 205.454L-66.2185 204.738C-64.3197 204.572 -62.9059 202.894 -63.0713 201.003C-63.2169 199.34 -64.5373 198.052 -66.1455 197.879C-66.2389 198.165 -66.3049 198.459 -66.3424 198.758C-65.107 198.842 -64.0773 199.815 -63.9665 201.081C-63.8941 201.908 -64.2306 202.681 -64.8081 203.2C-66.0927 202.577 -67.0499 201.222 -67.193 199.586C-67.4007 197.213 -65.8173 195.123 -63.6682 194.935L-56.7943 194.331L-56.8719 193.444L-63.7935 194.049C-65.8794 194.232 -67.5292 195.869 -67.9877 197.974L-71.5577 198.289C-72.964 198.412 -74.2107 197.37 -74.3333 195.97C-74.4558 194.569 -73.4089 193.327 -72.0027 193.203L-70.6998 193.088Z" fill="white"/>
<path d="M-74.8572 190.139L-75.1632 186.642L-71.8785 186.354C-70.9718 186.275 -70.1636 186.996 -70.0793 187.959C-69.995 188.922 -70.6658 189.773 -71.5725 189.852L-74.8572 190.139ZM-74.7794 191.029L-71.5591 190.747C-70.7565 190.677 -70.0237 191.262 -69.7654 192.11L-72.0811 192.313C-72.5646 192.354 -73.0339 192.498 -73.4586 192.734C-73.8834 192.97 -74.2543 193.293 -74.5473 193.682L-74.7794 191.029Z" fill="black"/>
<path d="M-64.6593 191.663L-65.1479 186.08L-73.6995 179.06L-74.9265 179.167L-74.9928 178.409L-64.0619 177.452L-63.9955 178.21L-66.0272 178.388L-60.0735 182.916L-54.8925 178.789C-54.5322 178.502 -54.2045 178.25 -54.2796 177.815C-54.3317 177.514 -54.545 177.384 -55.438 177.462L-56.2215 177.531L-56.288 176.77L-49.8009 176.203L-49.7344 176.963L-50.2321 177.006C-50.7629 177.053 -51.2385 177.26 -51.6649 177.625C-52.0901 177.99 -52.9308 178.636 -53.6199 179.203L-59.4497 183.999L-58.824 191.14L-57.0864 190.992L-57.0079 191.889L-67.6909 192.824L-67.7638 191.935L-64.6593 191.663Z" fill="white"/>
<path d="M-50.7542 182.847L-45.2993 182.37C-43.7454 182.234 -41.9559 183.058 -40.5367 184.577C-39.7337 185.436 -39.0492 186.457 -38.5358 187.447C-37.2195 189.986 -36.8432 193.25 -38.9977 195.438C-36.5681 196.711 -36.0386 200.717 -37.2211 202.968C-37.986 204.425 -39.4532 205.477 -41.208 205.631L-48.8823 206.302L-50.7542 182.847ZM-47.4183 191.828C-46.8574 191.778 -46.5255 191.22 -46.583 190.563L-46.8752 187.223L-47.814 187.305L-47.4183 191.828ZM-46.5845 201.359C-46.0235 201.31 -45.6945 200.718 -45.7556 200.021L-46.066 196.473L-47.0047 196.555L-46.5845 201.359Z" fill="black"/>
<path d="M-62.8308 203.546C-63.0589 203.923 -63.3625 204.267 -63.7039 204.518L-43.819 202.779C-41.0739 202.538 -39.0353 200.109 -39.2749 197.37C-39.4809 195.016 -40.9817 193.023 -42.6132 192.651C-41.0698 192.015 -39.9328 189.85 -40.1331 187.561C-40.3661 184.897 -42.7903 182.92 -45.5334 183.16L-57.9455 184.246L-57.8684 185.128L-56.5077 185.009L-54.9463 202.856L-62.8308 203.546ZM-45.2349 199.849C-45.1574 200.734 -45.3402 201.325 -45.7707 201.631C-46.0883 201.857 -46.7615 202.14 -47.854 202.235L-49.0342 202.339L-49.7883 193.718L-48.6082 193.615C-47.5155 193.519 -46.8034 193.681 -46.4517 193.848C-45.9746 194.075 -45.692 194.625 -45.6145 195.51L-45.2349 199.849ZM-46.0606 190.412C-45.9856 191.268 -46.1701 191.84 -46.6014 192.137C-46.9195 192.357 -47.5933 192.632 -48.6858 192.728L-49.866 192.831L-50.5955 184.492L-49.4154 184.389C-48.3227 184.293 -47.6112 184.447 -47.2601 184.608C-46.7837 184.826 -46.5027 185.358 -46.4278 186.214L-46.0606 190.412Z" fill="white"/>
<path d="M-16.0617 171.007L-15.7248 170.977L-12.7615 204.848L-13.0984 204.878L-16.0617 171.007Z" fill="black"/>
<path d="M12.7208 189.959L12.8192 190.177C12.8069 190.152 12.7712 190.076 12.7208 189.959ZM15.3934 184.599C15.4262 183.381 15.8369 182.665 16.6617 181.895C17.8464 180.846 19.4751 181.238 19.4751 181.238L19.1998 178.092C19.5836 178.048 19.9705 178.038 20.3561 178.063L20.7104 182.112C20.7104 182.112 19.0821 181.72 17.8974 182.769C17.0731 183.538 16.6615 184.255 16.6291 185.474C16.6821 186.129 16.8738 186.975 17.4761 187.668C17.3369 187.608 17.1943 187.538 17.0482 187.458C15.7908 186.725 15.4653 185.488 15.3934 184.599ZM26.3744 171.602C25.415 170.673 24.9966 169.687 24.8151 168.984L25.9113 168.888C25.9113 168.888 25.8563 170.777 27.6101 172.477L27.6344 172.499C27.1802 172.253 26.7571 171.951 26.3744 171.602ZM31.9044 173.991L32.2516 177.958C32.2516 177.958 30.8477 178.023 29.7882 177.836C28.3089 177.575 27.3278 177.061 27.3278 177.061C27.3278 177.061 26.6489 176.693 26.5944 176.668L27.3112 184.861C27.3511 185.318 27.3322 186.467 27.0536 187.449C26.6901 188.734 26.0328 189.613 25.9134 189.792C25.9134 189.792 25.1236 190.972 23.625 191.852C22.2742 192.645 21.0353 192.736 20.6669 192.786C20.6669 192.786 18.5356 193.062 16.4955 191.913C16.0539 191.659 15.6365 191.364 15.249 191.032L15.2592 191.039C17.2998 192.188 19.4306 191.911 19.4306 191.911C19.7995 191.862 21.0384 191.771 22.3887 190.977C23.8859 190.098 24.6771 188.917 24.6771 188.917C24.7951 188.739 25.4558 187.859 25.8173 186.574C26.095 185.593 26.1148 184.443 26.0749 183.987L25.3582 175.795C25.4127 175.82 26.0911 176.188 26.0911 176.188C26.0911 176.188 27.0727 176.702 28.5521 176.963C29.612 177.15 31.0154 177.085 31.0154 177.085L30.7434 173.976C31.2317 174.047 31.6422 174.042 31.9044 173.991Z" fill="#DDDDDD"/>
<path d="M30.7439 173.976L31.0158 177.084C31.0158 177.084 29.6124 177.149 28.5524 176.962C27.0731 176.701 26.0915 176.187 26.0915 176.187C26.0915 176.187 25.4131 175.819 25.3586 175.794L26.0755 183.988C26.1154 184.444 26.0965 185.594 25.8178 186.575C25.4544 187.86 24.7971 188.74 24.6777 188.918C24.6777 188.918 23.8874 190.099 22.3892 190.978C21.039 191.772 19.8 191.863 19.4312 191.912C19.4312 191.912 17.3004 192.189 15.2598 191.04L15.2496 191.033C15.0282 190.844 14.8177 190.642 14.6191 190.428C13.9357 189.693 13.4775 188.793 13.3596 188.535C13.3593 188.534 13.3592 188.533 13.3593 188.532C13.1666 188.083 12.7495 187 12.6991 185.921C12.6104 184.016 13.1425 182.795 13.2846 182.489C13.659 181.654 14.1742 180.892 14.8073 180.235C15.3669 179.667 16.0165 179.198 16.7293 178.846C17.4976 178.438 18.3361 178.182 19.1998 178.092L19.4751 181.238C19.4751 181.238 17.8465 180.848 16.6621 181.895C15.8374 182.665 15.4267 183.381 15.3939 184.599C15.4657 185.487 15.7913 186.725 17.0478 187.459C17.1938 187.539 17.3365 187.609 17.4756 187.669C17.707 187.934 17.9802 188.158 18.284 188.333C19.5072 189.002 20.4803 188.971 21.6749 188.363C22.4714 187.956 23.0271 187.148 23.2422 186.287C23.3777 185.75 23.3293 185.225 23.2818 184.682L21.9305 169.236L24.8127 168.984C24.9942 169.687 25.4126 170.673 26.3719 171.602C26.7547 171.952 27.1778 172.253 27.632 172.5C27.7709 172.627 28.4792 173.253 29.3483 173.599C29.7977 173.779 30.266 173.905 30.7439 173.976Z" fill="black"/>
<path d="M12.128 187.67L12.1282 187.672L12.2171 187.87C12.2069 187.847 12.1741 187.777 12.128 187.67Z" fill="#CCCCCC"/>
<path d="M16.7293 178.846C16.0165 179.198 15.3669 179.667 14.8073 180.235C14.1741 180.893 13.6592 181.657 13.2855 182.493C13.1433 182.799 12.6112 184.02 12.6999 185.925C12.7503 187.004 13.1675 188.087 13.3602 188.536C13.3601 188.537 13.3602 188.539 13.3605 188.54C13.4796 188.795 13.9364 189.695 14.62 190.432C14.8185 190.646 15.029 190.848 15.2504 191.038C14.5594 190.64 13.9304 190.141 13.3842 189.558C12.7067 188.829 12.2502 187.939 12.1284 187.675C12.1281 187.673 12.128 187.671 12.1279 187.669L12.1276 187.666C11.9344 187.217 11.5163 186.134 11.4668 185.053C11.3781 183.148 11.9102 181.928 12.0524 181.621C12.4259 180.785 12.9408 180.021 13.5741 179.363C14.1336 178.795 14.7832 178.325 15.4962 177.974C15.9397 177.74 16.4069 177.556 16.8896 177.424C17.6175 177.229 18.3715 177.152 19.1238 177.195L19.2022 178.092C18.3377 178.182 17.4984 178.438 16.7293 178.846Z" fill="#CCCCCC"/>
<path d="M24.8151 168.984L21.9329 169.236L23.2843 184.682C23.3318 185.225 23.3776 185.749 23.2446 186.288C23.0266 187.148 22.4733 187.956 21.6773 188.363C20.4824 188.973 19.5091 189.002 18.2864 188.333C17.9822 188.159 17.7085 187.935 17.4763 187.671C18.507 188.115 19.3871 188.029 20.4399 187.491C21.2354 187.084 21.7896 186.276 22.0067 185.415C22.1426 184.878 22.0942 184.353 22.0468 183.811L20.6952 168.362L24.675 168.013C24.675 168.013 24.6639 168.401 24.8151 168.984ZM30.6687 173.117L30.7439 173.976C30.2668 173.905 29.7993 173.778 29.3507 173.599C28.4815 173.253 27.7733 172.626 27.6344 172.499C27.7901 172.584 27.9506 172.659 28.115 172.725C29.1717 173.146 30.1818 173.211 30.6687 173.117Z" fill="#CCCCCC"/>
<path d="M27.4771 198.265C27.4865 198.376 27.5123 198.484 27.5537 198.587C27.5559 198.595 27.5588 198.602 27.5623 198.609C27.6609 198.852 27.8342 199.057 28.0566 199.194C28.279 199.331 28.539 199.393 28.7984 199.37L28.9069 200.611C28.3084 200.663 27.8818 200.722 27.1934 200.39C26.4129 200.011 25.9239 199.235 25.8502 198.392C25.7741 197.522 26.1657 196.61 26.9221 196.121C27.4719 195.766 27.9084 195.726 28.4767 195.676L28.5852 196.916C28.2627 196.945 27.9648 197.101 27.7569 197.351C27.549 197.601 27.4482 197.924 27.4767 198.25L27.4771 198.265Z" fill="#CCCCCC"/>
<path d="M29.9174 198.052C29.9271 198.162 29.9205 198.274 29.8979 198.382C29.8985 198.39 29.8948 198.397 29.8931 198.405C29.838 198.661 29.7031 198.894 29.5078 199.067C29.3126 199.241 29.0674 199.346 28.808 199.369L28.9165 200.61C29.5146 200.557 29.9454 200.541 30.5632 200.095C31.2685 199.586 31.6163 198.737 31.5425 197.894C31.4664 197.024 30.9224 196.194 30.0925 195.844C29.4895 195.59 29.0526 195.626 28.4849 195.675L28.5934 196.916C28.9157 196.888 29.2361 196.99 29.4842 197.2C29.7322 197.41 29.8876 197.711 29.916 198.036L29.9174 198.052Z" fill="#DDDDDD"/>
<path d="M9.56411 196.197L14.0657 195.803L13.759 197.089L12.5792 197.193L12.9977 201.976L11.5504 202.103L11.1319 197.319L9.67346 197.447L9.56411 196.197ZM21.4941 195.153L21.6034 196.403L23.0618 196.275L23.4803 201.059L24.9296 200.932L24.5111 196.149L25.6889 196.046L25.9956 194.759L21.4941 195.153ZM15.1697 197.142C15.3084 197.13 15.4403 197.076 15.5488 196.988C15.6573 196.9 15.7374 196.782 15.7791 196.648C15.8208 196.514 15.8221 196.37 15.783 196.235C15.7438 196.1 15.6659 195.98 15.5591 195.89C15.4523 195.8 15.3214 195.743 15.1829 195.728C15.0445 195.713 14.9047 195.739 14.7813 195.804C14.6579 195.869 14.5563 195.969 14.4896 196.092C14.4228 196.215 14.3937 196.356 14.406 196.496C14.4141 196.589 14.4404 196.679 14.4832 196.762C14.526 196.845 14.5845 196.918 14.6554 196.978C14.7264 197.038 14.8083 197.084 14.8966 197.112C14.9848 197.14 15.0776 197.15 15.1697 197.142ZM14.8711 201.812L16.2921 201.688L15.9326 197.579L14.5117 197.704L14.8711 201.812ZM20.9978 196.596L19.3357 196.741L18.0297 198.312L17.7822 195.483L16.3704 195.606L16.8935 201.635L18.3188 201.511L18.1814 199.94L18.5891 199.493L20.1454 201.349L21.6691 201.215L19.4122 198.5L20.9978 196.596ZM34.7826 197.157L36.3667 195.251L34.7051 195.397L33.3987 196.968L33.1511 194.138L31.7398 194.262L32.2605 200.291L33.6862 200.166L33.5488 198.595L33.9608 198.148L35.5172 200.004L37.0414 199.871L34.7826 197.157ZM31.1682 197.926C31.2874 199.288 30.275 200.49 28.9069 200.61C27.5388 200.729 26.3329 199.722 26.2137 198.359C26.0946 196.997 27.1071 195.795 28.4752 195.675C29.8433 195.556 31.0491 196.564 31.1683 197.927L31.1682 197.926ZM29.9063 198.036C29.8851 197.794 29.7931 197.563 29.6419 197.373C29.4907 197.183 29.2872 197.042 29.057 196.969C28.8267 196.895 28.5803 196.892 28.3487 196.96C28.117 197.028 27.9107 197.164 27.7557 197.35C27.6008 197.537 27.5042 197.765 27.4781 198.007C27.452 198.25 27.4977 198.494 27.6092 198.71C27.7208 198.926 27.8934 199.104 28.105 199.221C28.3167 199.339 28.5579 199.39 28.7983 199.369C29.1205 199.341 29.4181 199.185 29.6259 198.935C29.8337 198.685 29.9346 198.362 29.9064 198.037L29.9063 198.036Z" fill="black"/>
<path d="M57.0392 164.611L57.3761 164.582L60.3394 198.453L60.0025 198.482L57.0392 164.611Z" fill="black"/>
<path d="M82.5264 187.547C82.6097 187.383 82.764 187.36 82.9893 187.477C88.0845 189.868 93.4833 190.814 99.1856 190.315C102.987 189.983 106.678 188.946 110.259 187.204C110.352 187.157 110.488 187.086 110.665 186.992C110.843 186.899 110.969 186.829 111.043 186.783C111.323 186.641 111.556 186.68 111.742 186.898C111.927 187.117 111.892 187.335 111.638 187.553C111.311 187.836 110.89 188.166 110.376 188.544C108.795 189.68 107 190.61 104.991 191.333C102.983 192.057 100.999 192.504 99.0403 192.676C96.0146 192.941 93.1074 192.662 90.3189 191.839C87.5303 191.017 84.9852 189.738 82.6835 188.002C82.5586 187.916 82.492 187.824 82.4835 187.726C82.4784 187.668 82.4926 187.608 82.5264 187.547ZM90.5573 178.48C90.44 177.14 90.6695 175.966 91.2457 174.956C91.8219 173.947 92.661 173.15 93.7629 172.564C94.7711 172.026 96.0329 171.593 97.5482 171.265C98.0668 171.161 98.9134 171.008 100.088 170.808L100.045 170.313C99.936 169.07 99.7272 168.247 99.4183 167.844C98.96 167.297 98.2944 167.061 97.4216 167.138L97.1889 167.158C96.5539 167.272 96.019 167.525 95.5841 167.915C95.1492 168.305 94.891 168.817 94.8096 169.45C94.766 169.845 94.5915 170.085 94.2863 170.171L90.9049 170.056C90.5684 170.007 90.3883 169.847 90.3645 169.575C90.3594 169.517 90.3631 169.448 90.3757 169.368C90.5543 167.611 91.2519 166.259 92.4687 165.311C93.6854 164.364 95.1526 163.766 96.8704 163.518L97.5977 163.454C99.8088 163.26 101.585 163.682 102.927 164.719C103.138 164.897 103.337 165.091 103.52 165.298C103.704 165.507 103.852 165.695 103.965 165.861C104.077 166.027 104.186 166.272 104.293 166.595C104.399 166.919 104.477 167.142 104.527 167.265C104.577 167.387 104.63 167.657 104.686 168.072C104.742 168.488 104.773 168.735 104.78 168.813L105.397 175.861C105.441 176.366 105.554 176.82 105.736 177.225C105.918 177.63 106.085 177.919 106.237 178.091C106.389 178.264 106.637 178.54 106.984 178.921C107.115 179.086 107.187 179.236 107.199 179.372C107.212 179.527 107.147 179.67 107.002 179.8C105.514 181.339 104.708 182.172 104.582 182.301C104.365 182.496 104.085 182.54 103.744 182.433C103.452 182.223 103.194 182.021 102.972 181.825C102.75 181.629 102.591 181.487 102.495 181.397C102.399 181.308 102.242 181.131 102.023 180.866C101.805 180.602 101.652 180.424 101.566 180.334C100.584 181.614 99.5817 182.445 98.5598 182.828C97.9173 183.079 97.1112 183.248 96.1414 183.333C94.6479 183.463 93.3809 183.109 92.3401 182.271C91.2993 181.433 90.705 180.169 90.5573 178.48ZM95.5103 177.459C95.5766 178.217 95.8188 178.807 96.2369 179.23C96.655 179.653 97.1842 179.837 97.8242 179.781C97.8824 179.776 97.964 179.759 98.0689 179.73C98.1739 179.701 98.2458 179.685 98.2846 179.682C99.0805 179.397 99.665 178.818 100.038 177.944C100.219 177.556 100.344 177.139 100.412 176.693C100.481 176.247 100.508 175.887 100.494 175.615C100.48 175.342 100.446 174.895 100.391 174.274L100.328 173.546C99.2026 173.644 98.356 173.796 97.7877 174.003C96.1233 174.637 95.3643 175.79 95.5103 177.459ZM108.55 185.769C108.582 185.688 108.633 185.605 108.704 185.521C109.16 185.148 109.606 184.884 110.042 184.728C110.762 184.47 111.47 184.3 112.167 184.22C112.359 184.183 112.544 184.177 112.722 184.2C113.602 184.202 114.138 184.302 114.332 184.5C114.419 184.61 114.473 184.781 114.494 185.014L114.512 185.218C114.571 185.897 114.457 186.715 114.169 187.669C113.881 188.624 113.432 189.411 112.822 190.032C112.732 190.118 112.648 190.165 112.57 190.171C112.532 190.175 112.492 190.169 112.451 190.152C112.33 190.104 112.292 190 112.336 189.84C112.906 188.088 113.162 186.882 113.104 186.221C113.086 186.008 113.033 185.856 112.947 185.766C112.733 185.55 112.18 185.481 111.287 185.559C110.958 185.587 110.571 185.641 110.129 185.719C109.649 185.819 109.208 185.917 108.806 186.011C108.689 186.021 108.61 186.008 108.568 185.973C108.526 185.937 108.513 185.899 108.529 185.859C108.527 185.839 108.534 185.809 108.55 185.769Z" fill="black"/>
<path d="M135.193 157.774L135.53 157.744L138.493 191.615L138.156 191.644L135.193 157.774Z" fill="black"/>
<path fill-rule="evenodd" clip-rule="evenodd" d="M195.785 155.886C207.649 154.853 216.98 155.511 223.447 157.351C229.863 159.177 233.685 162.245 234.031 166.196C234.376 170.145 231.15 173.856 225.147 176.781C219.099 179.728 210.023 181.994 198.154 182.981C186.399 184.009 177.071 183.354 170.581 181.517C164.144 179.696 160.265 176.633 159.919 172.68C159.573 168.726 162.861 165.037 168.884 162.124C174.957 159.187 184.029 156.919 195.784 155.886L195.785 155.886ZM169.357 163.096C163.396 165.979 160.717 169.364 160.999 172.585C161.281 175.807 164.507 178.675 170.877 180.478C177.194 182.265 186.377 182.927 198.061 181.905L198.062 181.905L198.063 181.905C209.86 180.923 218.789 178.677 224.672 175.81C230.601 172.921 233.233 169.516 232.951 166.29C232.669 163.066 229.49 160.195 223.148 158.39C216.857 156.599 207.672 155.935 195.879 156.962C184.195 157.989 175.267 160.238 169.357 163.096Z" fill="black"/>
<path d="M197.225 171.322C196.88 173.085 195.821 173.28 195.111 173.372C194.401 173.466 193.977 173.289 193.889 172.511C193.712 170.946 194.64 170.273 196.144 170.142C197.5 170.023 197.36 170.682 197.255 171.169C197.244 171.223 197.233 171.274 197.225 171.322Z" fill="black"/>
<path d="M223.445 169.028C223.101 170.791 222.041 170.986 221.331 171.078C220.622 171.172 220.197 170.995 220.109 170.217C219.933 168.652 220.861 167.979 222.365 167.848C223.722 167.729 223.58 168.388 223.476 168.876C223.465 168.929 223.454 168.98 223.445 169.028Z" fill="black"/>
<path d="M184.578 168.992C184.465 169.41 184.91 169.371 184.91 169.371L187.235 169.168C187.977 169.103 188.697 168.784 189.086 167.527C189.474 166.269 188.607 166.039 188.112 166.082L186.529 166.221C185.144 166.342 184.89 167.435 184.89 167.435C184.89 167.435 184.691 168.574 184.578 168.992Z" fill="black"/>
<path d="M183.555 173.823C183.442 174.241 183.887 174.202 183.887 174.202L186.212 173.999C186.954 173.934 187.965 173.183 188.243 172.138C188.658 170.623 187.692 170.402 187.197 170.445L185.02 170.635C184.229 170.705 184.084 171.329 184.084 171.329C184.084 171.329 183.668 173.405 183.555 173.823Z" fill="black"/>
<path fill-rule="evenodd" clip-rule="evenodd" d="M201.659 157.963C182.415 159.657 172.112 165.535 172.644 171.617C173.176 177.699 184.345 181.709 203.589 180.025C223.02 178.407 233.137 172.453 232.605 166.371C232.073 160.289 221.083 156.274 201.659 157.963ZM198.461 174.255L198.461 174.255L198.463 174.254C198.58 174.243 198.665 174.235 198.695 174.232C198.845 174.219 198.91 174.061 198.91 174.061C198.91 174.061 199.625 170.837 200.167 168.26C200.687 165.792 198.27 165.958 196.863 166.055C196.802 166.059 196.742 166.063 196.685 166.067C195.317 166.155 193.677 166.666 193.485 166.754C193.294 166.843 193.26 167.029 193.26 167.029C193.26 167.029 193.26 167.366 193.228 167.572C193.196 167.779 193.394 167.762 193.394 167.762C193.394 167.762 195.207 167.399 196.448 167.341C197.689 167.284 197.99 167.87 197.89 168.439C197.79 169.009 197.291 169.001 197.291 169.001C193.014 169.12 192.123 169.984 191.617 171.945C191.169 173.667 191.972 174.872 194.194 174.626C196.169 174.412 196.493 174.119 196.493 174.119C196.493 174.119 196.54 174.095 196.645 174.157C196.751 174.219 196.787 174.297 196.787 174.297C196.787 174.297 196.844 174.374 196.994 174.381C197.112 174.387 198.015 174.298 198.46 174.255L198.461 174.255ZM201.814 167.708C201.597 168.645 200.441 173.896 200.441 173.896C200.441 173.896 200.41 174.103 200.655 174.06C200.783 174.042 201.612 173.973 202.104 173.933L202.104 173.932L202.105 173.932C202.26 173.92 202.382 173.909 202.437 173.905C202.664 173.885 202.733 173.644 202.733 173.644C202.733 173.644 203.798 168.962 204.046 167.799C204.292 166.635 205.361 166.531 205.578 166.512C205.778 166.494 206.074 166.529 206.356 166.561L206.431 166.57C206.653 166.602 206.732 166.36 206.732 166.36C206.732 166.36 206.774 165.928 206.806 165.721C206.837 165.515 206.529 165.409 206.529 165.409C206.529 165.409 206.07 165.297 204.782 165.389C202.553 165.553 202.031 166.771 201.814 167.708ZM208.303 173.157L210.05 165.203C210.05 165.203 210.124 164.921 209.848 164.945L208.067 165.101C207.819 165.123 207.77 165.352 207.77 165.352L206.012 173.409C206.012 173.409 205.98 173.616 206.225 173.573C206.353 173.555 207.183 173.486 207.674 173.445L207.675 173.445L207.675 173.445C207.83 173.432 207.952 173.422 208.007 173.417C208.234 173.397 208.303 173.157 208.303 173.157ZM210.376 163.573L210.76 161.929C210.76 161.929 210.836 161.647 210.558 161.671L208.777 161.827C208.53 161.848 208.48 162.077 208.48 162.077L208.085 163.825C208.085 163.825 208.053 164.031 208.299 163.99C208.426 163.971 209.256 163.902 209.748 163.862C209.903 163.849 210.025 163.839 210.08 163.834C210.307 163.814 210.376 163.573 210.376 163.573ZM212.212 172.815L214.492 162.418C214.492 162.418 214.567 162.136 214.29 162.16L212.509 162.316C212.262 162.337 212.212 162.566 212.212 162.566L209.92 173.067C209.92 173.067 209.888 173.273 210.134 173.231C210.261 173.212 211.091 173.144 211.583 173.103C211.739 173.09 211.861 173.08 211.915 173.075C212.142 173.055 212.212 172.815 212.212 172.815ZM216.07 172.477L218.351 162.08C218.351 162.08 218.426 161.798 218.149 161.822L216.368 161.978C216.121 162 216.071 162.229 216.071 162.229L213.78 172.729C213.78 172.729 213.747 172.936 213.993 172.893C214.12 172.875 214.95 172.806 215.442 172.765L215.442 172.765C215.598 172.752 215.719 172.742 215.774 172.737C216.002 172.717 216.07 172.477 216.07 172.477ZM224.681 171.961C224.799 171.949 224.885 171.941 224.916 171.938C225.065 171.925 225.131 171.767 225.131 171.767C225.131 171.767 225.846 168.543 226.388 165.966C226.908 163.497 224.491 163.664 223.084 163.761C223.023 163.765 222.963 163.769 222.906 163.773C221.538 163.861 219.898 164.372 219.706 164.46C219.514 164.549 219.481 164.735 219.481 164.735C219.481 164.735 219.48 165.072 219.448 165.278C219.417 165.485 219.615 165.468 219.615 165.468C219.615 165.468 221.427 165.105 222.668 165.048C223.91 164.99 224.21 165.576 224.111 166.145C224.011 166.715 223.512 166.707 223.512 166.707C219.235 166.826 218.344 167.69 217.837 169.651C217.389 171.373 218.193 172.578 220.415 172.332C222.39 172.118 222.714 171.825 222.714 171.825C222.714 171.825 222.761 171.8 222.866 171.863C222.971 171.925 223.008 172.003 223.008 172.003C223.008 172.003 223.064 172.08 223.215 172.087C223.333 172.093 224.235 172.005 224.681 171.961ZM182.48 167.238L180.709 175.48C180.709 175.48 180.638 175.812 181.014 175.779C182.39 175.665 183.24 175.589 184.303 175.494L184.304 175.494C184.923 175.438 185.615 175.376 186.525 175.297C188.999 175.08 190.003 174.024 190.595 172.238C191.187 170.453 190.679 169.784 189.902 169.444C190.712 169.016 191.099 168.319 191.38 166.969C191.898 164.456 189.629 164.624 188.788 164.697L185.424 164.992C183 165.204 182.48 167.238 182.48 167.238Z" fill="black"/>
<path d="M255.456 147.252L255.793 147.223L258.756 181.093L258.419 181.123L255.456 147.252Z" fill="black"/>
<path fill-rule="evenodd" clip-rule="evenodd" d="M303.78 177.782C301.572 158.304 297.059 146.879 297.059 146.879C293.428 137.995 289.494 147.71 289.494 147.71C284.835 158.016 287.124 182.024 287.124 182.024L281.96 182.476C281.96 182.476 281.261 162.023 285.62 149.484C285.62 149.484 288.883 140.573 293.065 140.559C293.065 140.559 299.522 139.296 304.583 157.828C306.349 138.699 312.927 138.822 312.927 138.822C317.048 138.109 321.809 146.318 321.809 146.318C328.279 157.909 331.143 178.173 331.143 178.173L325.978 178.625C325.978 178.625 324.064 154.584 317.686 145.243C317.686 145.243 312.124 136.359 310.091 145.739C310.091 145.739 307.631 157.774 308.838 177.339L303.78 177.782Z" fill="black"/>
<path d="M350.79 138.912L351.127 138.882L354.09 172.753L353.754 172.782L350.79 138.912Z" fill="black"/>
</svg>
