<svg width="48" height="48" viewBox="0 0 48 48" fill="none" xmlns="http://www.w3.org/2000/svg">
<rect width="48" height="48" rx="24" fill="white"/>
<path d="M23.45 39.56C22.0233 39.56 20.6967 39.3 19.47 38.78C18.2433 38.2467 17.1833 37.5 16.29 36.54C15.41 35.5667 14.7633 34.4133 14.35 33.08L17.77 32.1C18.21 33.4333 18.9433 34.4467 19.97 35.14C20.9967 35.8333 22.15 36.1733 23.43 36.16C24.6033 36.1333 25.6167 35.8667 26.47 35.36C27.3367 34.84 28.0033 34.1333 28.47 33.24C28.95 32.3467 29.19 31.3133 29.19 30.14C29.19 28.3533 28.6567 26.9067 27.59 25.8C26.5233 24.68 25.1233 24.12 23.39 24.12C22.91 24.12 22.4033 24.1867 21.87 24.32C21.35 24.4533 20.8633 24.64 20.41 24.88L18.69 22.06L29.37 12.4L29.83 13.6H15.49V10.2H32.47V13.62L23.37 22.34L23.33 21.08C25.2367 20.9467 26.9033 21.26 28.33 22.02C29.7567 22.78 30.8633 23.8667 31.65 25.28C32.45 26.6933 32.85 28.3133 32.85 30.14C32.85 31.98 32.4367 33.6067 31.61 35.02C30.7833 36.4333 29.6633 37.5467 28.25 38.36C26.8367 39.16 25.2367 39.56 23.45 39.56Z" fill="black"/>
</svg>
