<svg width="48" height="48" viewBox="0 0 48 48" fill="none" xmlns="http://www.w3.org/2000/svg">
<rect width="48" height="48" rx="24" fill="white"/>
<path d="M14.4375 38.98L14.4575 35.78L27.2375 24.28C28.3042 23.32 29.0175 22.4133 29.3775 21.56C29.7508 20.6933 29.9375 19.8067 29.9375 18.9C29.9375 17.7933 29.6842 16.7933 29.1775 15.9C28.6708 15.0067 27.9775 14.3 27.0975 13.78C26.2308 13.26 25.2442 13 24.1375 13C22.9908 13 21.9708 13.2733 21.0775 13.82C20.1842 14.3533 19.4775 15.0667 18.9575 15.96C18.4508 16.8533 18.2042 17.8267 18.2175 18.88H14.5775C14.5775 17.0667 14.9975 15.4667 15.8375 14.08C16.6775 12.68 17.8175 11.5867 19.2575 10.8C20.7108 10 22.3575 9.6 24.1975 9.6C25.9842 9.6 27.5842 10.0133 28.9975 10.84C30.4108 11.6533 31.5242 12.7667 32.3375 14.18C33.1642 15.58 33.5775 17.1667 33.5775 18.94C33.5775 20.1933 33.4175 21.28 33.0975 22.2C32.7908 23.12 32.3108 23.9733 31.6575 24.76C31.0042 25.5333 30.1842 26.36 29.1975 27.24L18.5775 36.78L18.1175 35.58H33.5775V38.98H14.4375Z" fill="black"/>
</svg>
